<?xml version="1.0" standalone="no"?>
<!DOCTYPE svg PUBLIC "-//W3C//DTD SVG 1.1//EN" "http://www.w3.org/Graphics/SVG/1.1/DTD/svg11.dtd" >
<svg xmlns="http://www.w3.org/2000/svg">
<metadata></metadata>
<defs>
<font id="adihausbold" horiz-adv-x="1112" >
<font-face units-per-em="2048" ascent="1638" descent="-410" />
<missing-glyph horiz-adv-x="475" />
<glyph horiz-adv-x="2048" />
<glyph horiz-adv-x="2048" />
<glyph unicode="&#xd;" horiz-adv-x="475" />
<glyph unicode=" "  horiz-adv-x="475" />
<glyph unicode="&#x09;" horiz-adv-x="475" />
<glyph unicode="&#xa0;" horiz-adv-x="475" />
<glyph unicode="!" horiz-adv-x="710" d="M229 1458h330l-67 -1001h-197zM242 0v303h305v-303h-305z" />
<glyph unicode="&#x22;" horiz-adv-x="950" d="M139 1026v432h250v-432h-250zM561 1026v432h248v-432h-248z" />
<glyph unicode="#" horiz-adv-x="1415" d="M123 389v250h182l33 221h-143v248h182l57 362h281l-58 -362h238l57 362h279l-55 -362h141v-248h-182l-33 -221h141v-250h-182l-62 -389h-280l63 389h-237l-62 -389h-280l61 389h-141zM584 639h237l33 221h-236z" />
<glyph unicode="$" horiz-adv-x="1267" d="M39 180l184 185q61 -61 144.5 -90t181.5 -33v370l-66 9q-184 25 -282 122q-104 104 -105 285q0 178 114 298t312 140v185h207v-183q125 -8 223.5 -48t180.5 -120l-181 -178q-47 45 -113.5 70t-138.5 29v-357l78 -12q98 -14 165 -42t114 -73q112 -106 112 -307 q0 -182 -120.5 -296t-319.5 -138v-229h-207v221q-154 4 -270.5 49t-212.5 143zM371 1038q0 -63 43 -104q47 -45 135 -57v342q-86 -12 -132 -61.5t-46 -119.5zM700 246q191 22 191 176q0 82 -45 123q-27 25 -57.5 35t-79.5 16q-6 2 -9 2v-352z" />
<glyph unicode="%" horiz-adv-x="1736" d="M106 987v203q0 133 85 206.5t212 73.5t212 -73.5t85 -206.5v-203q0 -133 -85 -206.5t-212 -73.5t-212 73.5t-85 206.5zM299 995q0 -117 104 -116q105 -1 105 116v187q0 117 -105 116q-104 0 -104 -116v-187zM420 0l690 1458h209l-690 -1458h-209zM1036 268v203 q0 133 85 207t212 74t212 -74t85 -207v-203q0 -133 -85 -206.5t-212 -73.5t-212 73.5t-85 206.5zM1229 276q0 -117 104 -116q105 -1 105 116v187q0 117 -105 117q-104 0 -104 -117v-187z" />
<glyph unicode="&#x26;" horiz-adv-x="1476" d="M123 430q0 127 72.5 221t189.5 170q-63 74 -104 145.5t-41 163.5q0 152 104.5 246t284.5 94q170 0 271 -96t101 -248q0 -80 -38.5 -140t-110.5 -114q-16 -12 -48 -35.5t-56 -39.5l245 -291q68 90 74 256h252q-8 -147 -45 -258t-111 -195l262 -309h-338l-106 127l-8 -6 q-76 -59 -156 -96t-213 -37q-238 0 -359.5 116.5t-121.5 325.5zM381 434q0 -90 63.5 -147.5t157.5 -57.5q63 0 114.5 20.5t102.5 65.5l-291 342q-76 -51 -111.5 -101t-35.5 -122zM508 1124q0 -35 22.5 -68.5t71.5 -90.5l2 -4q14 8 32.5 20t29.5 20q39 27 61.5 58t22.5 65 q0 51 -33 85t-88 34q-57 0 -89 -33t-32 -86z" />
<glyph unicode="'" horiz-adv-x="530" d="M139 1026v432h252v-432h-252z" />
<glyph unicode="(" horiz-adv-x="688" d="M164 283v893q0 80 10 144t43 120q29 49 68 93t102 107l10 11l178 -178l-10 -11q-41 -41 -61.5 -65.5t-42.5 -61.5q-31 -55 -31 -172v-868q0 -117 31 -172q23 -37 44 -62.5t60 -64.5l10 -10l-178 -179l-10 11q-63 63 -102 107t-68 93q-33 55 -43 120t-10 145z" />
<glyph unicode=")" horiz-adv-x="688" d="M111 -12l18 18q37 37 56.5 59.5t39.5 57.5q31 55 31 172v868q0 117 -31 172q-20 35 -39.5 57.5t-56.5 59.5l-18 18l180 181l12 -11q61 -63 100 -107t68 -93q33 -55 43 -120t10 -144v-893q0 -80 -10 -144.5t-43 -120.5q-29 -49 -67.5 -93t-100.5 -107l-12 -11z" />
<glyph unicode="*" horiz-adv-x="1011" d="M113 942l225 119l-225 119l92 163l217 -137l-10 256h188l-8 -256l215 137l94 -163l-227 -119l227 -119l-94 -162l-215 135l8 -256h-188l10 256l-217 -135z" />
<glyph unicode="+" d="M102 442v250h330v328h250v-328h328v-250h-328v-327h-250v327h-330z" />
<glyph unicode="," horiz-adv-x="571" d="M139 291h293v-404l-293 -225v629z" />
<glyph unicode="-" horiz-adv-x="872" d="M121 461v248h631v-248h-631z" />
<glyph unicode="." horiz-adv-x="583" d="M139 0v303h305v-303h-305z" />
<glyph unicode="/" horiz-adv-x="825" d="M0 -152l584 1762h250l-584 -1762h-250z" />
<glyph unicode="0" horiz-adv-x="1081" d="M96 422v614q0 201 129 317.5t316 116.5q186 0 314 -116.5t128 -317.5v-614q0 -201 -128 -317.5t-314 -116.5t-315.5 116.5t-129.5 317.5zM362 424q0 -90 49.5 -143.5t129.5 -53.5t128 53.5t48 143.5v608q0 90 -48 144.5t-128 54.5t-129.5 -54.5t-49.5 -144.5v-608z" />
<glyph unicode="1" horiz-adv-x="1081" d="M195 913v287l297 258h266v-1458h-266v1171z" />
<glyph unicode="2" horiz-adv-x="1081" d="M104 0v240l545 632q41 49 58.5 88t17.5 89q0 84 -46 133t-130 49q-76 0 -127 -44t-51 -143h-267q0 195 126 310.5t319 115.5q197 0 319.5 -114.5t122.5 -308.5q0 -98 -34.5 -166t-120.5 -168l-408 -473h563v-240h-887z" />
<glyph unicode="3" horiz-adv-x="1081" d="M70 418h266q2 -94 58.5 -142.5t140.5 -48.5q88 0 142 53.5t54 149.5q0 92 -54 146.5t-151 54.5h-39v231h39q92 0 138.5 50.5t46.5 131.5q0 88 -51.5 137.5t-127.5 49.5t-126 -47t-54 -129h-266q4 190 131 302.5t315 112.5q96 0 178.5 -30.5t141.5 -86t92 -133t33 -167.5 q0 -111 -45 -184.5t-123 -114.5q86 -45 137 -127t51 -205q0 -209 -132 -321.5t-330 -112.5q-92 0 -175.5 24.5t-148 77.5t-102 135t-39.5 193z" />
<glyph unicode="4" horiz-adv-x="1081" d="M47 207v252l500 999h291l-500 -999h305v272h256v-272h133v-252h-133v-207h-256v207h-596z" />
<glyph unicode="5" horiz-adv-x="1081" d="M100 408h267q10 -88 54 -134.5t124 -46.5t127 47q33 33 45 87.5t12 130.5q0 131 -42 196.5t-136 65.5q-74 0 -117 -34t-59 -85h-244v823h832v-239h-590v-314q33 31 91 52.5t128 21.5q174 0 272 -98q78 -78 104.5 -172t26.5 -217q0 -133 -26.5 -221.5t-102.5 -164.5 q-53 -53 -134 -85.5t-187 -32.5t-190.5 32.5t-135.5 83.5q-61 61 -85.5 135t-33.5 169z" />
<glyph unicode="6" horiz-adv-x="1081" d="M82 438q0 90 30.5 177t92.5 212l307 631h291l-303 -602q45 18 108 18q74 0 143.5 -29.5t124 -86t85 -137.5t30.5 -179q0 -211 -128 -332.5t-326 -121.5q-199 0 -327 119.5t-128 330.5zM348 440q0 -98 52.5 -155.5t136.5 -57.5t136 57.5t52 155.5q0 96 -52 154.5 t-136 58.5t-136.5 -56t-52.5 -157z" />
<glyph unicode="7" horiz-adv-x="1081" d="M86 989v469h928v-239l-473 -1219h-289l473 1219h-385v-230h-254z" />
<glyph unicode="8" horiz-adv-x="1081" d="M74 424q0 119 52 197.5t130 130.5q-68 47 -116 122.5t-48 180.5q0 94 35 172t97.5 132t143.5 82.5t173 28.5t173 -28.5t142.5 -82.5t96 -132t34.5 -172q0 -104 -48 -180t-116 -123q78 -51 131.5 -130t53.5 -198q0 -205 -132.5 -320.5t-334.5 -115.5q-201 0 -334 115.5 t-133 320.5zM340 428q0 -84 58.5 -142.5t142.5 -58.5t142 58.5t58 142.5t-58 143.5t-142 59.5t-142.5 -59.5t-58.5 -143.5zM358 1047q0 -80 52.5 -132.5t130.5 -52.5t129 52.5t51 132.5q0 78 -51.5 131t-128.5 53q-78 0 -130.5 -53.5t-52.5 -130.5z" />
<glyph unicode="9" horiz-adv-x="1081" d="M88 1016q0 211 128 332.5t327 121.5t326.5 -119.5t127.5 -330.5q0 -90 -30.5 -178t-89.5 -211l-310 -631h-288l303 602q-45 -18 -109 -18q-74 0 -143.5 29.5t-123.5 86t-86 137.5t-32 179zM354 1018q0 -96 52.5 -154.5t136.5 -58.5t136 57.5t52 155.5q0 100 -52 156.5 t-136 56.5t-136.5 -56.5t-52.5 -156.5z" />
<glyph unicode=":" horiz-adv-x="632" d="M190 0v303h304v-303h-304zM190 555v303h304v-303h-304z" />
<glyph unicode=";" horiz-adv-x="632" d="M190 555v303h304v-303h-304zM197 291h290v-404l-290 -225v629z" />
<glyph unicode="&#x3c;" d="M141 469v231l832 383v-280l-494 -219l494 -217v-281z" />
<glyph unicode="=" d="M102 238v249h908v-249h-908zM102 682v250h908v-250h-908z" />
<glyph unicode="&#x3e;" d="M141 86v281l494 217l-494 219v280l832 -383v-231z" />
<glyph unicode="?" horiz-adv-x="1071" d="M135 1061q0 92 33 169t92 130t137 81.5t168 28.5q88 0 166 -27.5t138.5 -80.5t94 -130t33.5 -171q0 -72 -25.5 -132.5t-74.5 -123.5l-152 -201q-16 -20 -26 -50t-10 -54v-43h-267v61q0 63 17.5 110.5t60.5 102.5l152 195q27 35 43 69.5t16 67.5q0 74 -45 121t-121 47 q-78 0 -121 -48t-43 -122h-266zM434 0v272h283v-272h-283z" />
<glyph unicode="@" horiz-adv-x="1800" d="M170 707q0 152 59.5 290t165 245.5t244.5 167.5t293 60q145 0 272 -46t223.5 -133t149.5 -209t53 -267q0 -90 -34.5 -179t-96 -161t-142.5 -112.5t-169 -40.5q-84 0 -131 38.5t-53 96.5q-25 -55 -82.5 -95t-112.5 -40q-70 0 -122 28.5t-86 77.5t-50 109.5t-16 124.5 q0 80 22.5 157.5t65.5 144t108.5 105.5t149.5 39q61 0 100 -32t66 -81l16 97h213l-66 -474q-6 -43 -6 -69q0 -43 43 -43q33 0 63.5 27.5t55.5 74.5t38 100.5t13 104.5q0 213 -134 335t-353 122q-115 0 -215.5 -46t-174 -126t-114.5 -182.5t-41 -213.5q0 -231 143 -376 q70 -70 168.5 -109t221.5 -39q158 0 268 25.5t207 68.5l61 -184q-129 -57 -257 -78.5t-318 -21.5q-143 0 -272.5 52t-227.5 147.5t-153.5 228.5t-55.5 291zM764 686q0 -72 13.5 -119t60.5 -47t81.5 25.5t54 65.5t28 86t8.5 89q0 121 -109 121q-31 0 -56.5 -22.5t-43 -56 t-27.5 -72.5t-10 -70z" />
<glyph unicode="A" horiz-adv-x="1306" d="M10 0l531 1458h223l532 -1458h-297l-86 258h-518l-88 -258h-297zM475 498h363l-179 530z" />
<glyph unicode="B" horiz-adv-x="1347" d="M170 0v1458h586q213 0 331.5 -110.5t118.5 -298.5q0 -111 -56 -190t-124 -111q82 -39 141.5 -118t59.5 -210q0 -199 -123 -309.5t-324 -110.5h-610zM455 254h297q92 0 141 51t49 129t-49 128t-141 50h-297v-358zM455 868h278q90 0 139.5 46t49.5 122t-49.5 122t-139.5 46 h-278v-336z" />
<glyph unicode="C" horiz-adv-x="1150" d="M121 729q0 242 23.5 363.5t119.5 218.5q159 159 390 159h3q131 0 225.5 -42t180.5 -125l-189 -189q-53 53 -99 78t-118 25q-115 0 -180 -76q-23 -25 -36 -53.5t-20 -71.5t-11 -110.5t-4 -176.5t4 -176.5t11 -110.5t20.5 -71.5t35.5 -53.5q65 -75 177 -75h3q72 0 118 24.5 t99 77.5l189 -188q-86 -84 -180.5 -126t-225.5 -42q-233 0 -393 159q-96 96 -119.5 218t-23.5 364z" />
<glyph unicode="D" horiz-adv-x="1349" d="M170 0v1458h526q117 0 216.5 -34.5t168.5 -104.5q51 -49 80 -106.5t44.5 -126t19.5 -150.5t4 -201q0 -246 -23 -354q-14 -74 -45 -133.5t-80 -108.5q-70 -70 -169 -104.5t-216 -34.5h-526zM455 254h215q139 0 213 90q39 47 50 130t11 261q0 174 -11 253t-50 126 q-74 90 -213 90h-215v-950z" />
<glyph unicode="E" horiz-adv-x="1239" d="M170 0v1458h960v-254h-675v-342h575v-254h-575v-354h675v-254h-960z" />
<glyph unicode="F" horiz-adv-x="1208" d="M170 0v1458h960v-254h-675v-358h575v-254h-575v-592h-285z" />
<glyph unicode="G" horiz-adv-x="1304" d="M121 729q0 242 23.5 363.5t119.5 218.5q159 159 390 159h3q147 0 247 -42t200 -144l-193 -192q-68 68 -121 96.5t-133 28.5q-115 0 -182 -78q-23 -25 -35 -52.5t-20 -71.5t-11 -109.5t-3 -176.5t3 -177.5t11 -110.5t21.5 -71.5t33.5 -52.5q65 -75 179 -75h3q119 0 195 82 q33 37 48 89t15 109v51h-258v238h543v-209q0 -162 -29.5 -265.5t-105.5 -180.5q-162 -168 -408 -168q-233 0 -393 159q-96 96 -119.5 218t-23.5 364z" />
<glyph unicode="H" horiz-adv-x="1402" d="M170 0v1458h285v-596h493v596h285v-1458h-285v610h-493v-610h-285z" />
<glyph unicode="I" horiz-adv-x="624" d="M170 0v1458h285v-1458h-285z" />
<glyph unicode="J" horiz-adv-x="1046" d="M6 137l189 187q41 -41 81.5 -61.5t104.5 -20.5q106 0 167.5 63.5t61.5 186.5v966h285v-979q0 -117 -41 -209t-112.5 -155.5t-165 -95t-195.5 -31.5q-119 0 -206 34.5t-169 114.5z" />
<glyph unicode="K" horiz-adv-x="1361" d="M170 0v1458h285v-635l514 635h346l-484 -579l519 -879h-332l-375 664l-188 -226v-438h-285z" />
<glyph unicode="L" horiz-adv-x="1177" d="M170 0v1458h285v-1204h661v-254h-946z" />
<glyph unicode="M" horiz-adv-x="1660" d="M170 0v1458h281l380 -788l379 788h281v-1458h-285v850l-278 -553h-193l-280 553v-850h-285z" />
<glyph unicode="N" horiz-adv-x="1456" d="M170 0v1458h254l577 -893v893h285v-1458h-254l-577 895v-895h-285z" />
<glyph unicode="O" horiz-adv-x="1318" d="M121 729q0 242 23.5 363.5t119.5 218.5q80 80 177.5 119.5t217.5 39.5q121 0 217.5 -39.5t176.5 -119.5q98 -98 121.5 -221t23.5 -361t-23.5 -360.5t-121.5 -221.5q-80 -80 -176.5 -119.5t-217.5 -39.5t-218 40t-177 119q-96 96 -119.5 218t-23.5 364zM406 729 q0 -111 3 -177.5t11 -109.5t21.5 -70.5t33.5 -52.5q31 -37 79 -57t105 -20q115 0 183 77q23 25 36 53.5t21 70.5t11 111t3 175q0 109 -3 176.5t-11 110.5t-21.5 70.5t-35.5 52.5q-68 78 -183 78q-57 0 -105 -20.5t-79 -57.5q-23 -25 -35 -52.5t-20 -71.5t-11 -109.5 t-3 -176.5z" />
<glyph unicode="P" horiz-adv-x="1286" d="M170 0v1458h565q111 0 201 -34.5t152.5 -98t95.5 -145.5t33 -176t-33 -176.5t-95.5 -144.5t-152.5 -98t-201 -36h-280v-549h-285zM455 805h266q96 0 153.5 54.5t57.5 144.5t-57.5 145t-153.5 55h-266v-399z" />
<glyph unicode="Q" horiz-adv-x="1316" d="M121 729q0 242 23.5 363.5t119.5 218.5q80 80 177.5 119.5t217.5 39.5q121 0 217.5 -39.5t176.5 -119.5q98 -98 121.5 -221t23.5 -361q0 -209 -15.5 -318.5t-74.5 -197.5l125 -125l-150 -149l-129 129q-123 -80 -295 -80q-121 0 -218 40t-177 119q-96 96 -119.5 218 t-23.5 364zM406 729q0 -111 3 -177.5t11 -109.5t21.5 -70.5t33.5 -52.5q31 -37 79 -57t105 -20q55 0 95 26l-127 125l151 150l109 -109q16 45 21 110.5t5 184.5q0 109 -3 176.5t-11 110.5t-21.5 70.5t-35.5 52.5q-68 78 -183 78q-57 0 -105 -20.5t-79 -57.5 q-23 -25 -35 -52.5t-20 -71.5t-11 -109.5t-3 -176.5z" />
<glyph unicode="R" horiz-adv-x="1339" d="M170 0v1458h571q109 0 198 -34.5t150.5 -96t93 -142.5t31.5 -173q0 -145 -75.5 -243.5t-190.5 -139.5l326 -629h-330l-285 582h-204v-582h-285zM455 819h268q92 0 149.5 53.5t57.5 139.5t-57.5 139t-149.5 53h-268v-385z" />
<glyph unicode="S" horiz-adv-x="1210" d="M39 180l184 185q66 -66 155 -94.5t197 -28.5q258 0 259 180q0 82 -46 123q-23 20 -51 31.5t-78 19.5l-176 25q-186 27 -282 120q-104 104 -105 287q0 199 137.5 320.5t370.5 121.5q154 0 266.5 -39.5t204.5 -130.5l-180 -178q-61 59 -136 80t-163 21q-109 0 -167 -52.5 t-58 -132.5q0 -63 43 -104q49 -45 135 -57l172 -25q98 -14 164.5 -41t113.5 -72q113 -106 113 -309q0 -207 -151.5 -324.5t-389.5 -117.5q-172 0 -300 44t-232 148z" />
<glyph unicode="T" horiz-adv-x="1169" d="M61 1204v254h1047v-254h-381v-1204h-285v1204h-381z" />
<glyph unicode="U" horiz-adv-x="1368" d="M147 500v958h285v-948q0 -125 68.5 -196.5t183.5 -71.5q117 0 185.5 71.5t68.5 196.5v948h283v-958q0 -115 -41 -209t-115 -163t-172 -104.5t-209 -35.5t-209 35.5t-172 104.5t-115 163t-41 209z" />
<glyph unicode="V" horiz-adv-x="1189" d="M6 1458h295l293 -950l293 950h297l-484 -1458h-213z" />
<glyph unicode="W" horiz-adv-x="1816" d="M12 1458h297l226 -919l266 919h213l266 -919l227 919h297l-391 -1458h-237l-269 885l-268 -885h-238z" />
<glyph unicode="X" horiz-adv-x="1234" d="M10 0l453 748l-424 710h323l254 -471l256 471h322l-424 -710l455 -748h-326l-283 508l-280 -508h-326z" />
<glyph unicode="Y" horiz-adv-x="1171" d="M6 1458h309l273 -588l268 588h309l-438 -860v-598h-283v598z" />
<glyph unicode="Z" horiz-adv-x="1122" d="M82 0v229l623 975h-596v254h931v-225l-624 -979h624v-254h-958z" />
<glyph unicode="[" horiz-adv-x="774" d="M164 -152v1762h526v-240h-260v-1282h260v-240h-526z" />
<glyph unicode="\" horiz-adv-x="825" d="M0 1583h250l575 -1735h-250z" />
<glyph unicode="]" horiz-adv-x="774" d="M86 86h260v1286h-260v238h526v-1762h-526v238z" />
<glyph unicode="^" horiz-adv-x="1232" d="M129 797l365 676h245l365 -676h-279l-209 385l-208 -385h-279z" />
<glyph unicode="_" horiz-adv-x="1232" d="M0 -186h1233v-179h-1233v179z" />
<glyph unicode="`" horiz-adv-x="1024" d="M213 1585h281l131 -348h-179z" />
<glyph unicode="a" horiz-adv-x="1093" d="M74 324q0 135 93 222t271 87h252v53q0 88 -46 128t-152 40q-74 0 -118 -19.5t-87 -68.5l-170 166q76 84 162 115.5t223 31.5q455 0 454 -377v-702h-260v92q-55 -55 -113.5 -78.5t-148.5 -23.5q-178 0 -272 94q-88 92 -88 240zM369 240q39 -33 114 -33q61 0 98 10t70 41 q39 37 39 135v58h-211q-149 0 -149 -119q0 -59 39 -92z" />
<glyph unicode="b" horiz-adv-x="1146" d="M150 0v1458h266v-485q51 57 113.5 81.5t144.5 24.5q78 0 146.5 -25.5t113.5 -70.5q72 -70 90 -177t18 -271q0 -78 -2 -135.5t-12 -110.5q-23 -133 -94 -205q-45 -45 -113.5 -70.5t-146.5 -25.5q-86 0 -148.5 25.5t-117.5 86.5v-100h-258zM416 535q0 -74 6 -127.5 t24.5 -94.5t55.5 -63.5t94 -22.5t94 22.5t55.5 63.5t24.5 94.5t6 127.5t-6 127t-24.5 93t-55.5 62.5t-94 22.5t-94 -22.5t-55.5 -62.5t-24.5 -93.5t-6 -126.5z" />
<glyph unicode="c" horiz-adv-x="983" d="M96 535q0 154 42 261t111.5 168.5t152.5 88t171 26.5q111 0 197 -34.5t156 -108.5l-181 -180q-43 45 -81.5 64.5t-90.5 19.5q-94 0 -151 -70q-59 -74 -60 -235q0 -164 60 -238q57 -70 151 -70q51 0 90 19.5t82 64.5l181 -178q-139 -145 -353 -145q-88 0 -169.5 26.5 t-152.5 89t-113 170t-42 261.5z" />
<glyph unicode="d" horiz-adv-x="1148" d="M104 535q0 164 19.5 271t89.5 177q45 45 113.5 70.5t146.5 25.5q84 0 146.5 -24.5t113.5 -81.5v485h266v-1458h-260v100q-55 -61 -116.5 -86.5t-147.5 -25.5q-78 0 -147.5 25.5t-114.5 70.5q-70 72 -94 205q-8 53 -11.5 110.5t-3.5 135.5zM371 535q0 -74 6 -127.5 t24.5 -94.5t55.5 -63.5t94 -22.5q111 0 151 88q18 39 24.5 93.5t6.5 126.5q0 74 -6 127t-25 90q-41 88 -151 88q-57 0 -94 -22.5t-55.5 -62.5t-24.5 -93.5t-6 -126.5z" />
<glyph unicode="e" horiz-adv-x="1122" d="M96 535q0 258 127 401t338 143q217 0 341 -142t124 -368v-118h-668q0 -106 62.5 -172t171.5 -66q84 0 136 23.5t106 76.5l161 -157q-88 -88 -178 -128t-227 -40q-102 0 -189.5 26.5t-156 88t-108.5 169t-40 263.5zM358 633h406q-2 35 -7 60.5t-18 54.5q-23 51 -67.5 80.5 t-110.5 29.5q-63 0 -109 -29.5t-69 -80.5q-12 -29 -17.5 -54.5t-7.5 -60.5z" />
<glyph unicode="f" horiz-adv-x="700" d="M72 834v202h110v133q0 125 80 215.5t232 90.5h151v-226h-104q-92 0 -92 -96v-117h196v-202h-196v-834h-267v834h-110z" />
<glyph unicode="g" horiz-adv-x="1136" d="M104 563q0 164 19.5 258t89.5 164q45 45 111.5 69.5t144.5 24.5q84 0 144.5 -25.5t115.5 -86.5v100h258v-1028q0 -195 -128 -318.5t-341 -123.5q-127 0 -217 30.5t-170 108.5l166 168q45 -43 93 -62.5t116 -19.5q111 0 163 64.5t52 156.5v109q-51 -57 -112.5 -82 t-141.5 -25q-78 0 -143.5 24.5t-110.5 69.5q-70 70 -89.5 165t-19.5 259zM371 563q0 -63 6 -109t23.5 -85t53 -61.5t91.5 -22.5q57 0 92 22.5t53.5 61.5t24.5 86t6 108t-6 108.5t-23.5 85.5t-53.5 60.5t-93 22.5t-92 -22.5t-52.5 -60.5t-23.5 -84t-6 -110z" />
<glyph unicode="h" horiz-adv-x="1165" d="M150 0v1458h266v-489q108 110 253 110h3q170 0 263 -107.5t93 -281.5v-690h-266v651q0 98 -51.5 143.5t-122.5 45.5q-72 0 -122 -46t-50 -143v-651h-266z" />
<glyph unicode="i" horiz-adv-x="563" d="M145 1249v217h273v-217h-273zM150 0v1067h266v-1067h-266z" />
<glyph unicode="j" horiz-adv-x="563" d="M-47 -174h102q94 0 95 96v1145h266v-1161q0 -125 -79 -215t-233 -90h-151v225zM145 1249v217h273v-217h-273z" />
<glyph unicode="k" horiz-adv-x="1144" d="M150 0v1458h266v-827l354 436h322l-381 -430l409 -637h-329l-263 444l-112 -127v-317h-266z" />
<glyph unicode="l" horiz-adv-x="665" d="M139 305v1153h267v-1136q0 -96 94 -97h102v-225h-151q-154 0 -233 90t-79 215z" />
<glyph unicode="m" horiz-adv-x="1794" d="M150 0v1067h260v-98q51 53 121.5 81.5t144.5 28.5q184 0 282 -135q68 70 144 102.5t176 32.5q80 0 148.5 -24.5t113.5 -69.5q61 -61 89 -136t28 -167v-682h-266v645q0 100 -52.5 147.5t-124.5 47.5t-125 -46t-53 -143v-651h-266v645q0 100 -52 147.5t-124 47.5 q-74 0 -126 -47.5t-52 -147.5v-645h-266z" />
<glyph unicode="n" horiz-adv-x="1173" d="M150 0v1067h260v-98q51 53 120.5 81.5t145.5 28.5q158 0 252 -94q61 -61 84.5 -135t23.5 -168v-682h-266v645q0 100 -52 147.5t-124 47.5q-74 0 -126 -47.5t-52 -147.5v-645h-266z" />
<glyph unicode="o" d="M104 535q0 152 26 247t95 166q55 59 137 95t193 36t193.5 -36.5t138.5 -94.5q70 -72 95.5 -166.5t25.5 -246.5q0 -154 -26 -249.5t-95 -166.5q-55 -57 -138 -94t-194 -37t-192.5 36.5t-137.5 94.5q-70 72 -95.5 167t-25.5 249zM371 535q0 -98 12 -160t49 -101 q47 -47 123 -47q78 0 125 47q39 39 50 101t11 160t-11 159.5t-50 98.5q-47 47 -125 47q-76 0 -123 -47q-37 -37 -49 -98.5t-12 -159.5z" />
<glyph unicode="p" horiz-adv-x="1146" d="M150 -391v1458h258v-100q55 61 117.5 86.5t148.5 25.5q78 0 146.5 -25.5t113.5 -70.5q72 -70 90 -177t18 -271q0 -78 -2 -135.5t-12 -110.5q-23 -133 -94 -205q-45 -45 -113.5 -70.5t-146.5 -25.5q-82 0 -144.5 24.5t-113.5 81.5v-485h-266zM416 535q0 -74 6 -127.5 t24.5 -94.5t55.5 -63.5t94 -22.5t94 22.5t55.5 63.5t24.5 94.5t6 127.5t-6 127t-24.5 93t-55.5 62.5t-94 22.5t-94 -22.5t-55.5 -62.5t-24.5 -93.5t-6 -126.5z" />
<glyph unicode="q" horiz-adv-x="1148" d="M104 535q0 164 19.5 271t89.5 177q45 45 114.5 70.5t147.5 25.5q86 0 147.5 -25.5t116.5 -86.5v100h260v-1458h-266v485q-51 -57 -113.5 -81.5t-146.5 -24.5q-78 0 -146.5 25.5t-113.5 70.5q-70 72 -94 205q-8 53 -11.5 110.5t-3.5 135.5zM371 535q0 -74 6 -127.5 t24.5 -94.5t55.5 -63.5t94 -22.5q111 0 151 88q18 39 24.5 93.5t6.5 126.5q0 74 -6 127t-25 90q-41 88 -151 88q-57 0 -94 -22.5t-55.5 -62.5t-24.5 -93.5t-6 -126.5z" />
<glyph unicode="r" horiz-adv-x="931" d="M150 0v1067h260v-102q41 49 113.5 81.5t154.5 32.5q80 0 139.5 -22.5t112.5 -77.5l-201 -203q-33 35 -64.5 49.5t-76.5 14.5q-68 0 -120 -51.5t-52 -145.5v-643h-266z" />
<glyph unicode="s" horiz-adv-x="1026" d="M45 141l174 174q59 -59 132 -79.5t153 -20.5q78 0 133 27.5t55 83.5q0 43 -26.5 67.5t-85.5 30.5l-82 8l-86 8q-152 14 -232 86t-80 213q0 160 120 250t292 90q133 0 234.5 -28.5t173.5 -96.5l-164 -166q-43 39 -106.5 55.5t-141.5 16.5q-76 0 -114 -29.5t-38 -72.5 q0 -35 23.5 -60.5t87.5 -31.5l86 -9l82 -8q158 -14 237.5 -95t79.5 -218q0 -170 -127 -259t-325 -89q-147 0 -255 30.5t-200 122.5z" />
<glyph unicode="t" horiz-adv-x="720" d="M61 834v202h113v316h266v-316h189v-202h-189v-512q0 -96 92 -97h97v-225h-146q-152 0 -230.5 90t-78.5 215v529h-113z" />
<glyph unicode="u" horiz-adv-x="1173" d="M137 385v682h266v-645q0 -100 52.5 -147.5t124.5 -47.5q74 0 126 47.5t52 147.5v645h266v-1067h-260v98q-51 -53 -121 -81.5t-145 -28.5q-158 0 -252 94q-61 61 -85 135t-24 168z" />
<glyph unicode="v" horiz-adv-x="1009" d="M8 1067h281l217 -659l215 659h280l-391 -1067h-209z" />
<glyph unicode="w" horiz-adv-x="1554" d="M8 1067h283l172 -659l217 659h194l220 -659l172 659h280l-325 -1067h-220l-223 670l-223 -670h-219z" />
<glyph unicode="x" horiz-adv-x="1079" d="M25 0l368 545l-354 522h319l181 -305l182 305h319l-354 -522l369 -545h-320l-196 319l-195 -319h-319z" />
<glyph unicode="y" horiz-adv-x="1011" d="M8 1067h281l221 -659l213 659h281l-457 -1239q-35 -92 -80 -137q-43 -45 -101.5 -63.5t-127.5 -18.5h-105v239h62q57 0 84.5 19.5t48.5 77.5l45 131z" />
<glyph unicode="z" horiz-adv-x="978" d="M76 0v203l473 624h-447v240h787v-203l-479 -624h479v-240h-813z" />
<glyph unicode="{" horiz-adv-x="935" d="M88 610v238h94q68 0 107 39q35 35 35 123v297q0 141 86 227q76 76 229 76h209v-240h-109q-47 0 -73.5 -6t-42.5 -23q-33 -35 -33 -131v-276q0 -51 -13.5 -88t-35 -59.5t-44 -35t-48.5 -22.5q27 -10 49 -22.5t43.5 -35t35 -59.5t13.5 -88v-276q0 -94 33 -131 q16 -16 42.5 -22.5t73.5 -6.5h109v-240h-209q-154 0 -229 76q-86 86 -86 228v297q0 88 -35 122q-39 39 -107 39h-94z" />
<glyph unicode="|" horiz-adv-x="716" d="M225 -152v1762h267v-1762h-267z" />
<glyph unicode="}" horiz-adv-x="935" d="M88 88h109q47 0 73.5 6t42.5 23q33 37 33 131v276q0 51 13.5 88t35 59.5t44 35t48.5 22.5q-27 10 -49 22.5t-43.5 35t-35 59.5t-13.5 88v276q0 96 -33 131q-16 16 -42.5 22.5t-73.5 6.5h-109v240h209q154 0 229 -76q86 -86 86 -227v-297q0 -88 35 -123q39 -39 107 -39h94 v-238h-94q-68 0 -107 -39q-35 -35 -35 -122v-297q0 -141 -86 -228q-76 -76 -229 -76h-209v240z" />
<glyph unicode="~" horiz-adv-x="1241" d="M76 600q96 96 169.5 136t166.5 40q61 0 115.5 -16.5t123.5 -52.5q49 -25 87 -37.5t79 -12.5q47 0 86 16.5t92 69.5l170 -168q-96 -96 -170.5 -136t-167.5 -40q-61 0 -115.5 16.5t-123.5 53.5q-47 25 -87 37t-81 12q-47 0 -85 -16.5t-91 -69.5z" />
<glyph horiz-adv-x="1400" d="M80 485v170h141v154h-141v170h149q10 109 41 187.5t97 144.5q160 160 393 159q211 0 354 -118.5t180 -341.5h-288q-23 94 -84.5 150.5t-161.5 56.5q-111 0 -180 -76q-27 -31 -40.5 -66t-19.5 -96h303v-170h-315v-154h315v-170h-305q6 -63 20.5 -100t41.5 -68 q70 -76 180 -75q100 0 162.5 56t85.5 151h286q-37 -223 -181 -342t-353 -119q-233 0 -393 159q-66 68 -96.5 147t-41.5 191h-149z" />
<glyph unicode="&#xa1;" horiz-adv-x="710" d="M154 -391l65 1001h199l65 -1001h-329zM178 795v272h281v-272h-281z" />
<glyph unicode="&#xa2;" horiz-adv-x="1021" d="M96 750q0 227 104.5 363t274.5 171v174h207v-174q160 -29 279 -154l-177 -172q-33 35 -61.5 54.5t-69.5 29.5v-585q41 10 70 29.5t61 54.5l177 -172q-119 -125 -279 -154v-215h-207v215q-170 35 -274.5 171t-104.5 364zM362 750q0 -156 64 -236q31 -41 78 -53v577 q-43 -12 -78 -53q-63 -80 -64 -235z" />
<glyph unicode="&#xa3;" horiz-adv-x="1185" d="M82 608v205h125v166q0 117 41 209t112.5 155.5t164.5 95t196 31.5q119 0 206 -33.5t167 -115.5l-187 -186q-41 41 -81 61.5t-105 20.5q-106 0 -169 -63.5t-63 -186.5v-154h232v-205h-232v-354h605v-254h-887v608h-125z" />
<glyph unicode="&#xa4;" horiz-adv-x="1370" d="M119 197l151 149q-68 115 -67 240q0 125 67 239l-151 150l176 176l151 -150q111 66 238 66q129 0 240 -66l151 150l174 -176l-149 -150q66 -111 65 -239q0 -129 -65 -240l149 -149l-174 -177l-151 150q-111 -66 -240 -66q-127 0 -238 66l-151 -150zM444 586 q0 -100 70 -170t170 -70t171 70t71 170t-71 169.5t-171 69.5t-170 -69.5t-70 -169.5z" />
<glyph unicode="&#xa5;" horiz-adv-x="1169" d="M6 1458h309l271 -590l270 590h307l-278 -553h151v-205h-256l-53 -102v-104h309v-205h-309v-289h-283v289h-311v205h311v104l-53 102h-258v205h154z" />
<glyph unicode="&#xa6;" horiz-adv-x="722" d="M225 -152v717h267v-717h-267zM225 893v717h267v-717h-267z" />
<glyph unicode="&#xa7;" horiz-adv-x="1087" d="M125 543q0 104 57.5 185t128.5 120q-72 39 -113.5 101.5t-41.5 166.5q0 150 102 252t291 102q193 0 292 -98t101 -254h-250q-2 66 -41 95.5t-102 29.5q-68 0 -105.5 -33.5t-37.5 -87.5q0 -90 137 -135l127 -41q154 -49 226.5 -138t72.5 -247q0 -102 -57.5 -184 t-127.5 -121q76 -37 121 -105.5t45 -179.5q0 -92 -33.5 -162.5t-91 -117.5t-130 -70.5t-150.5 -23.5t-149.5 21.5t-129 65.5t-92.5 113.5t-37 163.5h256q4 -57 44 -93t108 -36q70 0 109.5 36t39.5 95q0 47 -32.5 87t-110.5 65l-127 43q-154 51 -226.5 139t-72.5 246z M381 551q0 -51 13.5 -83t35.5 -54q43 -43 117 -43q72 0 115 43q23 23 37 54.5t14 82.5q0 49 -13.5 82t-37.5 57q-47 43 -115 43q-74 0 -117 -43q-25 -25 -37 -57.5t-12 -81.5z" />
<glyph unicode="&#xa8;" horiz-adv-x="1024" d="M172 1241v256h227v-256h-227zM625 1241v256h227v-256h-227z" />
<glyph unicode="&#xa9;" horiz-adv-x="1728" d="M123 729q0 152 57.5 287t159.5 237.5t237.5 159.5t286.5 57q152 0 287 -57t237.5 -159.5t160 -237.5t57.5 -287t-57.5 -287t-160 -237.5t-237.5 -159.5t-287 -57t-287 57t-237 159.5t-159.5 238t-57.5 286.5zM299 729q0 -121 43 -227.5t121 -184t181.5 -120.5t219.5 -43 q117 0 220.5 43t180 120.5t119.5 184t43 227.5t-43 227.5t-119.5 184.5t-180 121t-220.5 43t-221 -43t-181 -121t-120 -184.5t-43 -227.5zM512 729q0 190 103.5 297t263.5 107q82 0 144 -27t126 -82l-115 -115q-43 37 -76.5 51.5t-78.5 14.5q-94 0 -143.5 -65.5 t-49.5 -180.5t49 -180.5t144 -65.5q45 0 78.5 14.5t76.5 51.5l115 -115q-59 -53 -123.5 -79.5t-146.5 -26.5q-160 0 -263.5 105.5t-103.5 295.5z" />
<glyph unicode="&#xaa;" horiz-adv-x="929" d="M98 864q0 109 75 178.5t216 69.5h199v41q0 70 -37 101.5t-121 31.5q-59 0 -93 -15.5t-69 -53.5l-137 133q61 68 131 93t178 25q362 0 363 -301v-561h-211v74q-45 -45 -90 -63.5t-117 -18.5q-139 0 -215 78q-72 72 -72 188zM307 870q0 -94 117 -94q47 0 77.5 8.5 t55.5 30.5q31 29 31 105v47h-166q-115 0 -115 -97z" />
<glyph unicode="&#xab;" horiz-adv-x="1286" d="M70 563l510 508v-317l-193 -191l193 -190v-318zM639 563l512 508v-317l-197 -191l197 -190v-318z" />
<glyph unicode="&#xac;" d="M94 489v248h924v-544h-248v296h-676z" />
<glyph unicode="&#xad;" d="M102 461v248h908v-248h-908z" />
<glyph unicode="&#xae;" horiz-adv-x="1728" d="M123 729q0 152 57.5 287t159.5 237.5t237.5 159.5t286.5 57q152 0 287 -57t237.5 -159.5t160 -237.5t57.5 -287t-57.5 -287t-160 -237.5t-237.5 -159.5t-287 -57t-287 57t-237 159.5t-159.5 238t-57.5 286.5zM299 729q0 -121 43 -227.5t120 -184t180 -120.5t222 -43 t222.5 43t180 120.5t120 184t43.5 227.5t-43.5 227.5t-120 184.5t-180 121t-222.5 43t-222 -43t-180 -121t-120 -184.5t-43 -227.5zM594 336v788h321q117 0 190 -72.5t73 -174.5q0 -76 -41 -130.5t-105 -78.5l166 -332h-201l-143 305h-84v-305h-176zM770 774h123 q47 0 77.5 30t30.5 73t-30.5 72.5t-77.5 29.5h-123v-205z" />
<glyph unicode="&#xaf;" horiz-adv-x="1024" d="M188 1290v178h648v-178h-648z" />
<glyph unicode="&#xb0;" horiz-adv-x="978" d="M113 1110q0 78 28.5 146.5t80.5 121t121 82t146 29.5q78 0 147 -29.5t121 -82t80.5 -121t28.5 -146.5t-28.5 -146.5t-80.5 -120.5t-121 -81t-147 -29t-146.5 29t-120.5 81t-80.5 120.5t-28.5 146.5zM328 1110q0 -70 47 -117t114 -47q68 0 115 47t47 117t-48 117t-116 47 t-113.5 -47t-45.5 -117z" />
<glyph unicode="&#xb1;" d="M102 0v250h908v-250h-908zM102 698v248h330v330h250v-330h328v-248h-328v-329h-250v329h-330z" />
<glyph unicode="&#xb2;" horiz-adv-x="733" d="M88 584v174l320 350q25 27 35 48.5t10 47.5q0 88 -86 88q-37 0 -61.5 -20.5t-24.5 -69.5h-193q0 123 79 193.5t200 70.5q123 0 200.5 -70.5t77.5 -191.5q0 -63 -24.5 -106t-81.5 -107l-215 -233h321v-174h-557z" />
<glyph unicode="&#xb3;" horiz-adv-x="753" d="M88 846h193q0 -47 27.5 -72.5t68.5 -25.5q45 0 70.5 27.5t25.5 74.5q0 43 -27.5 70.5t-72.5 27.5h-27v166h27q45 0 67.5 26.5t22.5 61.5q0 43 -24.5 66.5t-61.5 23.5t-61.5 -22.5t-24.5 -63.5h-193q0 119 80 189.5t199 70.5q121 0 199.5 -72.5t78.5 -185.5 q0 -66 -25.5 -106.5t-66.5 -65.5q45 -29 74 -74.5t29 -117.5q0 -129 -83 -199t-206 -70q-121 0 -205 68t-84 203z" />
<glyph unicode="&#xb4;" horiz-adv-x="1024" d="M399 1237l131 348h281l-233 -348h-179z" />
<glyph unicode="&#xb5;" horiz-adv-x="1179" d="M143 -391v1458h267v-645q0 -100 52 -147.5t124 -47.5q74 0 126 47.5t52 147.5v645h266v-1067h-260v98q-51 -53 -120.5 -81.5t-145.5 -28.5q-55 0 -94 28v-407h-267z" />
<glyph unicode="&#xb6;" horiz-adv-x="1368" d="M72 1042q0 197 129 306.5t344 109.5h653v-1849h-266v1595h-205v-1595h-266v1022q-76 0 -146.5 31.5t-125 89t-86 132t-31.5 158.5z" />
<glyph unicode="&#xb7;" horiz-adv-x="583" d="M139 434v303h305v-303h-305z" />
<glyph unicode="&#xb8;" horiz-adv-x="1024" d="M328 -422l141 299h197l-91 -299h-247z" />
<glyph unicode="&#xb9;" horiz-adv-x="598" d="M78 1081v217l184 160h195v-874h-195v657z" />
<glyph unicode="&#xba;" horiz-adv-x="946" d="M113 1032q0 121 21.5 197t76.5 135q45 47 110.5 75.5t151.5 28.5q88 0 152.5 -28.5t109.5 -75.5q55 -59 77 -135t22 -197t-20.5 -195.5t-78.5 -134.5q-45 -47 -109.5 -75.5t-152.5 -28.5q-86 0 -151.5 28.5t-110.5 75.5q-57 59 -77.5 134t-20.5 196zM328 1032 q0 -78 9 -127t38 -78q37 -37 98 -36q61 0 98 36q29 29 38 78t9 127t-9 128t-38 79q-37 37 -98 37t-98 -37q-29 -29 -38 -79t-9 -128z" />
<glyph unicode="&#xbb;" horiz-adv-x="1286" d="M137 55v318l195 190l-195 191v317l510 -508zM707 55v318l192 190l-192 191v317l512 -508z" />
<glyph unicode="&#xbc;" horiz-adv-x="1712" d="M78 1081v217l184 160h195v-874h-195v657zM381 0l690 1458h209l-690 -1458h-209zM1018 117v182l293 575h211l-295 -575h151v127h185v-127h67v-182h-67v-117h-185v117h-360z" />
<glyph unicode="&#xbd;" horiz-adv-x="1765" d="M78 1081v217l184 160h195v-874h-195v657zM373 0l690 1458h207l-690 -1458h-207zM1120 0v174l320 350q27 29 37 49.5t10 47.5q0 41 -23.5 64.5t-64.5 23.5q-35 0 -59.5 -20.5t-24.5 -70.5h-195q0 123 79 194t200 71q123 0 200.5 -71t77.5 -191q0 -63 -24.5 -106.5 t-81.5 -106.5l-215 -234h321v-174h-557z" />
<glyph unicode="&#xbe;" horiz-adv-x="1771" d="M88 846h193q0 -47 27.5 -72.5t68.5 -25.5q45 0 70.5 27.5t25.5 74.5q0 43 -27.5 70.5t-72.5 27.5h-27v166h27q45 0 67.5 26.5t22.5 61.5q0 43 -24.5 66.5t-61.5 23.5t-61.5 -22.5t-24.5 -63.5h-193q0 119 80 189.5t199 70.5q121 0 199.5 -72.5t78.5 -185.5 q0 -66 -25.5 -106.5t-66.5 -65.5q45 -29 74 -74.5t29 -117.5q0 -129 -83 -199t-206 -70q-121 0 -205 68t-84 203zM446 0l691 1458h209l-691 -1458h-209zM1077 117v182l293 575h211l-295 -575h152v127h184v-127h68v-182h-68v-117h-184v117h-361z" />
<glyph unicode="&#xbf;" horiz-adv-x="1071" d="M74 6q0 72 25.5 132.5t74.5 123.5l152 203q16 20 26 50t10 54v41h267v-61q0 -63 -17.5 -110.5t-60.5 -102.5l-152 -195q-27 -35 -43 -69.5t-16 -67.5q0 -74 44 -121t120 -47q78 0 122 49t44 123h266q0 -92 -33 -169t-92 -131t-138 -82.5t-169 -28.5q-180 0 -305 110.5 t-125 298.5zM354 795v272h283v-272h-283z" />
<glyph unicode="&#xc0;" horiz-adv-x="1306" d="M10 0l531 1458h223l532 -1458h-297l-86 258h-518l-88 -258h-297zM350 1948h281l131 -349h-178zM475 498h363l-179 530z" />
<glyph unicode="&#xc1;" horiz-adv-x="1306" d="M10 0l531 1458h223l532 -1458h-297l-86 258h-518l-88 -258h-297zM475 498h363l-179 530zM537 1599l131 349h280l-233 -349h-178z" />
<glyph unicode="&#xc2;" horiz-adv-x="1306" d="M10 0l531 1458h223l532 -1458h-297l-86 258h-518l-88 -258h-297zM272 1599l271 347h213l270 -347h-207l-170 187l-170 -187h-207zM475 498h363l-179 530z" />
<glyph unicode="&#xc3;" horiz-adv-x="1306" d="M10 0l531 1458h223l532 -1458h-297l-86 258h-518l-88 -258h-297zM279 1763q68 68 119 94.5t110 26.5q45 0 80 -10t78 -37q61 -37 112 -37q31 0 57.5 11.5t63.5 48.5l119 -117q-68 -68 -120 -94.5t-112 -26.5q-43 0 -77.5 10t-79.5 37q-63 37 -115 37q-31 0 -57.5 -11.5 t-63.5 -47.5zM475 498h363l-179 530z" />
<glyph unicode="&#xc4;" horiz-adv-x="1306" d="M10 0l531 1458h223l532 -1458h-297l-86 258h-518l-88 -258h-297zM309 1604v256h228v-256h-228zM475 498h363l-179 530zM762 1604v256h227v-256h-227z" />
<glyph unicode="&#xc5;" horiz-adv-x="1306" d="M10 0l531 1458h223l532 -1458h-297l-86 258h-518l-88 -258h-297zM381 1810q0 111 79 190t189 79q111 0 190 -78t79 -191q0 -111 -79 -189.5t-190 -78.5t-189.5 79t-78.5 189zM475 498h363l-179 530zM530 1810q0 -49 35 -84.5t84 -35.5t84 35.5t35 84.5t-35 84t-84 35 t-84 -34.5t-35 -84.5z" />
<glyph unicode="&#xc6;" horiz-adv-x="2004" d="M6 0l762 1458h1128v-254h-675v-344h577v-254h-577v-352h675v-254h-958v319h-461l-166 -319h-305zM600 559h338v645z" />
<glyph unicode="&#xc7;" horiz-adv-x="1150" d="M121 729q0 242 23.5 363.5t119.5 218.5q160 160 393 159q131 0 225.5 -42t180.5 -125l-189 -189q-53 53 -99 78t-118 25q-115 0 -180 -76q-23 -25 -36 -53.5t-20 -71.5t-11 -110.5t-4 -176.5t4 -176.5t11 -110.5t20.5 -71.5t35.5 -53.5q66 -76 180 -75q72 0 118 24.5 t99 77.5l189 -188q-86 -84 -180.5 -126t-225.5 -42q-233 0 -393 159q-96 96 -119.5 218t-23.5 364zM438 -422l142 299h196l-90 -299h-248z" />
<glyph unicode="&#xc8;" horiz-adv-x="1239" d="M170 0v1458h960v-254h-675v-342h575v-254h-575v-354h675v-254h-960zM336 1948h280l132 -349h-179z" />
<glyph unicode="&#xc9;" horiz-adv-x="1239" d="M170 0v1458h960v-254h-675v-342h575v-254h-575v-354h675v-254h-960zM520 1599l131 349h281l-234 -349h-178z" />
<glyph unicode="&#xca;" horiz-adv-x="1239" d="M170 0v1458h960v-254h-675v-342h575v-254h-575v-354h675v-254h-960zM258 1599l270 347h213l271 -347h-207l-170 187l-170 -187h-207z" />
<glyph unicode="&#xcb;" horiz-adv-x="1239" d="M170 0v1458h960v-254h-675v-342h575v-254h-575v-354h675v-254h-960zM295 1604v256h227v-256h-227zM748 1604v256h227v-256h-227z" />
<glyph unicode="&#xcc;" horiz-adv-x="624" d="M106 1948h281l131 -349h-178zM170 0v1458h285v-1458h-285z" />
<glyph unicode="&#xcd;" horiz-adv-x="624" d="M170 0v1458h285v-1458h-285zM170 1599l131 349h281l-234 -349h-178z" />
<glyph unicode="&#xce;" horiz-adv-x="624" d="M-66 1599l271 347h213l270 -347h-207l-170 187l-170 -187h-207zM170 0v1458h285v-1458h-285z" />
<glyph unicode="&#xcf;" horiz-adv-x="624" d="M-33 1604v256h228v-256h-228zM170 0v1458h285v-1458h-285zM420 1604v256h227v-256h-227z" />
<glyph unicode="&#xd0;" horiz-adv-x="1396" d="M76 629v217h141v612h526q254 0 404 -172q45 -51 71.5 -103.5t39 -114.5t15.5 -137t3 -202q0 -131 -3 -204.5t-15.5 -136t-38 -115t-72.5 -103.5q-74 -82 -178.5 -126t-229.5 -44h-522v629h-141zM502 252h215q156 0 227 108q16 23 25.5 47.5t13.5 60.5t6 95.5t2 161.5 q0 98 -2 160.5t-7 100.5t-15.5 63.5t-26.5 50.5q-76 106 -223 106h-215v-360h237v-217h-237v-377z" />
<glyph unicode="&#xd1;" horiz-adv-x="1456" d="M170 0v1458h254l577 -893v893h285v-1458h-254l-577 895v-895h-285zM358 1763q68 68 119 94.5t111 26.5q45 0 79.5 -10t77.5 -37q61 -37 113 -37q31 0 57.5 11.5t63.5 48.5l119 -117q-68 -68 -120 -94.5t-112 -26.5q-43 0 -77.5 10t-79.5 37q-63 37 -115 37 q-31 0 -57.5 -11.5t-63.5 -47.5z" />
<glyph unicode="&#xd2;" horiz-adv-x="1318" d="M121 729q0 242 23.5 363.5t119.5 218.5q80 80 177.5 119.5t217.5 39.5q121 0 217.5 -39.5t176.5 -119.5q98 -98 121.5 -221t23.5 -361t-23.5 -360.5t-121.5 -221.5q-80 -80 -176.5 -119.5t-217.5 -39.5t-218 40t-177 119q-96 96 -119.5 218t-23.5 364zM360 1948h281 l131 -349h-178zM406 729q0 -111 3 -177.5t11 -109.5t21.5 -70.5t33.5 -52.5q31 -37 79 -57t105 -20q115 0 183 77q23 25 36 53.5t21 70.5t11 111t3 175q0 109 -3 176.5t-11 110.5t-21.5 70.5t-35.5 52.5q-68 78 -183 78q-57 0 -105 -20.5t-79 -57.5q-23 -25 -35 -52.5 t-20 -71.5t-11 -109.5t-3 -176.5z" />
<glyph unicode="&#xd3;" horiz-adv-x="1318" d="M121 729q0 242 23.5 363.5t119.5 218.5q80 80 177.5 119.5t217.5 39.5q121 0 217.5 -39.5t176.5 -119.5q98 -98 121.5 -221t23.5 -361t-23.5 -360.5t-121.5 -221.5q-80 -80 -176.5 -119.5t-217.5 -39.5t-218 40t-177 119q-96 96 -119.5 218t-23.5 364zM406 729 q0 -111 3 -177.5t11 -109.5t21.5 -70.5t33.5 -52.5q31 -37 79 -57t105 -20q115 0 183 77q23 25 36 53.5t21 70.5t11 111t3 175q0 109 -3 176.5t-11 110.5t-21.5 70.5t-35.5 52.5q-68 78 -183 78q-57 0 -105 -20.5t-79 -57.5q-23 -25 -35 -52.5t-20 -71.5t-11 -109.5 t-3 -176.5zM547 1599l131 349h280l-233 -349h-178z" />
<glyph unicode="&#xd4;" horiz-adv-x="1318" d="M121 729q0 242 23.5 363.5t119.5 218.5q80 80 177.5 119.5t217.5 39.5q121 0 217.5 -39.5t176.5 -119.5q98 -98 121.5 -221t23.5 -361t-23.5 -360.5t-121.5 -221.5q-80 -80 -176.5 -119.5t-217.5 -39.5t-218 40t-177 119q-96 96 -119.5 218t-23.5 364zM283 1599l270 347 h213l270 -347h-207l-170 187l-170 -187h-206zM406 729q0 -111 3 -177.5t11 -109.5t21.5 -70.5t33.5 -52.5q31 -37 79 -57t105 -20q115 0 183 77q23 25 36 53.5t21 70.5t11 111t3 175q0 109 -3 176.5t-11 110.5t-21.5 70.5t-35.5 52.5q-68 78 -183 78q-57 0 -105 -20.5 t-79 -57.5q-23 -25 -35 -52.5t-20 -71.5t-11 -109.5t-3 -176.5z" />
<glyph unicode="&#xd5;" horiz-adv-x="1318" d="M121 729q0 242 23.5 363.5t119.5 218.5q80 80 177.5 119.5t217.5 39.5q121 0 217.5 -39.5t176.5 -119.5q98 -98 121.5 -221t23.5 -361t-23.5 -360.5t-121.5 -221.5q-80 -80 -176.5 -119.5t-217.5 -39.5t-218 40t-177 119q-96 96 -119.5 218t-23.5 364zM289 1763 q68 68 119 94.5t110 26.5q45 0 80 -10t78 -37q61 -37 112 -37q31 0 57.5 11.5t63.5 48.5l119 -117q-68 -68 -120 -94.5t-111 -26.5q-43 0 -78 10t-80 37q-63 37 -115 37q-31 0 -57.5 -11.5t-63.5 -47.5zM406 729q0 -111 3 -177.5t11 -109.5t21.5 -70.5t33.5 -52.5 q31 -37 79 -57t105 -20q115 0 183 77q23 25 36 53.5t21 70.5t11 111t3 175q0 109 -3 176.5t-11 110.5t-21.5 70.5t-35.5 52.5q-68 78 -183 78q-57 0 -105 -20.5t-79 -57.5q-23 -25 -35 -52.5t-20 -71.5t-11 -109.5t-3 -176.5z" />
<glyph unicode="&#xd6;" horiz-adv-x="1318" d="M121 729q0 242 23.5 363.5t119.5 218.5q80 80 177.5 119.5t217.5 39.5q121 0 217.5 -39.5t176.5 -119.5q98 -98 121.5 -221t23.5 -361t-23.5 -360.5t-121.5 -221.5q-80 -80 -176.5 -119.5t-217.5 -39.5t-218 40t-177 119q-96 96 -119.5 218t-23.5 364zM319 1604v256h228 v-256h-228zM406 729q0 -111 3 -177.5t11 -109.5t21.5 -70.5t33.5 -52.5q31 -37 79 -57t105 -20q115 0 183 77q23 25 36 53.5t21 70.5t11 111t3 175q0 109 -3 176.5t-11 110.5t-21.5 70.5t-35.5 52.5q-68 78 -183 78q-57 0 -105 -20.5t-79 -57.5q-23 -25 -35 -52.5t-20 -71.5 t-11 -109.5t-3 -176.5zM772 1604v256h227v-256h-227z" />
<glyph unicode="&#xd7;" d="M100 297l289 289l-289 288l168 168l287 -288l289 288l168 -168l-289 -288l289 -289l-168 -168l-289 289l-287 -289z" />
<glyph unicode="&#xd8;" horiz-adv-x="1335" d="M121 729q0 242 23.5 363.5t119.5 218.5q80 80 177.5 119.5t217.5 39.5q133 0 232 -45l59 123h201l-109 -227l11 -10q98 -98 121.5 -221t23.5 -361t-23.5 -360.5t-121.5 -221.5q-80 -80 -176.5 -119.5t-217.5 -39.5q-133 0 -231 45l-59 -123h-203l108 227l-10 10 q-96 96 -119.5 218t-23.5 364zM406 729q0 -125 4 -195.5t14 -113.5l364 764q-53 33 -129 33q-57 0 -105 -20.5t-79 -57.5q-23 -25 -35 -52.5t-20 -71.5t-11 -109.5t-3 -176.5zM528 276q57 -35 131 -34q115 0 183 77q23 25 36 53.5t21 70.5t11 111t3 175q0 117 -5 190.5 t-15 118.5z" />
<glyph unicode="&#xd9;" horiz-adv-x="1368" d="M147 500v958h285v-948q0 -125 68.5 -196.5t183.5 -71.5q117 0 185.5 71.5t68.5 196.5v948h283v-958q0 -115 -41 -209t-115 -163t-172 -104.5t-209 -35.5t-209 35.5t-172 104.5t-115 163t-41 209zM385 1948h281l131 -349h-179z" />
<glyph unicode="&#xda;" horiz-adv-x="1368" d="M147 500v958h285v-948q0 -125 68.5 -196.5t183.5 -71.5q117 0 185.5 71.5t68.5 196.5v948h283v-958q0 -115 -41 -209t-115 -163t-172 -104.5t-209 -35.5t-209 35.5t-172 104.5t-115 163t-41 209zM571 1599l131 349h281l-233 -349h-179z" />
<glyph unicode="&#xdb;" horiz-adv-x="1368" d="M147 500v958h285v-948q0 -125 68.5 -196.5t183.5 -71.5q117 0 185.5 71.5t68.5 196.5v948h283v-958q0 -115 -41 -209t-115 -163t-172 -104.5t-209 -35.5t-209 35.5t-172 104.5t-115 163t-41 209zM307 1599l271 347h213l270 -347h-207l-170 187l-170 -187h-207z" />
<glyph unicode="&#xdc;" horiz-adv-x="1368" d="M147 500v958h285v-948q0 -125 68.5 -196.5t183.5 -71.5q117 0 185.5 71.5t68.5 196.5v948h283v-958q0 -115 -41 -209t-115 -163t-172 -104.5t-209 -35.5t-209 35.5t-172 104.5t-115 163t-41 209zM344 1604v256h227v-256h-227zM797 1604v256h227v-256h-227z" />
<glyph unicode="&#xdd;" horiz-adv-x="1171" d="M6 1458h309l273 -588l268 588h309l-438 -860v-598h-283v598zM471 1599l131 349h281l-234 -349h-178z" />
<glyph unicode="&#xde;" horiz-adv-x="1296" d="M170 0v1458h285v-268h280q111 0 201 -35t152.5 -97.5t95.5 -144.5t33 -176t-33 -176t-95.5 -144.5t-152.5 -98t-201 -35.5h-280v-283h-285zM455 537h266q96 0 153.5 55t57.5 145t-57.5 144.5t-153.5 54.5h-266v-399z" />
<glyph unicode="&#xdf;" horiz-adv-x="1175" d="M150 0v1067q0 205 124.5 304t335.5 99q203 0 324 -90t121 -268q0 -86 -35 -141.5t-90 -89.5q63 -33 95 -83t32 -141v-327q0 -162 -84 -244q-86 -86 -258 -86h-107v225h54q59 0 92 31q35 33 34 96v295q0 61 -30 92q-33 33 -92 33h-58v209h58q53 0 87.5 30.5t34.5 92.5 q0 57 -38 92q-45 43 -144 43q-102 0 -146 -48t-44 -144v-1047h-266z" />
<glyph unicode="&#xe0;" horiz-adv-x="1093" d="M74 324q0 135 93 222t271 87h252v53q0 88 -46 128t-152 40q-74 0 -118 -19.5t-87 -68.5l-170 166q76 84 162 115.5t223 31.5q455 0 454 -377v-702h-260v92q-55 -55 -113.5 -78.5t-148.5 -23.5q-178 0 -272 94q-88 92 -88 240zM236 1585h280l131 -348h-178zM330 330 q0 -57 39 -90t114 -33q61 0 98 10t70 41q39 37 39 135v58h-211q-150 0 -149 -121z" />
<glyph unicode="&#xe1;" horiz-adv-x="1093" d="M74 324q0 135 93 222t271 87h252v53q0 88 -46 128t-152 40q-74 0 -118 -19.5t-87 -68.5l-170 166q76 84 162 115.5t223 31.5q455 0 454 -377v-702h-260v92q-55 -55 -113.5 -78.5t-148.5 -23.5q-178 0 -272 94q-88 92 -88 240zM330 330q0 -57 39 -90t114 -33q61 0 98 10 t70 41q39 37 39 135v58h-211q-150 0 -149 -121zM422 1237l131 348h281l-234 -348h-178z" />
<glyph unicode="&#xe2;" horiz-adv-x="1093" d="M74 324q0 135 93 222t271 87h252v53q0 88 -46 128t-152 40q-74 0 -118 -19.5t-87 -68.5l-170 166q76 84 162 115.5t223 31.5q455 0 454 -377v-702h-260v92q-55 -55 -113.5 -78.5t-148.5 -23.5q-178 0 -272 94q-88 92 -88 240zM158 1237l270 346h213l270 -346h-206 l-170 186l-170 -186h-207zM330 330q0 -57 39 -90t114 -33q61 0 98 10t70 41q39 37 39 135v58h-211q-150 0 -149 -121z" />
<glyph unicode="&#xe3;" horiz-adv-x="1093" d="M74 324q0 135 93 222t271 87h252v53q0 88 -46 128t-152 40q-74 0 -118 -19.5t-87 -68.5l-170 166q76 84 162 115.5t223 31.5q455 0 454 -377v-702h-260v92q-55 -55 -113.5 -78.5t-148.5 -23.5q-178 0 -272 94q-88 92 -88 240zM164 1401q68 68 119 94.5t110 26.5 q45 0 80 -10.5t78 -36.5q61 -37 113 -37q31 0 57.5 11t62.5 48l119 -117q-68 -68 -120 -94t-111 -26q-43 0 -78 10t-80 37q-63 37 -115 36q-31 0 -57.5 -11t-62.5 -48zM330 330q0 -57 39 -90t114 -33q61 0 98 10t70 41q39 37 39 135v58h-211q-150 0 -149 -121z" />
<glyph unicode="&#xe4;" horiz-adv-x="1093" d="M74 324q0 135 93 222t271 87h252v53q0 88 -46 128t-152 40q-74 0 -118 -19.5t-87 -68.5l-170 166q76 84 162 115.5t223 31.5q455 0 454 -377v-702h-260v92q-55 -55 -113.5 -78.5t-148.5 -23.5q-178 0 -272 94q-88 92 -88 240zM195 1241v256h227v-256h-227zM330 330 q0 -57 39 -90t114 -33q61 0 98 10t70 41q39 37 39 135v58h-211q-150 0 -149 -121zM647 1241v256h227v-256h-227z" />
<glyph unicode="&#xe5;" horiz-adv-x="1093" d="M74 324q0 135 93 222t271 87h252v53q0 88 -46 128t-152 40q-74 0 -118 -19.5t-87 -68.5l-170 166q76 84 162 115.5t223 31.5q455 0 454 -377v-702h-260v92q-55 -55 -113.5 -78.5t-148.5 -23.5q-178 0 -272 94q-88 92 -88 240zM266 1464q0 111 79 190t190 79t189.5 -78 t78.5 -191q0 -111 -79 -189.5t-189 -78.5q-111 0 -190 79t-79 189zM330 330q0 -57 39 -90t114 -33q61 0 98 10t70 41q39 37 39 135v58h-211q-150 0 -149 -121zM416 1464q0 -49 34.5 -85t84.5 -36q49 0 83.5 36t34.5 85t-34.5 84t-83.5 35t-84 -35t-35 -84z" />
<glyph unicode="&#xe6;" horiz-adv-x="1716" d="M74 324q0 135 93 222t271 87h252v53q0 88 -46 128t-152 40q-74 0 -118 -19.5t-87 -68.5l-170 166q76 84 162 115.5t223 31.5q244 0 350 -116q115 117 303 116q217 0 341 -142t124 -368v-118h-668q0 -106 62.5 -172t171.5 -66q84 0 136 23.5t105 76.5l162 -157 q-88 -88 -178 -128t-227 -40q-115 0 -211 35.5t-164 113.5q-82 -90 -167 -119.5t-208 -29.5q-176 0 -272 96q-88 92 -88 240zM330 330q0 -57 39 -90t114 -33q61 0 98 10t70 41q39 37 39 135v58h-211q-150 0 -149 -121zM952 633h406q-2 35 -7 60.5t-18 54.5 q-23 51 -67.5 80.5t-110.5 29.5q-63 0 -109.5 -29.5t-68.5 -80.5q-12 -29 -17.5 -54.5t-7.5 -60.5z" />
<glyph unicode="&#xe7;" horiz-adv-x="983" d="M96 535q0 154 42 261t111.5 168.5t152.5 88t171 26.5q111 0 197 -34.5t156 -108.5l-181 -180q-43 45 -81.5 64.5t-90.5 19.5q-94 0 -151 -70q-59 -74 -60 -235q0 -164 60 -238q57 -70 151 -70q51 0 90 19.5t82 64.5l181 -178q-139 -145 -353 -145q-88 0 -169.5 26.5 t-152.5 89t-113 170t-42 261.5zM328 -422l141 299h197l-91 -299h-247z" />
<glyph unicode="&#xe8;" horiz-adv-x="1122" d="M96 535q0 258 127 401t338 143q217 0 341 -142t124 -368v-118h-668q0 -106 62.5 -172t171.5 -66q84 0 136 23.5t106 76.5l161 -157q-88 -88 -178 -128t-227 -40q-102 0 -189.5 26.5t-156 88t-108.5 169t-40 263.5zM268 1585h281l131 -348h-178zM358 633h406 q-2 35 -7 60.5t-18 54.5q-23 51 -67.5 80.5t-110.5 29.5q-63 0 -109 -29.5t-69 -80.5q-12 -29 -17.5 -54.5t-7.5 -60.5z" />
<glyph unicode="&#xe9;" horiz-adv-x="1122" d="M96 535q0 258 127 401t338 143q217 0 341 -142t124 -368v-118h-668q0 -106 62.5 -172t171.5 -66q84 0 136 23.5t106 76.5l161 -157q-88 -88 -178 -128t-227 -40q-102 0 -189.5 26.5t-156 88t-108.5 169t-40 263.5zM358 633h406q-2 35 -7 60.5t-18 54.5q-23 51 -67.5 80.5 t-110.5 29.5q-63 0 -109 -29.5t-69 -80.5q-12 -29 -17.5 -54.5t-7.5 -60.5zM455 1237l131 348h280l-233 -348h-178z" />
<glyph unicode="&#xea;" horiz-adv-x="1122" d="M96 535q0 258 127 401t338 143q217 0 341 -142t124 -368v-118h-668q0 -106 62.5 -172t171.5 -66q84 0 136 23.5t106 76.5l161 -157q-88 -88 -178 -128t-227 -40q-102 0 -189.5 26.5t-156 88t-108.5 169t-40 263.5zM190 1237l271 346h213l270 -346h-207l-170 186 l-170 -186h-207zM358 633h406q-2 35 -7 60.5t-18 54.5q-23 51 -67.5 80.5t-110.5 29.5q-63 0 -109 -29.5t-69 -80.5q-12 -29 -17.5 -54.5t-7.5 -60.5z" />
<glyph unicode="&#xeb;" horiz-adv-x="1122" d="M96 535q0 258 127 401t338 143q217 0 341 -142t124 -368v-118h-668q0 -106 62.5 -172t171.5 -66q84 0 136 23.5t106 76.5l161 -157q-88 -88 -178 -128t-227 -40q-102 0 -189.5 26.5t-156 88t-108.5 169t-40 263.5zM227 1241v256h228v-256h-228zM358 633h406 q-2 35 -7 60.5t-18 54.5q-23 51 -67.5 80.5t-110.5 29.5q-63 0 -109 -29.5t-69 -80.5q-12 -29 -17.5 -54.5t-7.5 -60.5zM680 1241v256h227v-256h-227z" />
<glyph unicode="&#xec;" horiz-adv-x="563" d="M-2 1585h281l131 -348h-179zM150 0v1067h266v-1067h-266z" />
<glyph unicode="&#xed;" horiz-adv-x="563" d="M150 0v1067h266v-1067h-266zM150 1237l131 348h280l-233 -348h-178z" />
<glyph unicode="&#xee;" horiz-adv-x="563" d="M-96 1237l270 346h213l270 -346h-206l-170 186l-170 -186h-207zM150 0v1067h266v-1067h-266z" />
<glyph unicode="&#xef;" horiz-adv-x="563" d="M-55 1241v256h227v-256h-227zM150 0v1067h266v-1067h-266zM397 1241v256h228v-256h-228z" />
<glyph unicode="&#xf0;" d="M115 520q0 147 25.5 240.5t92.5 163.5q66 70 183 100q59 16 119 16h18q16 -2 18 -2l-69 127h-234v187h140l-64 123h285l63 -123h189v-187h-95l82 -157q41 -78 64.5 -133.5t37 -107.5t19.5 -110.5t6 -136.5q0 -150 -25.5 -243t-92.5 -162q-55 -57 -135 -92t-187 -35 q-106 0 -186 34.5t-136 92.5q-68 70 -93 163t-25 242zM381 520q0 -94 11 -152.5t46 -95.5q45 -45 117 -45q74 0 119 45q35 37 45 95.5t10 152.5t-10 151.5t-45 94.5q-45 45 -119 45q-72 0 -117 -45q-35 -37 -46 -95.5t-11 -150.5z" />
<glyph unicode="&#xf1;" horiz-adv-x="1173" d="M150 0v1067h260v-98q51 53 120.5 81.5t145.5 28.5q158 0 252 -94q61 -61 84.5 -135t23.5 -168v-682h-266v645q0 100 -52 147.5t-124 47.5q-74 0 -126 -47.5t-52 -147.5v-645h-266zM223 1401q68 68 119 94.5t111 26.5q45 0 79.5 -10.5t77.5 -36.5q61 -37 113 -37 q31 0 57.5 11t63.5 48l119 -117q-68 -68 -120 -94t-112 -26q-43 0 -78 10t-80 37q-63 37 -114 36q-31 0 -57.5 -11t-63.5 -48z" />
<glyph unicode="&#xf2;" d="M104 535q0 152 26 247t95 166q55 59 137 95t193 36t193.5 -36.5t138.5 -94.5q70 -72 95.5 -166.5t25.5 -246.5q0 -154 -26 -249.5t-95 -166.5q-55 -57 -138 -94t-194 -37t-192.5 36.5t-137.5 94.5q-70 72 -95.5 167t-25.5 249zM250 1585h280l132 -348h-179zM371 535 q0 -98 12 -160t49 -101q47 -47 123 -47q78 0 125 47q39 39 50 101t11 160t-11 159.5t-50 98.5q-47 47 -125 47q-76 0 -123 -47q-37 -37 -49 -98.5t-12 -159.5z" />
<glyph unicode="&#xf3;" d="M104 535q0 152 26 247t95 166q55 59 137 95t193 36t193.5 -36.5t138.5 -94.5q70 -72 95.5 -166.5t25.5 -246.5q0 -154 -26 -249.5t-95 -166.5q-55 -57 -138 -94t-194 -37t-192.5 36.5t-137.5 94.5q-70 72 -95.5 167t-25.5 249zM371 535q0 -98 12 -160t49 -101 q47 -47 123 -47q78 0 125 47q39 39 50 101t11 160t-11 159.5t-50 98.5q-47 47 -125 47q-76 0 -123 -47q-37 -37 -49 -98.5t-12 -159.5zM444 1237l131 348h281l-233 -348h-179z" />
<glyph unicode="&#xf4;" d="M104 535q0 152 26 247t95 166q55 59 137 95t193 36t193.5 -36.5t138.5 -94.5q70 -72 95.5 -166.5t25.5 -246.5q0 -154 -26 -249.5t-95 -166.5q-55 -57 -138 -94t-194 -37t-192.5 36.5t-137.5 94.5q-70 72 -95.5 167t-25.5 249zM180 1237l271 346h213l270 -346h-207 l-170 186l-170 -186h-207zM371 535q0 -98 12 -160t49 -101q47 -47 123 -47q78 0 125 47q39 39 50 101t11 160t-11 159.5t-50 98.5q-47 47 -125 47q-76 0 -123 -47q-37 -37 -49 -98.5t-12 -159.5z" />
<glyph unicode="&#xf5;" d="M104 535q0 152 26 247t95 166q55 59 137 95t193 36t193.5 -36.5t138.5 -94.5q70 -72 95.5 -166.5t25.5 -246.5q0 -154 -26 -249.5t-95 -166.5q-55 -57 -138 -94t-194 -37t-192.5 36.5t-137.5 94.5q-70 72 -95.5 167t-25.5 249zM186 1401q68 68 119 94.5t111 26.5 q45 0 79.5 -10.5t77.5 -36.5q61 -37 113 -37q31 0 57.5 11t63.5 48l119 -117q-68 -68 -120 -94t-112 -26q-43 0 -77.5 10t-79.5 37q-63 37 -115 36q-31 0 -57.5 -11t-63.5 -48zM371 535q0 -98 12 -160t49 -101q47 -47 123 -47q78 0 125 47q39 39 50 101t11 160t-11 159.5 t-50 98.5q-47 47 -125 47q-76 0 -123 -47q-37 -37 -49 -98.5t-12 -159.5z" />
<glyph unicode="&#xf6;" d="M104 535q0 152 26 247t95 166q55 59 137 95t193 36t193.5 -36.5t138.5 -94.5q70 -72 95.5 -166.5t25.5 -246.5q0 -154 -26 -249.5t-95 -166.5q-55 -57 -138 -94t-194 -37t-192.5 36.5t-137.5 94.5q-70 72 -95.5 167t-25.5 249zM217 1241v256h227v-256h-227zM371 535 q0 -98 12 -160t49 -101q47 -47 123 -47q78 0 125 47q39 39 50 101t11 160t-11 159.5t-50 98.5q-47 47 -125 47q-76 0 -123 -47q-37 -37 -49 -98.5t-12 -159.5zM670 1241v256h227v-256h-227z" />
<glyph unicode="&#xf7;" d="M94 461v248h924v-248h-924zM424 37v266h266v-266h-266zM424 866v267h266v-267h-266z" />
<glyph unicode="&#xf8;" d="M104 535q0 152 26 247t95 166q55 59 137 95t193 36q125 0 215 -45l72 123h164l-123 -207q61 -47 93 -156.5t32 -258.5q0 -154 -26 -249.5t-95 -166.5q-55 -57 -138 -94t-194 -37q-119 0 -213 47l-74 -125h-162l121 207l-2 2q-70 70 -95.5 165t-25.5 251zM371 535 q0 -119 14 -177l270 455q-43 27 -100 27q-76 0 -123 -47q-37 -37 -49 -98.5t-12 -159.5zM457 254q43 -27 98 -27q78 0 125 47q39 39 50 101t11 160q0 109 -16 174z" />
<glyph unicode="&#xf9;" horiz-adv-x="1173" d="M137 385v682h266v-645q0 -100 52.5 -147.5t124.5 -47.5q74 0 126 47.5t52 147.5v645h266v-1067h-260v98q-51 -53 -121 -81.5t-145 -28.5q-158 0 -252 94q-61 61 -85 135t-24 168zM281 1585h280l131 -348h-178z" />
<glyph unicode="&#xfa;" horiz-adv-x="1173" d="M137 385v682h266v-645q0 -100 52.5 -147.5t124.5 -47.5q74 0 126 47.5t52 147.5v645h266v-1067h-260v98q-51 -53 -121 -81.5t-145 -28.5q-158 0 -252 94q-61 61 -85 135t-24 168zM467 1237l131 348h281l-234 -348h-178z" />
<glyph unicode="&#xfb;" horiz-adv-x="1173" d="M137 385v682h266v-645q0 -100 52.5 -147.5t124.5 -47.5q74 0 126 47.5t52 147.5v645h266v-1067h-260v98q-51 -53 -121 -81.5t-145 -28.5q-158 0 -252 94q-61 61 -85 135t-24 168zM203 1237l270 346h213l270 -346h-206l-170 186l-170 -186h-207z" />
<glyph unicode="&#xfc;" horiz-adv-x="1173" d="M137 385v682h266v-645q0 -100 52.5 -147.5t124.5 -47.5q74 0 126 47.5t52 147.5v645h266v-1067h-260v98q-51 -53 -121 -81.5t-145 -28.5q-158 0 -252 94q-61 61 -85 135t-24 168zM240 1241v256h227v-256h-227zM692 1241v256h228v-256h-228z" />
<glyph unicode="&#xfd;" horiz-adv-x="1011" d="M8 1067h281l221 -659l213 659h281l-457 -1239q-35 -92 -80 -137q-43 -45 -101.5 -63.5t-127.5 -18.5h-105v239h62q57 0 84.5 19.5t48.5 77.5l45 131zM387 1237l131 348h281l-234 -348h-178z" />
<glyph unicode="&#xfe;" horiz-adv-x="1150" d="M150 -391v1849h266v-485q51 57 113.5 81.5t144.5 24.5q78 0 146.5 -25.5t113.5 -70.5q72 -70 90 -177t18 -271q0 -78 -2 -135.5t-12 -110.5q-23 -133 -94 -205q-45 -45 -113.5 -70.5t-146.5 -25.5q-82 0 -144.5 24.5t-113.5 81.5v-485h-266zM416 535q0 -74 6 -127.5 t24.5 -94.5t55.5 -63.5t94 -22.5t94 22.5t55.5 63.5t24.5 94.5t6 127.5t-6 127t-24.5 93t-55.5 62.5t-94 22.5t-94 -22.5t-55.5 -62.5t-24.5 -93.5t-6 -126.5z" />
<glyph unicode="&#xff;" horiz-adv-x="1011" d="M8 1067h281l221 -659l213 659h281l-457 -1239q-35 -92 -80 -137q-43 -45 -101.5 -63.5t-127.5 -18.5h-105v239h62q57 0 84.5 19.5t48.5 77.5l45 131zM160 1241v256h227v-256h-227zM612 1241v256h228v-256h-228z" />
<glyph unicode="&#x152;" horiz-adv-x="1978" d="M121 729q0 240 23.5 366t119.5 222q78 78 171 115.5t216 37.5q74 0 143.5 -24.5t118.5 -77.5v90h953v-252h-670l2 -172v-174h569v-250h-569v-178l-2 -180h672v-252h-955v90q-49 -51 -119.5 -76.5t-142.5 -25.5q-123 0 -216 37.5t-171 115.5q-96 96 -119.5 222t-23.5 366z M406 729q0 -111 3 -177.5t11 -109.5t21.5 -70.5t33.5 -52.5q31 -37 79 -57t105 -20q115 0 183 77q23 25 36 53.5t21 70.5t11 111t3 175q0 109 -3 176.5t-11 110.5t-21.5 70.5t-35.5 52.5q-68 78 -183 78q-57 0 -105 -20.5t-79 -57.5q-23 -25 -35 -52.5t-20 -71.5t-11 -109.5 t-3 -176.5z" />
<glyph unicode="&#x153;" horiz-adv-x="1767" d="M104 535q0 152 26 247t95 166q55 59 137 95t193 36q109 0 194 -39t136 -102q117 141 321 141q217 0 341 -142t124 -368v-118h-667q0 -106 62 -172t171 -66q84 0 134 22.5t106 77.5l163 -157q-88 -88 -178 -128t-227 -40q-109 0 -201 32.5t-155 102.5q-51 -63 -134 -99 t-190 -36q-111 0 -192.5 36.5t-137.5 94.5q-70 72 -95.5 167t-25.5 249zM371 535q0 -98 12 -160t49 -101q47 -47 123 -47q78 0 125 47q39 39 50 101t11 160t-11 159.5t-50 98.5q-47 47 -125 47q-76 0 -123 -47q-37 -37 -49 -98.5t-12 -159.5zM1004 633h403q-2 37 -6 61.5 t-17 53.5q-23 51 -67.5 80.5t-110.5 29.5q-63 0 -110 -29.5t-70 -80.5q-12 -29 -16 -53.5t-6 -61.5z" />
<glyph unicode="&#x178;" horiz-adv-x="1171" d="M6 1458h309l273 -588l268 588h309l-438 -860v-598h-283v598zM244 1604v256h227v-256h-227zM696 1604v256h228v-256h-228z" />
<glyph unicode="&#x2c6;" horiz-adv-x="1024" d="M135 1237l271 346h212l271 -346h-207l-170 186l-170 -186h-207z" />
<glyph unicode="&#x2dc;" horiz-adv-x="1024" d="M141 1401q68 68 119 94.5t111 26.5q45 0 79.5 -10.5t77.5 -36.5q61 -37 113 -37q31 0 57.5 11t63.5 48l119 -117q-68 -68 -120 -94t-112 -26q-43 0 -77.5 10t-79.5 37q-63 37 -115 36q-31 0 -57.5 -11t-63.5 -48z" />
<glyph unicode="&#x2000;" horiz-adv-x="1039" />
<glyph unicode="&#x2001;" horiz-adv-x="2079" />
<glyph unicode="&#x2002;" horiz-adv-x="1039" />
<glyph unicode="&#x2003;" horiz-adv-x="2079" />
<glyph unicode="&#x2004;" horiz-adv-x="693" />
<glyph unicode="&#x2005;" horiz-adv-x="519" />
<glyph unicode="&#x2006;" horiz-adv-x="346" />
<glyph unicode="&#x2007;" horiz-adv-x="346" />
<glyph unicode="&#x2008;" horiz-adv-x="259" />
<glyph unicode="&#x2009;" horiz-adv-x="415" />
<glyph unicode="&#x200a;" horiz-adv-x="115" />
<glyph unicode="&#x2010;" horiz-adv-x="872" d="M121 461v248h631v-248h-631z" />
<glyph unicode="&#x2011;" horiz-adv-x="872" d="M121 461v248h631v-248h-631z" />
<glyph unicode="&#x2012;" horiz-adv-x="872" d="M121 461v248h631v-248h-631z" />
<glyph unicode="&#x2013;" d="M102 461v248h908v-248h-908z" />
<glyph unicode="&#x2014;" horiz-adv-x="2103" d="M121 463v256h1861v-256h-1861z" />
<glyph unicode="&#x2018;" horiz-adv-x="559" d="M139 1206v252l279 215v-467h-279z" />
<glyph unicode="&#x2019;" horiz-adv-x="559" d="M139 993v465h279v-254z" />
<glyph unicode="&#x201a;" horiz-adv-x="555" d="M139 -213v467h279v-254z" />
<glyph unicode="&#x201c;" horiz-adv-x="987" d="M139 1206v252l277 215v-467h-277zM569 1206v252l279 215v-467h-279z" />
<glyph unicode="&#x201d;" horiz-adv-x="987" d="M139 993v465h277v-254zM569 993v465h279v-254z" />
<glyph unicode="&#x201e;" horiz-adv-x="993" d="M139 -213v467h277v-254zM569 -213v467h279v-254z" />
<glyph unicode="&#x2022;" horiz-adv-x="1009" d="M170 684q0 68 25.5 129t71.5 107.5t107.5 72t129.5 25.5t129 -25.5t107 -72t72 -107.5t26 -129t-26 -129t-72 -107.5t-107.5 -72t-128.5 -25.5q-68 0 -129.5 25.5t-107.5 72t-71.5 107.5t-25.5 129z" />
<glyph unicode="&#x2026;" horiz-adv-x="1732" d="M139 0v289h291v-289h-291zM721 0v289h289v-289h-289zM1305 0v289h288v-289h-288z" />
<glyph unicode="&#x202f;" horiz-adv-x="415" />
<glyph unicode="&#x2039;" horiz-adv-x="716" d="M70 563l510 508v-317l-193 -191l193 -190v-318z" />
<glyph unicode="&#x203a;" horiz-adv-x="716" d="M137 55v318l195 190l-195 191v317l510 -508z" />
<glyph unicode="&#x205f;" horiz-adv-x="519" />
<glyph unicode="&#x20ac;" horiz-adv-x="1400" d="M80 485v170h141v154h-141v170h149q10 109 41 187.5t97 144.5q160 160 393 159q211 0 354 -118.5t180 -341.5h-288q-23 94 -84.5 150.5t-161.5 56.5q-111 0 -180 -76q-27 -31 -40.5 -66t-19.5 -96h303v-170h-315v-154h315v-170h-305q6 -63 20.5 -100t41.5 -68 q70 -76 180 -75q100 0 162.5 56t85.5 151h286q-37 -223 -181 -342t-353 -119q-233 0 -393 159q-66 68 -96.5 147t-41.5 191h-149z" />
<glyph unicode="&#x2122;" horiz-adv-x="1892" d="M92 1284v174h645v-174h-225v-700h-195v700h-225zM872 584v874h195l250 -467l250 467h194v-874h-194v516l-164 -322h-172l-164 322v-516h-195z" />
<glyph unicode="&#x25fc;" horiz-adv-x="1064" d="M0 0v1065h1065v-1065h-1065z" />
</font>
</defs>
</svg>
