<?xml version="1.0" standalone="no"?>
<!DOCTYPE svg PUBLIC "-//W3C//DTD SVG 1.1//EN" "http://www.w3.org/Graphics/SVG/1.1/DTD/svg11.dtd" >
<svg xmlns="http://www.w3.org/2000/svg">
<metadata></metadata>
<defs>
<font id="adineuebold" horiz-adv-x="389" >
<font-face units-per-em="2048" ascent="1556" descent="-492" />
<missing-glyph horiz-adv-x="409" />
<glyph horiz-adv-x="2048" />
<glyph horiz-adv-x="2048" />
<glyph unicode="&#xd;" horiz-adv-x="2048" />
<glyph unicode=" "  horiz-adv-x="409" />
<glyph unicode="&#x09;" horiz-adv-x="409" />
<glyph unicode="&#xa0;" horiz-adv-x="409" />
<glyph unicode="!" horiz-adv-x="438" d="M90 0v258h258v-258h-258zM90 354v1047h258v-1047h-258z" />
<glyph unicode="&#x22;" horiz-adv-x="712" d="M66 850v551h258l-37 -551h-221zM401 850v551h258l-36 -551h-222z" />
<glyph unicode="#" horiz-adv-x="1228" d="M66 272v230h196l19 209h-215v229h233l25 272h233l-25 -272h218l24 272h234l-25 -272h180v-229h-198l-19 -209h217v-230h-235l-23 -272h-233l22 272h-217l-22 -272h-234l23 272h-178zM496 502h217l18 209h-217z" />
<glyph unicode="$" horiz-adv-x="987" d="M29 424h272q0 -46 32 -88.5t93 -61.5v213q-373 48 -373 318q0 142 98 233.5t275 104.5v149h139v-151q163 -19 258.5 -108.5t106.5 -229.5h-262q-3 22 -7.5 38.5t-15 35.5t-31 32.5t-49.5 20.5v-191q74 -12 125.5 -24.5t108.5 -37t91.5 -57.5t57.5 -86t23 -122 q0 -160 -110.5 -246.5t-295.5 -97.5v-150h-139v150q-186 17 -288.5 110t-108.5 246zM330 852q0 -58 96 -86v166q-46 -9 -71 -30t-25 -50zM565 268q55 12 86 42t31 67q0 67 -117 92v-201z" />
<glyph unicode="%" horiz-adv-x="1609" d="M66 911v207q0 123 84 208t212 85t212.5 -85t84.5 -208v-207q0 -122 -85 -207.5t-212 -85.5t-211.5 85.5t-84.5 207.5zM256 911q0 -44 30.5 -76t75.5 -32t76 32t31 76v207q0 46 -30.5 77.5t-76.5 31.5q-45 0 -75.5 -31.5t-30.5 -77.5v-207zM399 0l574 1401h246l-574 -1401 h-246zM950 270v207q0 123 84.5 208t212.5 85t212.5 -85t84.5 -208v-207q0 -122 -85 -207.5t-212 -85.5t-212 85.5t-85 207.5zM1141 270q0 -44 30.5 -76t75.5 -32t76 32t31 76v207q0 46 -30.5 77.5t-76.5 31.5q-45 0 -75.5 -31.5t-30.5 -77.5v-207z" />
<glyph unicode="&#x26;" horiz-adv-x="1175" d="M25 338q0 111 57 193.5t149 132.5q-90 136 -90 251q0 133 93 226.5t235 93.5q149 0 240.5 -89.5t91.5 -230.5q0 -99 -58 -175t-141 -128q92 -85 172 -149l146 186l182 -143l-139 -184q107 -76 204 -138l-129 -209q-128 84 -229 156q-85 -85 -169.5 -119.5t-201.5 -34.5 q-189 0 -301 101.5t-112 259.5zM270 356q0 -61 44 -105t122 -44q92 0 176 74q-138 108 -243 219q-99 -60 -99 -144zM377 915q0 -29 16.5 -60.5t57.5 -82.5q56 31 85 64t29 79q0 40 -24 65.5t-72 25.5q-43 0 -67.5 -26.5t-24.5 -64.5z" />
<glyph unicode="'" horiz-adv-x="376" d="M66 850v551h258l-37 -551h-221z" />
<glyph unicode="(" horiz-adv-x="610" d="M49 655q0 233 86 441t242 368l182 -161q-126 -129 -195 -295t-69 -353q0 -189 69.5 -357t196.5 -298l-182 -160q-157 163 -243.5 372.5t-86.5 442.5z" />
<glyph unicode=")" horiz-adv-x="610" d="M49 0q127 130 196.5 298t69.5 357q0 187 -69 353t-195 295l182 161q156 -160 242 -368t86 -441t-86.5 -442.5t-243.5 -372.5z" />
<glyph unicode="*" horiz-adv-x="671" d="M25 999l151 88l-151 89l77 139l152 -88v174h164v-174l151 88l78 -139l-153 -89l153 -88l-78 -139l-151 88v-176h-164v176l-152 -88z" />
<glyph unicode="+" horiz-adv-x="868" d="M25 479v254h280v295h258v-295h281v-254h-281v-295h-258v295h-280z" />
<glyph unicode="," d="M66 0v270h258v-258l-43 -139h-152l18 127h-81z" />
<glyph unicode="-" horiz-adv-x="729" d="M66 401v242h598v-242h-598z" />
<glyph unicode="." d="M66 0v270h258v-270h-258z" />
<glyph unicode="/" horiz-adv-x="667" d="M16 0l369 1401h266l-368 -1401h-267z" />
<glyph unicode="0" horiz-adv-x="1019" d="M37 442v328q0 194 135 329.5t338 135.5t338 -135.5t135 -329.5v-328q0 -194 -135 -329.5t-338 -135.5t-338 135.5t-135 329.5zM283 442q0 -94 66.5 -160.5t160.5 -66.5t160.5 66.5t66.5 160.5v328q0 94 -66.5 160.5t-160.5 66.5t-160.5 -66.5t-66.5 -160.5v-328z" />
<glyph unicode="1" horiz-adv-x="503" d="M29 973v239h409v-1212h-258v973h-151z" />
<glyph unicode="2" horiz-adv-x="866" d="M25 940q48 140 157.5 217.5t239.5 77.5q173 0 294.5 -120t121.5 -290q0 -104 -37.5 -180.5t-130.5 -155.5l-297 -251h465v-238h-801v238l483 436q47 42 64.5 76.5t17.5 74.5q0 72 -52.5 123t-127.5 51q-60 0 -108 -36t-62 -89z" />
<glyph unicode="3" horiz-adv-x="913" d="M8 231l217 121q24 -61 77.5 -99t119.5 -38q89 0 151 62.5t62 150.5t-62 148.5t-151 60.5q-72 0 -131 -39l-111 197l254 180h-348v237h727v-237l-195 -139q119 -55 191 -165t72 -243q0 -187 -134 -319t-325 -132q-136 0 -247 69t-167 185z" />
<glyph unicode="4" horiz-adv-x="950" d="M16 172v238l539 802h258v-802h117v-238h-117v-172h-258v172h-539zM307 410h248v368z" />
<glyph unicode="5" horiz-adv-x="937" d="M33 229l217 123q24 -61 77 -99t119 -38q89 0 151 62.5t62 150.5t-62 148.5t-151 60.5q-52 0 -103.5 -26.5t-82.5 -82.5l-201 115l68 569h670v-237h-461l-12 -117q62 16 122 16q192 0 325.5 -129.5t133.5 -316.5t-134 -319t-325 -132q-136 0 -246.5 68.5t-166.5 183.5z " />
<glyph unicode="6" horiz-adv-x="983" d="M33 426q0 106 61 225l293 561h277l-179 -338q134 0 241 -61t165.5 -162t58.5 -221q0 -189 -133 -321t-325 -132q-126 0 -231.5 59.5t-166.5 163t-61 226.5zM281 428q0 -88 61.5 -150.5t149.5 -62.5q89 0 151 62.5t62 150.5t-62 148.5t-151 60.5q-88 0 -149.5 -60.5 t-61.5 -148.5z" />
<glyph unicode="7" horiz-adv-x="843" d="M12 975v237h815v-237l-454 -975h-275l455 975h-541z" />
<glyph unicode="8" horiz-adv-x="892" d="M33 391q0 92 38 172t105 137q-65 86 -65 203q0 139 96.5 235.5t236.5 96.5q141 0 239.5 -96.5t98.5 -235.5q0 -115 -67 -201q69 -58 107 -138.5t38 -172.5q0 -172 -121.5 -293t-294.5 -121q-169 0 -290 121.5t-121 292.5zM268 391q0 -73 52 -125.5t124 -52.5q75 0 128 52 t53 126q0 73 -53 123.5t-128 50.5q-73 0 -124.5 -50.5t-51.5 -123.5zM346 903q0 -41 29 -71.5t69 -30.5q41 0 72 30.5t31 71.5t-31 72t-72 31q-40 0 -69 -31t-29 -72z" />
<glyph unicode="9" horiz-adv-x="983" d="M33 782q0 189 133.5 321t325.5 132t325 -130.5t133 -318.5q0 -106 -61 -225l-293 -561h-277l179 338q-134 0 -241 61t-165.5 162t-58.5 221zM279 784q0 -88 62 -148.5t151 -60.5q88 0 149 60.5t61 148.5t-61.5 150.5t-148.5 62.5q-89 0 -151 -62.5t-62 -150.5z" />
<glyph unicode=":" d="M66 141v271h258v-271h-258zM66 633v270h258v-270h-258z" />
<glyph unicode=";" d="M66 143v271h258v-258l-43 -140h-152l18 127h-81zM66 633v270h258v-270h-258z" />
<glyph unicode="&#x3c;" horiz-adv-x="868" d="M25 500v217l819 330v-275l-449 -166l449 -162v-276z" />
<glyph unicode="=" horiz-adv-x="868" d="M25 295v254h819v-254h-819zM25 664v254h819v-254h-819z" />
<glyph unicode="&#x3e;" horiz-adv-x="868" d="M25 168v276l448 162l-448 166v275l819 -330v-217z" />
<glyph unicode="?" horiz-adv-x="909" d="M8 1169q57 115 167.5 184.5t246.5 69.5q192 0 325.5 -129.5t133.5 -316.5q0 -157 -97 -278t-249 -158v-187h-259v396q151 8 199 20q70 19 115 76.5t45 130.5q0 88 -62 148.5t-151 60.5q-67 0 -122 -37.5t-77 -97.5zM276 0v258h259v-258h-259z" />
<glyph unicode="@" horiz-adv-x="1708" d="M49 524q0 162 62 307.5t171.5 252.5t267.5 170t341 63q144 0 268 -40.5t215 -112t156 -169.5t97 -214.5t32 -243.5q0 -94 -18 -172t-55.5 -141.5t-103 -99.5t-153.5 -36q-81 0 -141 31t-88 92q-47 -68 -125.5 -95.5t-157.5 -27.5q-186 0 -314 127t-128 309q0 180 129 306 t313 126q150 0 236 -75v67h213v-555q0 -50 26 -80t80 -30q69 0 103 56t34 183q0 137 -39 254.5t-113.5 208t-194 142t-271.5 51.5t-282.5 -52t-219 -140.5t-138.5 -207.5t-50 -252q0 -136 51 -258t139 -210t211 -139.5t260 -51.5q117 0 231 36t201 105l76 -121 q-212 -159 -502 -159q-171 0 -323.5 63t-261 169.5t-171.5 253.5t-63 310zM582 522q0 -93 69 -162t164 -69q94 0 166 69.5t72 161.5q0 93 -72 163.5t-166 70.5q-95 0 -164 -70t-69 -164z" />
<glyph unicode="A" horiz-adv-x="1202" d="M16 518q0 148 73 272t199.5 195.5t276.5 71.5q169 0 303 -94v84h256v-1047h-256v70q-63 -43 -144 -68t-159 -25q-150 0 -276.5 73t-199.5 197.5t-73 270.5zM262 518q0 -122 89.5 -211.5t213.5 -89.5t213.5 89.5t89.5 211.5t-89.5 211.5t-213.5 89.5t-213.5 -89.5 t-89.5 -211.5z" />
<glyph unicode="B" horiz-adv-x="1202" d="M66 0v1401h256v-438q134 94 303 94q150 0 276.5 -71.5t199.5 -195.5t73 -272q0 -146 -73 -270.5t-199.5 -197.5t-276.5 -73q-78 0 -159 25t-144 68v-70h-256zM322 518q0 -122 89.5 -211.5t213.5 -89.5t213.5 89.5t89.5 211.5t-89.5 211.5t-213.5 89.5t-213.5 -89.5 t-89.5 -211.5z" />
<glyph unicode="C" horiz-adv-x="1056" d="M20 518q0 148 73 272t199.5 195.5t276.5 71.5q307 0 467 -252l-217 -121q-95 135 -250 135q-124 0 -213.5 -89.5t-89.5 -211.5t89.5 -211.5t213.5 -89.5q159 0 250 133l215 -119q-161 -254 -465 -254q-150 0 -276.5 73t-199.5 197.5t-73 270.5z" />
<glyph unicode="D" horiz-adv-x="1202" d="M20 518q0 148 73 272t199.5 195.5t276.5 71.5q169 0 303 -94v438h256v-1401h-256v70q-63 -43 -144 -68t-159 -25q-150 0 -276.5 73t-199.5 197.5t-73 270.5zM266 518q0 -122 89.5 -211.5t213.5 -89.5t213.5 89.5t89.5 211.5t-89.5 211.5t-213.5 89.5t-213.5 -89.5 t-89.5 -211.5z" />
<glyph unicode="E" horiz-adv-x="1155" d="M20 518q0 148 73 272t199.5 195.5t276.5 71.5q161 0 288 -76.5t194 -202.5t67 -276q0 -24 -4 -70h-831q33 -103 111.5 -159t195.5 -56q97 0 160.5 31.5t115.5 101.5l215 -119q-169 -254 -491 -254q-247 0 -408.5 154.5t-161.5 386.5zM289 635h557q-78 184 -277 184 q-92 0 -168 -51.5t-112 -132.5z" />
<glyph unicode="F" horiz-adv-x="702" d="M37 694v238h104v45q0 245 132 345q121 91 372 92q23 0 47 -1l-18 -250q-92 0 -146 -8.5t-83 -32.5t-37.5 -55.5t-8.5 -89.5v-45h236v-238h-236v-694h-258v694h-104z" />
<glyph unicode="G" horiz-adv-x="1202" d="M20 518q0 148 73 272t199.5 195.5t276.5 71.5q169 0 303 -94v84h256v-920q0 -237 -142 -371.5t-417 -134.5q-242 0 -438 105l92 221q181 -88 346 -88q74 0 142 25.5t114.5 79t46.5 122.5q-132 -106 -303 -106q-113 0 -214.5 42t-175 113t-116.5 171t-43 212zM266 518 q0 -122 89.5 -211.5t213.5 -89.5t213.5 89.5t89.5 211.5t-89.5 211.5t-213.5 89.5t-213.5 -89.5t-89.5 -211.5z" />
<glyph unicode="H" horiz-adv-x="1095" d="M66 0v1401h256v-438q112 94 282 94q430 0 430 -508v-549h-256v483q0 72 -5 120.5t-19 92.5t-39 69t-65.5 39.5t-98.5 14.5q-107 0 -168 -63.5t-61 -175.5v-580h-256z" />
<glyph unicode="I" d="M66 0v1047h258v-1047h-258zM66 1143v258h258v-258h-258z" />
<glyph unicode="J" d="M-125 -354l19 248q95 14 133.5 51.5t38.5 134.5v967h258v-967q0 -121 -31 -206.5t-92 -134.5t-140.5 -71t-185.5 -22zM66 1143v258h258v-258h-258z" />
<glyph unicode="K" horiz-adv-x="997" d="M66 0v1401h258v-680l327 326h310l-390 -400l428 -647h-307l-309 453l-59 -62v-391h-258z" />
<glyph unicode="L" d="M66 0v1401h258v-1401h-258z" />
<glyph unicode="M" horiz-adv-x="1726" d="M66 0v1047h256v-84q105 94 262 94q219 0 323 -148q67 74 158 111t190 37q410 0 410 -508v-549h-256v483q0 71 -4.5 120.5t-17.5 93t-36 68.5t-60 39.5t-89 14.5q-98 0 -153.5 -63.5t-55.5 -175.5v-580h-256v483q0 71 -4.5 120.5t-17.5 93t-36 68.5t-60 39.5t-89 14.5 q-98 0 -153 -63t-55 -176v-580h-256z" />
<glyph unicode="N" horiz-adv-x="1095" d="M66 0v1047h256v-84q112 94 282 94q430 0 430 -508v-549h-256v483q0 72 -5 120.5t-19 92.5t-39 69t-65.5 39.5t-98.5 14.5q-107 0 -168 -63.5t-61 -175.5v-580h-256z" />
<glyph unicode="O" horiz-adv-x="1155" d="M20 518q0 148 73 272t199.5 195.5t276.5 71.5t276.5 -71.5t199.5 -195.5t73 -272q0 -146 -73 -270.5t-199.5 -197.5t-276.5 -73t-276.5 73t-199.5 197.5t-73 270.5zM266 518q0 -122 89.5 -211.5t213.5 -89.5t213.5 89.5t89.5 211.5t-89.5 211.5t-213.5 89.5t-213.5 -89.5 t-89.5 -211.5z" />
<glyph unicode="P" horiz-adv-x="1202" d="M66 -354v1401h256v-84q134 94 303 94q150 0 276.5 -71.5t199.5 -195.5t73 -272q0 -146 -73 -270.5t-199.5 -197.5t-276.5 -73q-78 0 -159 25t-144 68v-424h-256zM322 518q0 -122 89.5 -211.5t213.5 -89.5t213.5 89.5t89.5 211.5t-89.5 211.5t-213.5 89.5t-213.5 -89.5 t-89.5 -211.5z" />
<glyph unicode="Q" horiz-adv-x="1202" d="M20 518q0 148 73 272t199.5 195.5t276.5 71.5q169 0 303 -94v84h256v-1401h-256v424q-63 -43 -144 -68t-159 -25q-150 0 -276.5 73t-199.5 197.5t-73 270.5zM266 518q0 -122 89.5 -211.5t213.5 -89.5t213.5 89.5t89.5 211.5t-89.5 211.5t-213.5 89.5t-213.5 -89.5 t-89.5 -211.5z" />
<glyph unicode="R" horiz-adv-x="657" d="M66 0v1047h258v-101q59 59 131 84t178 27l-17 -273q-88 0 -145.5 -15t-89.5 -48.5t-44.5 -78t-12.5 -110.5v-532h-258z" />
<glyph unicode="S" horiz-adv-x="987" d="M25 336h272q7 -67 57.5 -111.5t151.5 -44.5q78 0 124 32t46 77q0 23 -13 40.5t-30.5 28t-50 18.5t-55 11t-62.5 8q-38 4 -63.5 7.5t-73.5 14.5t-81 24.5t-73.5 38.5t-65 56t-42 77.5t-17.5 103.5q0 154 114.5 247t317.5 93q198 0 315.5 -92t129.5 -250h-262 q-3 28 -10 48.5t-24 43t-53.5 35t-89.5 12.5q-73 0 -116 -25t-43 -65q0 -14 4.5 -25.5t14.5 -21t20 -16.5t28.5 -13.5t31 -10.5t36 -9t36.5 -7t38.5 -6t35.5 -6q72 -12 123 -25t105.5 -37.5t88.5 -57.5t55.5 -85t21.5 -120q0 -88 -35 -155t-98 -108.5t-146.5 -62.5 t-185.5 -21q-222 0 -345.5 95t-131.5 264z" />
<glyph unicode="T" horiz-adv-x="698" d="M12 809v238h125v274h258v-274h236v-238h-236v-379q0 -56 8 -87.5t36 -55.5t80.5 -33t142.5 -10l16 -250h-55q-91 0 -161.5 11.5t-133 41t-103.5 78t-64.5 125.5t-23.5 180v379h-125z" />
<glyph unicode="U" horiz-adv-x="1087" d="M61 498v549h256v-484q0 -71 5 -120.5t19 -93t39.5 -68.5t66 -39.5t98.5 -14.5q107 0 168 64t61 176v580h256v-1047h-256v84q-112 -94 -282 -94q-431 0 -431 508z" />
<glyph unicode="V" horiz-adv-x="1021" d="M12 1047h269l231 -730l236 730h262l-338 -1047h-322z" />
<glyph unicode="W" horiz-adv-x="1552" d="M12 1047h258l189 -678l190 678h264l189 -678l190 678h248l-297 -1047h-297l-172 623l-172 -623h-293z" />
<glyph unicode="X" horiz-adv-x="1044" d="M4 0l363 557l-318 490h307l166 -261l166 261h307l-317 -490l362 -557h-307l-211 326l-211 -326h-307z" />
<glyph unicode="Y" horiz-adv-x="1005" d="M12 1047h271l221 -717l225 717h264l-313 -979q-42 -130 -77 -210.5t-79.5 -136.5t-97 -78t-125.5 -22q-114 0 -190 29l36 239q49 -10 95 -10q106 0 106 92q0 41 -47 189z" />
<glyph unicode="Z" horiz-adv-x="974" d="M29 0v227l555 590h-529v230h867v-230l-555 -590h591v-227h-929z" />
<glyph unicode="[" horiz-adv-x="595" d="M66 -354v1755h493v-238h-235v-1280h235v-237h-493z" />
<glyph unicode="\" horiz-adv-x="667" d="M16 1401h267l368 -1401h-266z" />
<glyph unicode="]" horiz-adv-x="595" d="M37 -117h235v1280h-235v238h493v-1755h-493v237z" />
<glyph unicode="^" horiz-adv-x="868" d="M25 969l409 338l410 -338l-131 -217l-279 243l-278 -243z" />
<glyph unicode="_" horiz-adv-x="688" d="M-16 0h721v-242h-721v242z" />
<glyph unicode="`" horiz-adv-x="819" d="M147 1133l58 229l434 -139l-51 -203z" />
<glyph unicode="a" horiz-adv-x="1202" d="M29 518q0 148 73 272t199.5 195.5t276.5 71.5q169 0 303 -94v84h256v-1047h-256v70q-63 -43 -144 -68t-159 -25q-150 0 -276.5 73t-199.5 197.5t-73 270.5zM274 518q0 -122 90 -211.5t214 -89.5t213.5 89.5t89.5 211.5t-89.5 211.5t-213.5 89.5t-214 -89.5t-90 -211.5z " />
<glyph unicode="b" horiz-adv-x="1202" d="M66 0v1401h256v-438q134 94 303 94q150 0 276.5 -71.5t199.5 -195.5t73 -272q0 -146 -73 -270.5t-199.5 -197.5t-276.5 -73q-78 0 -159 25t-144 68v-70h-256zM322 518q0 -122 89.5 -211.5t213.5 -89.5t213.5 89.5t89.5 211.5t-89.5 211.5t-213.5 89.5t-213.5 -89.5 t-89.5 -211.5z" />
<glyph unicode="c" horiz-adv-x="1060" d="M29 518q0 148 73 272t199.5 195.5t276.5 71.5q306 0 466 -252l-217 -121q-95 135 -249 135q-124 0 -214 -89.5t-90 -211.5t90 -211.5t214 -89.5q158 0 249 133l215 -119q-161 -254 -464 -254q-150 0 -276.5 73t-199.5 197.5t-73 270.5z" />
<glyph unicode="d" horiz-adv-x="1202" d="M29 518q0 148 73 272t199.5 195.5t276.5 71.5q169 0 303 -94v438h256v-1401h-256v70q-63 -43 -144 -68t-159 -25q-150 0 -276.5 73t-199.5 197.5t-73 270.5zM274 518q0 -122 90 -211.5t214 -89.5t213.5 89.5t89.5 211.5t-89.5 211.5t-213.5 89.5t-214 -89.5t-90 -211.5z " />
<glyph unicode="e" horiz-adv-x="1159" d="M29 518q0 148 73 272t199.5 195.5t276.5 71.5q121 0 225 -44.5t174 -120.5t109.5 -177t39.5 -213q0 -24 -4 -70h-831q33 -103 111.5 -159t195.5 -56q97 0 160.5 31.5t115.5 101.5l216 -119q-169 -254 -492 -254q-162 0 -292.5 70.5t-203.5 194t-73 276.5zM297 635h557 q-78 184 -276 184q-92 0 -168.5 -51.5t-112.5 -132.5z" />
<glyph unicode="f" horiz-adv-x="702" d="M37 694v238h104v45q0 246 132 345q121 92 372 92q23 0 47 -1l-18 -250q-92 0 -146 -8.5t-83 -32.5t-37.5 -55.5t-8.5 -89.5v-45h236v-238h-236v-694h-258v694h-104z" />
<glyph unicode="g" horiz-adv-x="1202" d="M29 518q0 148 73 272t199.5 195.5t276.5 71.5q169 0 303 -94v84h256v-920q0 -237 -142 -371.5t-417 -134.5q-243 0 -439 105l92 221q181 -88 347 -88q74 0 142 25.5t114.5 79t46.5 122.5q-132 -106 -303 -106q-113 0 -214.5 42t-175 113t-116.5 171t-43 212zM274 518 q0 -122 90 -211.5t214 -89.5t213.5 89.5t89.5 211.5t-89.5 211.5t-213.5 89.5t-214 -89.5t-90 -211.5z" />
<glyph unicode="h" horiz-adv-x="1095" d="M66 0v1401h256v-438q112 94 282 94q430 0 430 -508v-549h-256v483q0 72 -5 120.5t-19 92.5t-39 69t-65.5 39.5t-98.5 14.5q-107 0 -168 -63.5t-61 -175.5v-580h-256z" />
<glyph unicode="i" d="M66 0v1047h258v-1047h-258zM66 1143v258h258v-258h-258z" />
<glyph unicode="j" d="M-125 -354l19 248q95 14 133.5 51.5t38.5 134.5v967h258v-967q0 -121 -31 -206.5t-92 -134.5t-140.5 -71t-185.5 -22zM66 1143v258h258v-258h-258z" />
<glyph unicode="k" horiz-adv-x="997" d="M66 0v1401h258v-680l327 326h310l-390 -400l428 -647h-307l-309 453l-59 -62v-391h-258z" />
<glyph unicode="l" d="M66 0v1401h258v-1401h-258z" />
<glyph unicode="m" horiz-adv-x="1726" d="M66 0v1047h256v-84q105 94 262 94q219 0 323 -148q67 74 158 111t190 37q410 0 410 -508v-549h-256v483q0 71 -4.5 120.5t-17.5 93t-36 68.5t-60 39.5t-89 14.5q-98 0 -153.5 -63.5t-55.5 -175.5v-580h-256v483q0 71 -4.5 120.5t-17.5 93t-36 68.5t-60 39.5t-89 14.5 q-98 0 -153 -63t-55 -176v-580h-256z" />
<glyph unicode="n" horiz-adv-x="1095" d="M66 0v1047h256v-84q112 94 282 94q430 0 430 -508v-549h-256v483q0 72 -5 120.5t-19 92.5t-39 69t-65.5 39.5t-98.5 14.5q-107 0 -168 -63.5t-61 -175.5v-580h-256z" />
<glyph unicode="o" horiz-adv-x="1155" d="M29 518q0 148 73 272t199.5 195.5t276.5 71.5t276 -71.5t199 -195.5t73 -272q0 -146 -73 -270.5t-199 -197.5t-276 -73t-276.5 73t-199.5 197.5t-73 270.5zM274 518q0 -122 90 -211.5t214 -89.5t213.5 89.5t89.5 211.5t-89.5 211.5t-213.5 89.5t-214 -89.5t-90 -211.5z " />
<glyph unicode="p" horiz-adv-x="1202" d="M66 -354v1401h256v-84q134 94 303 94q150 0 276.5 -71.5t199.5 -195.5t73 -272q0 -146 -73 -270.5t-199.5 -197.5t-276.5 -73q-78 0 -159 25t-144 68v-424h-256zM322 518q0 -122 89.5 -211.5t213.5 -89.5t213.5 89.5t89.5 211.5t-89.5 211.5t-213.5 89.5t-213.5 -89.5 t-89.5 -211.5z" />
<glyph unicode="q" horiz-adv-x="1202" d="M29 518q0 148 73 272t199.5 195.5t276.5 71.5q169 0 303 -94v84h256v-1401h-256v424q-63 -43 -144 -68t-159 -25q-150 0 -276.5 73t-199.5 197.5t-73 270.5zM274 518q0 -122 90 -211.5t214 -89.5t213.5 89.5t89.5 211.5t-89.5 211.5t-213.5 89.5t-214 -89.5t-90 -211.5z " />
<glyph unicode="r" horiz-adv-x="657" d="M66 0v1047h258v-101q59 59 131 84t178 27l-17 -273q-88 0 -145.5 -15t-89.5 -48.5t-44.5 -78t-12.5 -110.5v-532h-258z" />
<glyph unicode="s" horiz-adv-x="987" d="M25 336h272q7 -67 57.5 -111.5t151.5 -44.5q78 0 124 32t46 77q0 23 -13 40.5t-30.5 28t-50 18.5t-55 11t-62.5 8q-38 4 -63.5 7.5t-73.5 14.5t-81 24.5t-73.5 38.5t-65 56t-42 77.5t-17.5 103.5q0 154 114.5 247t317.5 93q198 0 315.5 -92t129.5 -250h-262 q-3 28 -10 48.5t-24 43t-53.5 35t-89.5 12.5q-73 0 -116 -25t-43 -65q0 -14 4.5 -25.5t14.5 -21t20 -16.5t28.5 -13.5t31 -10.5t36 -9t36.5 -7t38.5 -6t35.5 -6q72 -12 123 -25t105.5 -37.5t88.5 -57.5t55.5 -85t21.5 -120q0 -88 -35 -155t-98 -108.5t-146.5 -62.5 t-185.5 -21q-222 0 -345.5 95t-131.5 264z" />
<glyph unicode="t" horiz-adv-x="698" d="M12 809v238h125v274h258v-274h236v-238h-236v-379q0 -56 8 -87.5t36 -55.5t80.5 -33t142.5 -10l16 -250h-55q-91 0 -161.5 11.5t-133 41t-103.5 78t-64.5 125.5t-23.5 180v379h-125z" />
<glyph unicode="u" horiz-adv-x="1095" d="M61 498v549h256v-484q0 -71 5 -120.5t19 -93t39.5 -68.5t66 -39.5t98.5 -14.5q107 0 168 64t61 176v580h256v-1047h-256v84q-112 -94 -282 -94q-431 0 -431 508z" />
<glyph unicode="v" horiz-adv-x="1021" d="M12 1047h269l231 -730l236 730h262l-338 -1047h-322z" />
<glyph unicode="w" horiz-adv-x="1552" d="M12 1047h258l189 -678l190 678h264l189 -678l190 678h248l-297 -1047h-297l-172 623l-172 -623h-293z" />
<glyph unicode="x" horiz-adv-x="1044" d="M4 0l363 557l-318 490h307l166 -261l166 261h307l-317 -490l362 -557h-307l-211 326l-211 -326h-307z" />
<glyph unicode="y" horiz-adv-x="1005" d="M12 1047h271l221 -717l225 717h264l-313 -979q-42 -130 -77 -210.5t-79.5 -136.5t-97 -78t-125.5 -22q-114 0 -190 29l36 239q49 -10 95 -10q106 0 106 92q0 41 -47 189z" />
<glyph unicode="z" horiz-adv-x="974" d="M29 0v227l555 590h-529v230h867v-230l-555 -590h591v-227h-929z" />
<glyph unicode="{" horiz-adv-x="763" d="M49 403v244q60 6 97 19t55 39t23 53.5t5 75.5v143q0 109 24 187t66 126t111 75.5t145.5 37.5t184.5 10l-19 -250q-84 0 -133.5 -8.5t-77 -32.5t-35.5 -56t-8 -89v-143q0 -190 -145 -310q145 -120 145 -307v-143q0 -46 5 -74t19.5 -52t43 -36t73.5 -18.5t113 -6.5l19 -249 q-109 0 -187.5 10.5t-146.5 38.5t-109.5 77t-64.5 126t-23 184v143q0 48 -5 75.5t-23 53t-54.5 38.5t-97.5 19z" />
<glyph unicode="|" d="M66 -293v1694h258v-1694h-258z" />
<glyph unicode="}" horiz-adv-x="763" d="M4 -362l19 249q68 0 112.5 6.5t73.5 18.5t43 36t19 52t5 74v143q0 186 146 307q-146 121 -146 310v143q0 57 -8 89t-35 56t-76.5 32.5t-133.5 8.5l-19 250q108 0 184.5 -10t145.5 -37.5t111 -75.5t66 -126t24 -187v-143q0 -48 5 -75.5t23 -53.5t55 -39t97 -19v-244 q-61 -6 -97.5 -19t-54.5 -38.5t-23 -53t-5 -75.5v-143q0 -107 -23 -184t-64.5 -126t-109.5 -77t-146.5 -38.5t-187.5 -10.5z" />
<glyph unicode="~" horiz-adv-x="819" d="M68 1221q43 39 96 64.5t104 25.5q49 0 134.5 -34t129.5 -34q67 0 148 66l70 -181q-35 -41 -87 -64.5t-102 -23.5q-48 0 -130.5 33t-129.5 33t-91.5 -20t-68.5 -46z" />
<glyph unicode="&#xa1;" horiz-adv-x="438" d="M90 0v1047h258v-1047h-258zM90 1143v258h258v-258h-258z" />
<glyph unicode="&#xa2;" horiz-adv-x="1060" d="M25 606q0 184 110.5 326t284.5 192v168h258v-155q233 -41 362 -244l-217 -121q-61 83 -145 117v-567q84 29 145 116l215 -119q-133 -208 -360 -245v-156h-258v168q-174 50 -284.5 193.5t-110.5 326.5zM270 606q0 -80 40.5 -149t109.5 -109v516q-68 -40 -109 -109.5 t-41 -148.5z" />
<glyph unicode="&#xa3;" horiz-adv-x="1095" d="M57 526v176h115q-14 55 -14 123q0 86 29 160.5t84 130.5t139.5 88.5t189.5 32.5q132 0 238.5 -55t171.5 -156l-209 -129q-68 102 -201 102q-90 0 -143.5 -51.5t-53.5 -122.5q0 -65 15 -123h317v-176h-254q71 -170 78 -297q61 -14 103 -14q132 0 200 102l209 -129 q-64 -99 -166 -155t-213 -56q-61 0 -177 29t-187 29q-105 0 -211 -62l-19 265q89 48 209 51q-14 100 -71 237h-179z" />
<glyph unicode="&#xa5;" horiz-adv-x="1060" d="M12 1212h279l239 -497l240 497h279l-308 -618h211v-176h-293v-92h293v-176h-293v-150h-258v150h-290v176h290v92h-290v176h208z" />
<glyph unicode="&#xa6;" d="M66 -293v662h258v-662h-258zM66 739v662h258v-662h-258z" />
<glyph unicode="&#xa7;" horiz-adv-x="1007" d="M66 311h253q0 -58 50.5 -103.5t142.5 -45.5q76 0 119 30.5t43 73.5q0 25 -14 43t-44 29t-61 17t-80 12q-47 6 -82.5 12.5t-84.5 19.5t-84.5 34.5t-68.5 52.5t-50 77.5t-17 104.5q0 131 100 221q-100 75 -100 211q0 142 106 228.5t295 86.5q185 0 294 -85t120 -232h-244 q-3 26 -9 44.5t-22 39t-49.5 31t-82.5 10.5q-69 0 -109.5 -21.5t-40.5 -58.5q0 -19 9.5 -34t29.5 -26t38.5 -18.5t50 -13t50 -8.5t51.5 -7q61 -8 106 -18t97.5 -32t85.5 -52.5t55.5 -82t22.5 -118.5q0 -143 -96 -223q96 -73 96 -211q0 -108 -57 -182t-152 -107t-223 -33 q-207 0 -321.5 88t-122.5 246zM346 711q0 -39 41.5 -63.5t99.5 -33.5q40 -4 60 -4q106 0 106 76q0 46 -39 74t-120 28q-45 0 -72 -8q-76 -16 -76 -69z" />
<glyph unicode="&#xa8;" horiz-adv-x="819" d="M131 1057v237h238v-237h-238zM451 1057v237h237v-237h-237z" />
<glyph unicode="&#xa9;" horiz-adv-x="1284" d="M33 825q0 164 81 301.5t221.5 217t307.5 79.5q125 0 237.5 -47t193.5 -126.5t129 -190.5t48 -234t-48 -234t-129 -190.5t-193.5 -126.5t-237.5 -47q-167 0 -307.5 79.5t-221.5 217t-81 301.5zM170 825q0 -123 63.5 -231t173 -172t236.5 -64q126 0 235.5 64t173.5 172 t64 231t-64 231t-173.5 172t-235.5 64q-127 0 -236.5 -64t-173 -172t-63.5 -231zM336 825q0 132 93.5 224t229.5 92q180 0 275 -146l-152 -96q-50 57 -123 57q-59 0 -96 -38t-37 -93t37 -93t96 -38q72 0 123 58l152 -97q-94 -145 -275 -145q-136 0 -229.5 91.5t-93.5 223.5z " />
<glyph unicode="&#xaa;" horiz-adv-x="690" d="M66 1139q0 115 81 194.5t197 79.5q64 0 131 -31v25h150v-535h-150v23q-60 -31 -131 -31q-115 0 -196.5 80.5t-81.5 194.5zM215 1139q0 -54 37.5 -91.5t91.5 -37.5t91.5 37.5t37.5 91.5t-37.5 91.5t-91.5 37.5t-91.5 -37.5t-37.5 -91.5z" />
<glyph unicode="&#xab;" horiz-adv-x="1038" d="M98 518l246 443h225l-245 -443l245 -440h-225zM489 518l246 443h226l-246 -443l246 -440h-226z" />
<glyph unicode="&#xad;" horiz-adv-x="729" d="M66 401v242h598v-242h-598z" />
<glyph unicode="&#xae;" horiz-adv-x="1267" d="M25 825q0 164 81 301.5t221.5 217t307.5 79.5q125 0 237.5 -47t193.5 -126.5t129 -190.5t48 -234t-48 -234t-129 -190.5t-193.5 -126.5t-237.5 -47q-167 0 -307.5 79.5t-221.5 217t-81 301.5zM162 825q0 -123 63.5 -231t173 -172t236.5 -64q126 0 235.5 64t173.5 172 t64 231t-64 231t-173.5 172t-235.5 64q-127 0 -236.5 -64t-173 -172t-63.5 -231zM436 516v610h191v-82q43 48 96.5 67.5t130.5 21.5l-8 -187q-130 0 -174.5 -29.5t-44.5 -111.5v-289h-191z" />
<glyph unicode="&#xaf;" horiz-adv-x="819" d="M131 1061v229h557v-229h-557z" />
<glyph unicode="&#xb0;" horiz-adv-x="890" d="M131 852v76q0 129 89 219t224 90t225.5 -90t90.5 -219v-76q0 -129 -90.5 -219t-225.5 -90t-224 90t-89 219zM315 852q0 -54 37.5 -92.5t91.5 -38.5t92.5 38.5t38.5 92.5v76q0 54 -38.5 92.5t-92.5 38.5t-91.5 -38.5t-37.5 -92.5v-76z" />
<glyph unicode="&#xb1;" horiz-adv-x="868" d="M25 33v254h819v-254h-819zM25 631v254h280v295h258v-295h281v-254h-281v-295h-258v295h-280z" />
<glyph unicode="&#xb4;" horiz-adv-x="819" d="M180 1223l434 139l58 -229l-441 -113z" />
<glyph unicode="&#xb6;" horiz-adv-x="958" d="M25 954q0 184 133.5 315.5t324.5 131.5h144v-1401h-144v504q-192 0 -325 130t-133 320zM750 0v1401h143v-1401h-143z" />
<glyph unicode="&#xb7;" d="M66 393v258h258v-258h-258z" />
<glyph unicode="&#xb8;" horiz-adv-x="819" d="M238 -238q0 73 52 125t126 52v71h119v-184h-119q-25 0 -42.5 -19t-17.5 -45q0 -25 17.5 -42t42.5 -17t42 17t17 42h119q0 -73 -52 -124.5t-126 -51.5t-126 51.5t-52 124.5z" />
<glyph unicode="&#xba;" horiz-adv-x="690" d="M66 1139q0 115 81 194.5t197 79.5q117 0 199 -79.5t82 -194.5q0 -114 -82 -194.5t-199 -80.5q-115 0 -196.5 80.5t-81.5 194.5zM213 1139q0 -53 38.5 -92t92.5 -39t92.5 39t38.5 92q0 51 -38.5 90t-92.5 39t-92.5 -39t-38.5 -90z" />
<glyph unicode="&#xbb;" horiz-adv-x="1038" d="M78 78l246 440l-246 443h225l246 -443l-246 -440h-225zM469 78l246 440l-246 443h225l246 -443l-246 -440h-225z" />
<glyph unicode="&#xbf;" horiz-adv-x="909" d="M29 424q0 157 97 278t249 158v187h258v-396q-151 -8 -199 -20q-70 -19 -115 -76.5t-45 -130.5q0 -88 62 -148.5t151 -60.5q67 0 122 37.5t77 97.5l215 -119q-57 -115 -167.5 -184.5t-246.5 -69.5q-192 0 -325 130t-133 317zM375 1143v258h258v-258h-258z" />
<glyph unicode="&#xc0;" horiz-adv-x="1206" d="M20 518q0 148 73 272t199.5 195.5t276.5 71.5q169 0 303 -94v84h256v-1047h-256v70q-63 -43 -144 -68t-159 -25q-150 0 -276.5 73t-199.5 197.5t-73 270.5zM266 518q0 -122 89.5 -211.5t213.5 -89.5t213.5 89.5t89.5 211.5t-89.5 211.5t-213.5 89.5t-213.5 -89.5 t-89.5 -211.5zM274 1229l58 229l434 -139l-51 -203z" />
<glyph unicode="&#xc1;" horiz-adv-x="1206" d="M20 518q0 148 73 272t199.5 195.5t276.5 71.5q169 0 303 -94v84h256v-1047h-256v70q-63 -43 -144 -68t-159 -25q-150 0 -276.5 73t-199.5 197.5t-73 270.5zM266 518q0 -122 89.5 -211.5t213.5 -89.5t213.5 89.5t89.5 211.5t-89.5 211.5t-213.5 89.5t-213.5 -89.5 t-89.5 -211.5zM397 1319l434 139l58 -229l-440 -113z" />
<glyph unicode="&#xc2;" horiz-adv-x="1206" d="M20 518q0 148 73 272t199.5 195.5t276.5 71.5q169 0 303 -94v84h256v-1047h-256v70q-63 -43 -144 -68t-159 -25q-150 0 -276.5 73t-199.5 197.5t-73 270.5zM266 518q0 -122 89.5 -211.5t213.5 -89.5t213.5 89.5t89.5 211.5t-89.5 211.5t-213.5 89.5t-213.5 -89.5 t-89.5 -211.5zM272 1311l310 153l309 -153l-70 -181l-239 101l-240 -101z" />
<glyph unicode="&#xc3;" horiz-adv-x="1206" d="M20 518q0 148 73 272t199.5 195.5t276.5 71.5q169 0 303 -94v84h256v-1047h-256v70q-63 -43 -144 -68t-159 -25q-150 0 -276.5 73t-199.5 197.5t-73 270.5zM240 1317q43 39 96 64.5t104 25.5q49 0 135 -34t130 -34q67 0 147 58l70 -172q-35 -41 -87 -64.5t-102 -23.5 q-48 0 -130.5 32.5t-129.5 32.5q-48 0 -92 -17t-68 -40zM266 518q0 -122 89.5 -211.5t213.5 -89.5t213.5 89.5t89.5 211.5t-89.5 211.5t-213.5 89.5t-213.5 -89.5t-89.5 -211.5z" />
<glyph unicode="&#xc4;" horiz-adv-x="1206" d="M20 518q0 148 73 272t199.5 195.5t276.5 71.5q169 0 303 -94v84h256v-1047h-256v70q-63 -43 -144 -68t-159 -25q-150 0 -276.5 73t-199.5 197.5t-73 270.5zM266 518q0 -122 89.5 -211.5t213.5 -89.5t213.5 89.5t89.5 211.5t-89.5 211.5t-213.5 89.5t-213.5 -89.5 t-89.5 -211.5zM303 1153v238h238v-238h-238zM623 1153v238h237v-238h-237z" />
<glyph unicode="&#xc5;" horiz-adv-x="1206" d="M20 518q0 148 73 272t199.5 195.5t276.5 71.5q169 0 303 -94v84h256v-1047h-256v70q-63 -43 -144 -68t-159 -25q-150 0 -276.5 73t-199.5 197.5t-73 270.5zM266 518q0 -122 89.5 -211.5t213.5 -89.5t213.5 89.5t89.5 211.5t-89.5 211.5t-213.5 89.5t-213.5 -89.5 t-89.5 -211.5zM403 1272q0 73 52.5 124.5t126.5 51.5t126 -51.5t52 -124.5q0 -74 -52 -126t-126 -52t-126.5 52.5t-52.5 125.5zM502 1272q0 -34 23 -58t57 -24t57 24t23 58q0 35 -23 59.5t-57 24.5t-57 -24.5t-23 -59.5z" />
<glyph unicode="&#xc6;" horiz-adv-x="2007" d="M29 518q0 148 73 272t199.5 195.5t276.5 71.5q169 0 303 -94v84h256v-72q135 82 293 82q121 0 225 -44.5t174 -120.5t109.5 -177t39.5 -213q0 -24 -4 -70h-831q33 -103 111.5 -159t195.5 -56q97 0 160.5 31.5t115.5 101.5l216 -119q-169 -254 -492 -254q-172 0 -313 82 v-59h-256v70q-63 -43 -144 -68t-159 -25q-150 0 -276.5 73t-199.5 197.5t-73 270.5zM274 518q0 -122 90 -211.5t214 -89.5t213.5 89.5t89.5 211.5t-89.5 211.5t-213.5 89.5t-214 -89.5t-90 -211.5zM1149 635h557q-78 184 -276 184q-92 0 -168.5 -51.5t-112.5 -132.5z" />
<glyph unicode="&#xc7;" horiz-adv-x="1052" d="M25 518q0 148 73 272t199 195.5t276 71.5q307 0 467 -252l-217 -121q-95 135 -250 135q-124 0 -213.5 -89.5t-89.5 -211.5t89.5 -211.5t213.5 -89.5q159 0 250 133l215 -119q-144 -225 -403 -249v-156h-119q-25 0 -42 -19t-17 -45q0 -25 17 -42t42 -17t42 17t17 42h119 q0 -73 -52 -124.5t-126 -51.5t-126 51.5t-52 124.5t52 125t126 52v43q-138 13 -250.5 87.5t-176.5 193t-64 255.5z" />
<glyph unicode="&#xc8;" horiz-adv-x="1155" d="M25 518q0 148 73 272t199 195.5t276 71.5q161 0 288 -76.5t194 -202.5t67 -276q0 -24 -4 -70h-831q33 -103 111.5 -159t195.5 -56q97 0 160.5 31.5t115.5 101.5l215 -119q-169 -254 -491 -254q-162 0 -292.5 70.5t-203.5 194t-73 276.5zM274 1229l58 229l434 -139 l-51 -203zM293 635h557q-78 184 -277 184q-92 0 -168 -51.5t-112 -132.5z" />
<glyph unicode="&#xc9;" horiz-adv-x="1155" d="M25 518q0 148 73 272t199 195.5t276 71.5q161 0 288 -76.5t194 -202.5t67 -276q0 -24 -4 -70h-831q33 -103 111.5 -159t195.5 -56q97 0 160.5 31.5t115.5 101.5l215 -119q-169 -254 -491 -254q-162 0 -292.5 70.5t-203.5 194t-73 276.5zM293 635h557q-78 184 -277 184 q-92 0 -168 -51.5t-112 -132.5zM397 1319l434 139l58 -229l-440 -113z" />
<glyph unicode="&#xca;" horiz-adv-x="1155" d="M25 518q0 148 73 272t199 195.5t276 71.5q161 0 288 -76.5t194 -202.5t67 -276q0 -24 -4 -70h-831q33 -103 111.5 -159t195.5 -56q97 0 160.5 31.5t115.5 101.5l215 -119q-169 -254 -491 -254q-162 0 -292.5 70.5t-203.5 194t-73 276.5zM272 1311l310 153l309 -153 l-70 -181l-239 101l-240 -101zM293 635h557q-78 184 -277 184q-92 0 -168 -51.5t-112 -132.5z" />
<glyph unicode="&#xcb;" horiz-adv-x="1155" d="M25 518q0 148 73 272t199 195.5t276 71.5q161 0 288 -76.5t194 -202.5t67 -276q0 -24 -4 -70h-831q33 -103 111.5 -159t195.5 -56q97 0 160.5 31.5t115.5 101.5l215 -119q-169 -254 -491 -254q-162 0 -292.5 70.5t-203.5 194t-73 276.5zM293 635h557q-78 184 -277 184 q-92 0 -168 -51.5t-112 -132.5zM303 1153v238h238v-238h-238zM623 1153v238h237v-238h-237z" />
<glyph unicode="&#xcc;" d="M-113 1229l58 229l434 -139l-51 -203zM66 0v1047h258v-1047h-258z" />
<glyph unicode="&#xcd;" d="M10 1319l434 139l58 -229l-441 -113zM66 0v1047h258v-1047h-258z" />
<glyph unicode="&#xce;" d="M-115 1311l310 153l309 -153l-70 -181l-239 101l-240 -101zM66 0v1047h258v-1047h-258z" />
<glyph unicode="&#xcf;" d="M-84 1153v238h238v-238h-238zM66 0v1047h258v-1047h-258zM236 1153v238h237v-238h-237z" />
<glyph unicode="&#xd0;" horiz-adv-x="1153" d="M33 518q0 148 73 272t199.5 195.5t276.5 71.5q25 0 65 -4l-33 63l-155 -20v176l71 10l-59 119h270l43 -84l185 26v-176l-101 -14l195 -377q65 -124 65 -258q0 -146 -72.5 -270.5t-198.5 -197.5t-275 -73q-150 0 -276.5 73t-199.5 197.5t-73 270.5zM279 518 q0 -122 89.5 -211.5t213.5 -89.5t213.5 89.5t89.5 211.5t-89.5 211.5t-213.5 89.5t-213.5 -89.5t-89.5 -211.5z" />
<glyph unicode="&#xd1;" horiz-adv-x="1095" d="M66 0v1047h256v-84q112 94 282 94q430 0 430 -508v-549h-256v483q0 72 -5 120.5t-19 92.5t-39 69t-65.5 39.5t-98.5 14.5q-107 0 -168 -63.5t-61 -175.5v-580h-256zM209 1317q43 39 96.5 64.5t104.5 25.5q49 0 134.5 -34t129.5 -34q67 0 147 58l70 -172 q-35 -41 -87 -64.5t-102 -23.5q-48 0 -130.5 32.5t-129.5 32.5t-91 -17t-68 -40z" />
<glyph unicode="&#xd2;" horiz-adv-x="1163" d="M25 518q0 148 73 272t199 195.5t276 71.5t276.5 -71.5t199.5 -195.5t73 -272q0 -146 -73 -270.5t-199.5 -197.5t-276.5 -73t-276 73t-199 197.5t-73 270.5zM270 518q0 -122 89.5 -211.5t213.5 -89.5t214 89.5t90 211.5t-90 211.5t-214 89.5t-213.5 -89.5t-89.5 -211.5z M274 1229l58 229l434 -139l-51 -203z" />
<glyph unicode="&#xd3;" horiz-adv-x="1163" d="M25 518q0 148 73 272t199 195.5t276 71.5t276.5 -71.5t199.5 -195.5t73 -272q0 -146 -73 -270.5t-199.5 -197.5t-276.5 -73t-276 73t-199 197.5t-73 270.5zM270 518q0 -122 89.5 -211.5t213.5 -89.5t214 89.5t90 211.5t-90 211.5t-214 89.5t-213.5 -89.5t-89.5 -211.5z M397 1319l434 139l58 -229l-440 -113z" />
<glyph unicode="&#xd4;" horiz-adv-x="1163" d="M25 518q0 148 73 272t199 195.5t276 71.5t276.5 -71.5t199.5 -195.5t73 -272q0 -146 -73 -270.5t-199.5 -197.5t-276.5 -73t-276 73t-199 197.5t-73 270.5zM270 518q0 -122 89.5 -211.5t213.5 -89.5t214 89.5t90 211.5t-90 211.5t-214 89.5t-213.5 -89.5t-89.5 -211.5z M272 1311l310 153l309 -153l-70 -181l-239 101l-240 -101z" />
<glyph unicode="&#xd5;" horiz-adv-x="1163" d="M25 518q0 148 73 272t199 195.5t276 71.5t276.5 -71.5t199.5 -195.5t73 -272q0 -146 -73 -270.5t-199.5 -197.5t-276.5 -73t-276 73t-199 197.5t-73 270.5zM240 1317q43 39 96 64.5t104 25.5q49 0 135 -34t130 -34q67 0 147 58l70 -172q-35 -41 -87 -64.5t-102 -23.5 q-48 0 -130.5 32.5t-129.5 32.5q-48 0 -92 -17t-68 -40zM270 518q0 -122 89.5 -211.5t213.5 -89.5t214 89.5t90 211.5t-90 211.5t-214 89.5t-213.5 -89.5t-89.5 -211.5z" />
<glyph unicode="&#xd6;" horiz-adv-x="1163" d="M25 518q0 148 73 272t199 195.5t276 71.5t276.5 -71.5t199.5 -195.5t73 -272q0 -146 -73 -270.5t-199.5 -197.5t-276.5 -73t-276 73t-199 197.5t-73 270.5zM270 518q0 -122 89.5 -211.5t213.5 -89.5t214 89.5t90 211.5t-90 211.5t-214 89.5t-213.5 -89.5t-89.5 -211.5z M303 1153v238h238v-238h-238zM623 1153v238h237v-238h-237z" />
<glyph unicode="&#xd7;" horiz-adv-x="868" d="M45 381l211 227l-211 228l184 182l205 -219l205 219l184 -182l-213 -228l213 -227l-182 -184l-207 221l-207 -221z" />
<glyph unicode="&#xd8;" horiz-adv-x="1155" d="M33 518q0 148 73 272t199.5 195.5t276.5 71.5q128 0 247 -58l35 48h209l-106 -144q163 -157 163 -385q0 -146 -73 -270.5t-199 -197.5t-276 -73q-133 0 -254 62l-29 -39h-209l100 137q-157 157 -157 381zM279 518q0 -100 61 -180l342 463q-46 18 -100 18 q-124 0 -213.5 -89.5t-89.5 -211.5zM473 236q55 -19 109 -19q124 0 213.5 89.5t89.5 211.5q0 102 -66 184z" />
<glyph unicode="&#xd9;" horiz-adv-x="1087" d="M61 498v549h256v-484q0 -71 5 -120.5t19 -93t39.5 -68.5t66 -39.5t98.5 -14.5q107 0 168 64t61 176v580h256v-1047h-256v84q-112 -94 -282 -94q-431 0 -431 508zM240 1229l57 229l434 -139l-51 -203z" />
<glyph unicode="&#xda;" horiz-adv-x="1087" d="M61 498v549h256v-484q0 -71 5 -120.5t19 -93t39.5 -68.5t66 -39.5t98.5 -14.5q107 0 168 64t61 176v580h256v-1047h-256v84q-112 -94 -282 -94q-431 0 -431 508zM362 1319l435 139l57 -229l-440 -113z" />
<glyph unicode="&#xdb;" horiz-adv-x="1087" d="M61 498v549h256v-484q0 -71 5 -120.5t19 -93t39.5 -68.5t66 -39.5t98.5 -14.5q107 0 168 64t61 176v580h256v-1047h-256v84q-112 -94 -282 -94q-431 0 -431 508zM238 1311l309 153l309 -153l-70 -181l-239 101l-240 -101z" />
<glyph unicode="&#xdc;" horiz-adv-x="1087" d="M61 498v549h256v-484q0 -71 5 -120.5t19 -93t39.5 -68.5t66 -39.5t98.5 -14.5q107 0 168 64t61 176v580h256v-1047h-256v84q-112 -94 -282 -94q-431 0 -431 508zM268 1153v238h238v-238h-238zM588 1153v238h237v-238h-237z" />
<glyph unicode="&#xdd;" horiz-adv-x="1005" d="M12 1047h271l221 -717l225 717h264l-313 -979q-42 -130 -77 -210.5t-79.5 -136.5t-97 -78t-125.5 -22q-114 0 -190 29l36 239q49 -10 95 -10q106 0 106 92q0 41 -47 189zM324 1319l434 139l57 -229l-440 -113z" />
<glyph unicode="&#xde;" horiz-adv-x="1206" d="M66 -354v1755h256v-438q134 94 303 94q150 0 276.5 -71.5t199.5 -195.5t73 -272q0 -146 -73 -270.5t-199.5 -197.5t-276.5 -73q-78 0 -159 25t-144 68v-424h-256zM322 518q0 -122 89.5 -211.5t213.5 -89.5t213.5 89.5t89.5 211.5t-89.5 211.5t-213.5 89.5t-213.5 -89.5 t-89.5 -211.5z" />
<glyph unicode="&#xdf;" horiz-adv-x="948" d="M66 0v1020q0 159 114 270t277 111t277 -111t114 -270q0 -143 -94 -248q75 -61 118 -147.5t43 -184.5q0 -195 -128.5 -317.5t-329.5 -122.5h-80v238h80q85 0 149 59.5t64 142.5q0 80 -60 139.5t-145 59.5h-88v238h92q55 0 94 42.5t39 100.5q0 60 -42.5 101.5t-102.5 41.5 t-103 -41.5t-43 -101.5v-1020h-245z" />
<glyph unicode="&#xe0;" horiz-adv-x="1206" d="M20 518q0 148 73 272t199.5 195.5t276.5 71.5q169 0 303 -94v84h256v-1047h-256v70q-63 -43 -144 -68t-159 -25q-150 0 -276.5 73t-199.5 197.5t-73 270.5zM266 518q0 -122 89.5 -211.5t213.5 -89.5t213.5 89.5t89.5 211.5t-89.5 211.5t-213.5 89.5t-213.5 -89.5 t-89.5 -211.5zM319 1229l58 229l434 -139l-51 -203z" />
<glyph unicode="&#xe1;" horiz-adv-x="1206" d="M20 518q0 148 73 272t199.5 195.5t276.5 71.5q169 0 303 -94v84h256v-1047h-256v70q-63 -43 -144 -68t-159 -25q-150 0 -276.5 73t-199.5 197.5t-73 270.5zM266 518q0 -122 89.5 -211.5t213.5 -89.5t213.5 89.5t89.5 211.5t-89.5 211.5t-213.5 89.5t-213.5 -89.5 t-89.5 -211.5zM352 1319l434 139l58 -229l-441 -113z" />
<glyph unicode="&#xe2;" horiz-adv-x="1206" d="M20 518q0 148 73 272t199.5 195.5t276.5 71.5q169 0 303 -94v84h256v-1047h-256v70q-63 -43 -144 -68t-159 -25q-150 0 -276.5 73t-199.5 197.5t-73 270.5zM266 518q0 -122 89.5 -211.5t213.5 -89.5t213.5 89.5t89.5 211.5t-89.5 211.5t-213.5 89.5t-213.5 -89.5 t-89.5 -211.5zM272 1311l310 153l309 -153l-70 -181l-239 101l-240 -101z" />
<glyph unicode="&#xe3;" horiz-adv-x="1206" d="M20 518q0 148 73 272t199.5 195.5t276.5 71.5q169 0 303 -94v84h256v-1047h-256v70q-63 -43 -144 -68t-159 -25q-150 0 -276.5 73t-199.5 197.5t-73 270.5zM240 1317q43 39 96 64.5t104 25.5q49 0 135 -34t130 -34q67 0 147 58l70 -172q-35 -41 -87 -64.5t-102 -23.5 q-48 0 -130.5 32.5t-129.5 32.5q-48 0 -92 -17t-68 -40zM266 518q0 -122 89.5 -211.5t213.5 -89.5t213.5 89.5t89.5 211.5t-89.5 211.5t-213.5 89.5t-213.5 -89.5t-89.5 -211.5z" />
<glyph unicode="&#xe4;" horiz-adv-x="1206" d="M20 518q0 148 73 272t199.5 195.5t276.5 71.5q169 0 303 -94v84h256v-1047h-256v70q-63 -43 -144 -68t-159 -25q-150 0 -276.5 73t-199.5 197.5t-73 270.5zM266 518q0 -122 89.5 -211.5t213.5 -89.5t213.5 89.5t89.5 211.5t-89.5 211.5t-213.5 89.5t-213.5 -89.5 t-89.5 -211.5zM303 1153v238h238v-238h-238zM623 1153v238h237v-238h-237z" />
<glyph unicode="&#xe5;" horiz-adv-x="1206" d="M20 518q0 148 73 272t199.5 195.5t276.5 71.5q169 0 303 -94v84h256v-1047h-256v70q-63 -43 -144 -68t-159 -25q-150 0 -276.5 73t-199.5 197.5t-73 270.5zM266 518q0 -122 89.5 -211.5t213.5 -89.5t213.5 89.5t89.5 211.5t-89.5 211.5t-213.5 89.5t-213.5 -89.5 t-89.5 -211.5zM403 1272q0 73 52.5 124.5t126.5 51.5t126 -51.5t52 -124.5q0 -74 -52 -126t-126 -52t-126.5 52.5t-52.5 125.5zM502 1272q0 -34 23 -58t57 -24t57 24t23 58q0 35 -23 59.5t-57 24.5t-57 -24.5t-23 -59.5z" />
<glyph unicode="&#xe6;" horiz-adv-x="2007" d="M29 518q0 148 73 272t199.5 195.5t276.5 71.5q169 0 303 -94v84h256v-72q135 82 293 82q121 0 225 -44.5t174 -120.5t109.5 -177t39.5 -213q0 -24 -4 -70h-831q33 -103 111.5 -159t195.5 -56q97 0 160.5 31.5t115.5 101.5l216 -119q-169 -254 -492 -254q-172 0 -313 82 v-59h-256v70q-63 -43 -144 -68t-159 -25q-150 0 -276.5 73t-199.5 197.5t-73 270.5zM274 518q0 -122 90 -211.5t214 -89.5t213.5 89.5t89.5 211.5t-89.5 211.5t-213.5 89.5t-214 -89.5t-90 -211.5zM1149 635h557q-78 184 -276 184q-92 0 -168.5 -51.5t-112.5 -132.5z" />
<glyph unicode="&#xe7;" horiz-adv-x="1052" d="M25 518q0 148 73 272t199 195.5t276 71.5q307 0 467 -252l-217 -121q-95 135 -250 135q-124 0 -213.5 -89.5t-89.5 -211.5t89.5 -211.5t213.5 -89.5q159 0 250 133l215 -119q-144 -225 -403 -249v-156h-119q-25 0 -42 -19t-17 -45q0 -25 17 -42t42 -17t42 17t17 42h119 q0 -73 -52 -124.5t-126 -51.5t-126 51.5t-52 124.5t52 125t126 52v43q-138 13 -250.5 87.5t-176.5 193t-64 255.5z" />
<glyph unicode="&#xe8;" horiz-adv-x="1155" d="M25 518q0 148 73 272t199 195.5t276 71.5q161 0 288 -76.5t194 -202.5t67 -276q0 -24 -4 -70h-831q33 -103 111.5 -159t195.5 -56q97 0 160.5 31.5t115.5 101.5l215 -119q-169 -254 -491 -254q-162 0 -292.5 70.5t-203.5 194t-73 276.5zM293 635h557q-78 184 -277 184 q-92 0 -168 -51.5t-112 -132.5zM319 1229l58 229l434 -139l-51 -203z" />
<glyph unicode="&#xe9;" horiz-adv-x="1155" d="M25 518q0 148 73 272t199 195.5t276 71.5q161 0 288 -76.5t194 -202.5t67 -276q0 -24 -4 -70h-831q33 -103 111.5 -159t195.5 -56q97 0 160.5 31.5t115.5 101.5l215 -119q-169 -254 -491 -254q-162 0 -292.5 70.5t-203.5 194t-73 276.5zM293 635h557q-78 184 -277 184 q-92 0 -168 -51.5t-112 -132.5zM352 1319l434 139l58 -229l-441 -113z" />
<glyph unicode="&#xea;" horiz-adv-x="1155" d="M25 518q0 148 73 272t199 195.5t276 71.5q161 0 288 -76.5t194 -202.5t67 -276q0 -24 -4 -70h-831q33 -103 111.5 -159t195.5 -56q97 0 160.5 31.5t115.5 101.5l215 -119q-169 -254 -491 -254q-162 0 -292.5 70.5t-203.5 194t-73 276.5zM272 1311l310 153l309 -153 l-70 -181l-239 101l-240 -101zM293 635h557q-78 184 -277 184q-92 0 -168 -51.5t-112 -132.5z" />
<glyph unicode="&#xeb;" horiz-adv-x="1155" d="M25 518q0 148 73 272t199 195.5t276 71.5q161 0 288 -76.5t194 -202.5t67 -276q0 -24 -4 -70h-831q33 -103 111.5 -159t195.5 -56q97 0 160.5 31.5t115.5 101.5l215 -119q-169 -254 -491 -254q-162 0 -292.5 70.5t-203.5 194t-73 276.5zM293 635h557q-78 184 -277 184 q-92 0 -168 -51.5t-112 -132.5zM303 1153v238h238v-238h-238zM623 1153v238h237v-238h-237z" />
<glyph unicode="&#xec;" d="M-68 1229l58 229l434 -139l-51 -203zM66 0v1047h258v-1047h-258z" />
<glyph unicode="&#xed;" d="M-35 1319l434 139l58 -229l-441 -113zM66 0v1047h258v-1047h-258z" />
<glyph unicode="&#xee;" d="M-115 1311l310 153l309 -153l-70 -181l-239 101l-240 -101zM66 0v1047h258v-1047h-258z" />
<glyph unicode="&#xef;" d="M-84 1153v238h238v-238h-238zM66 0v1047h258v-1047h-258zM236 1153v238h237v-238h-237z" />
<glyph unicode="&#xf0;" horiz-adv-x="1161" d="M33 518q0 148 73 272t199.5 195.5t276.5 71.5q25 0 65 -4l-33 63l-155 -20v176l71 10l-59 119h270l43 -84l185 26v-176l-101 -14l195 -377q65 -124 65 -258q0 -146 -72.5 -270.5t-198.5 -197.5t-275 -73q-150 0 -276.5 73t-199.5 197.5t-73 270.5zM279 518 q0 -122 89.5 -211.5t213.5 -89.5t213.5 89.5t89.5 211.5t-89.5 211.5t-213.5 89.5t-213.5 -89.5t-89.5 -211.5z" />
<glyph unicode="&#xf1;" horiz-adv-x="1095" d="M66 0v1047h256v-84q112 94 282 94q430 0 430 -508v-549h-256v483q0 72 -5 120.5t-19 92.5t-39 69t-65.5 39.5t-98.5 14.5q-107 0 -168 -63.5t-61 -175.5v-580h-256zM209 1317q43 39 96.5 64.5t104.5 25.5q49 0 134.5 -34t129.5 -34q67 0 147 58l70 -172 q-35 -41 -87 -64.5t-102 -23.5q-48 0 -130.5 32.5t-129.5 32.5t-91 -17t-68 -40z" />
<glyph unicode="&#xf2;" horiz-adv-x="1163" d="M25 518q0 148 73 272t199 195.5t276 71.5t276.5 -71.5t199.5 -195.5t73 -272q0 -146 -73 -270.5t-199.5 -197.5t-276.5 -73t-276 73t-199 197.5t-73 270.5zM270 518q0 -122 89.5 -211.5t213.5 -89.5t214 89.5t90 211.5t-90 211.5t-214 89.5t-213.5 -89.5t-89.5 -211.5z M319 1229l58 229l434 -139l-51 -203z" />
<glyph unicode="&#xf3;" horiz-adv-x="1163" d="M25 518q0 148 73 272t199 195.5t276 71.5t276.5 -71.5t199.5 -195.5t73 -272q0 -146 -73 -270.5t-199.5 -197.5t-276.5 -73t-276 73t-199 197.5t-73 270.5zM270 518q0 -122 89.5 -211.5t213.5 -89.5t214 89.5t90 211.5t-90 211.5t-214 89.5t-213.5 -89.5t-89.5 -211.5z M352 1319l434 139l58 -229l-441 -113z" />
<glyph unicode="&#xf4;" horiz-adv-x="1163" d="M25 518q0 148 73 272t199 195.5t276 71.5t276.5 -71.5t199.5 -195.5t73 -272q0 -146 -73 -270.5t-199.5 -197.5t-276.5 -73t-276 73t-199 197.5t-73 270.5zM270 518q0 -122 89.5 -211.5t213.5 -89.5t214 89.5t90 211.5t-90 211.5t-214 89.5t-213.5 -89.5t-89.5 -211.5z M272 1311l310 153l309 -153l-70 -181l-239 101l-240 -101z" />
<glyph unicode="&#xf5;" horiz-adv-x="1163" d="M25 518q0 148 73 272t199 195.5t276 71.5t276.5 -71.5t199.5 -195.5t73 -272q0 -146 -73 -270.5t-199.5 -197.5t-276.5 -73t-276 73t-199 197.5t-73 270.5zM240 1317q43 39 96 64.5t104 25.5q49 0 135 -34t130 -34q67 0 147 58l70 -172q-35 -41 -87 -64.5t-102 -23.5 q-48 0 -130.5 32.5t-129.5 32.5q-48 0 -92 -17t-68 -40zM270 518q0 -122 89.5 -211.5t213.5 -89.5t214 89.5t90 211.5t-90 211.5t-214 89.5t-213.5 -89.5t-89.5 -211.5z" />
<glyph unicode="&#xf6;" horiz-adv-x="1163" d="M25 518q0 148 73 272t199 195.5t276 71.5t276.5 -71.5t199.5 -195.5t73 -272q0 -146 -73 -270.5t-199.5 -197.5t-276.5 -73t-276 73t-199 197.5t-73 270.5zM270 518q0 -122 89.5 -211.5t213.5 -89.5t214 89.5t90 211.5t-90 211.5t-214 89.5t-213.5 -89.5t-89.5 -211.5z M303 1153v238h238v-238h-238zM623 1153v238h237v-238h-237z" />
<glyph unicode="&#xf7;" horiz-adv-x="868" d="M25 479v254h819v-254h-819zM305 164v246h258v-246h-258zM305 803v246h258v-246h-258z" />
<glyph unicode="&#xf8;" horiz-adv-x="1163" d="M33 518q0 148 73 272t199.5 195.5t276.5 71.5q128 0 247 -58l35 48h209l-106 -144q163 -157 163 -385q0 -146 -73 -270.5t-199 -197.5t-276 -73q-133 0 -254 62l-29 -39h-209l100 137q-157 157 -157 381zM279 518q0 -100 61 -180l342 463q-46 18 -100 18 q-124 0 -213.5 -89.5t-89.5 -211.5zM473 236q55 -19 109 -19q124 0 213.5 89.5t89.5 211.5q0 102 -66 184z" />
<glyph unicode="&#xf9;" horiz-adv-x="1087" d="M61 498v549h256v-484q0 -71 5 -120.5t19 -93t39.5 -68.5t66 -39.5t98.5 -14.5q107 0 168 64t61 176v580h256v-1047h-256v84q-112 -94 -282 -94q-431 0 -431 508zM285 1229l57 229l434 -139l-51 -203z" />
<glyph unicode="&#xfa;" horiz-adv-x="1087" d="M61 498v549h256v-484q0 -71 5 -120.5t19 -93t39.5 -68.5t66 -39.5t98.5 -14.5q107 0 168 64t61 176v580h256v-1047h-256v84q-112 -94 -282 -94q-431 0 -431 508zM317 1319l435 139l57 -229l-440 -113z" />
<glyph unicode="&#xfb;" horiz-adv-x="1087" d="M61 498v549h256v-484q0 -71 5 -120.5t19 -93t39.5 -68.5t66 -39.5t98.5 -14.5q107 0 168 64t61 176v580h256v-1047h-256v84q-112 -94 -282 -94q-431 0 -431 508zM238 1311l309 153l309 -153l-70 -181l-239 101l-240 -101z" />
<glyph unicode="&#xfc;" horiz-adv-x="1087" d="M61 498v549h256v-484q0 -71 5 -120.5t19 -93t39.5 -68.5t66 -39.5t98.5 -14.5q107 0 168 64t61 176v580h256v-1047h-256v84q-112 -94 -282 -94q-431 0 -431 508zM268 1153v238h238v-238h-238zM588 1153v238h237v-238h-237z" />
<glyph unicode="&#xfd;" horiz-adv-x="1005" d="M12 1047h271l221 -717l225 717h264l-313 -979q-42 -130 -77 -210.5t-79.5 -136.5t-97 -78t-125.5 -22q-114 0 -190 29l36 239q49 -10 95 -10q106 0 106 92q0 41 -47 189zM279 1319l434 139l57 -229l-440 -113z" />
<glyph unicode="&#xfe;" horiz-adv-x="1206" d="M66 -354v1755h256v-438q134 94 303 94q150 0 276.5 -71.5t199.5 -195.5t73 -272q0 -146 -73 -270.5t-199.5 -197.5t-276.5 -73q-78 0 -159 25t-144 68v-424h-256zM322 518q0 -122 89.5 -211.5t213.5 -89.5t213.5 89.5t89.5 211.5t-89.5 211.5t-213.5 89.5t-213.5 -89.5 t-89.5 -211.5z" />
<glyph unicode="&#xff;" horiz-adv-x="1005" d="M12 1047h271l221 -717l225 717h264l-313 -979q-42 -130 -77 -210.5t-79.5 -136.5t-97 -78t-125.5 -22q-114 0 -190 29l36 239q49 -10 95 -10q106 0 106 92q0 41 -47 189zM229 1153v238h238v-238h-238zM549 1153v238h237v-238h-237z" />
<glyph unicode="&#x152;" horiz-adv-x="2007" d="M29 518q0 148 73 272t199.5 195.5t276.5 71.5q127 0 238.5 -52.5t187.5 -144.5q76 92 187 144.5t239 52.5q121 0 225 -44.5t174 -120.5t109.5 -177t39.5 -213q0 -24 -4 -70h-831q33 -103 111.5 -159t195.5 -56q97 0 160.5 31.5t115.5 101.5l216 -119q-169 -254 -492 -254 q-139 0 -256 52.5t-193 144.5q-77 -92 -187 -144.5t-236 -52.5q-150 0 -276.5 73t-199.5 197.5t-73 270.5zM274 518q0 -122 90 -211.5t214 -89.5t213.5 89.5t89.5 211.5t-89.5 211.5t-213.5 89.5t-214 -89.5t-90 -211.5zM1149 635h557q-78 184 -276 184q-92 0 -168.5 -51.5 t-112.5 -132.5z" />
<glyph unicode="&#x153;" horiz-adv-x="2007" d="M29 518q0 148 73 272t199.5 195.5t276.5 71.5q127 0 238.5 -52.5t187.5 -144.5q76 92 187 144.5t239 52.5q121 0 225 -44.5t174 -120.5t109.5 -177t39.5 -213q0 -24 -4 -70h-831q33 -103 111.5 -159t195.5 -56q97 0 160.5 31.5t115.5 101.5l216 -119q-169 -254 -492 -254 q-139 0 -256 52.5t-193 144.5q-77 -92 -187 -144.5t-236 -52.5q-150 0 -276.5 73t-199.5 197.5t-73 270.5zM274 518q0 -122 90 -211.5t214 -89.5t213.5 89.5t89.5 211.5t-89.5 211.5t-213.5 89.5t-214 -89.5t-90 -211.5zM1149 635h557q-78 184 -276 184q-92 0 -168.5 -51.5 t-112.5 -132.5z" />
<glyph unicode="&#x178;" horiz-adv-x="1005" d="M12 1047h271l221 -717l225 717h264l-313 -979q-42 -130 -77 -210.5t-79.5 -136.5t-97 -78t-125.5 -22q-114 0 -190 29l36 239q49 -10 95 -10q106 0 106 92q0 41 -47 189zM229 1153v238h238v-238h-238zM549 1153v238h237v-238h-237z" />
<glyph unicode="&#x2c6;" horiz-adv-x="819" d="M100 1214l310 154l309 -154l-70 -180l-239 101l-240 -101z" />
<glyph unicode="&#x2dc;" horiz-adv-x="819" d="M68 1221q43 39 96 64.5t104 25.5q49 0 134.5 -34t129.5 -34q69 0 148 57l70 -172q-35 -41 -87 -64.5t-102 -23.5q-48 0 -130.5 33t-129.5 33q-48 0 -92 -17t-68 -40z" />
<glyph unicode="&#x2000;" horiz-adv-x="732" />
<glyph unicode="&#x2001;" horiz-adv-x="1464" />
<glyph unicode="&#x2002;" horiz-adv-x="732" />
<glyph unicode="&#x2003;" horiz-adv-x="1464" />
<glyph unicode="&#x2004;" horiz-adv-x="488" />
<glyph unicode="&#x2005;" horiz-adv-x="366" />
<glyph unicode="&#x2006;" horiz-adv-x="244" />
<glyph unicode="&#x2007;" horiz-adv-x="244" />
<glyph unicode="&#x2008;" horiz-adv-x="183" />
<glyph unicode="&#x2009;" horiz-adv-x="292" />
<glyph unicode="&#x200a;" horiz-adv-x="81" />
<glyph unicode="&#x2010;" horiz-adv-x="729" d="M66 401v242h598v-242h-598z" />
<glyph unicode="&#x2011;" horiz-adv-x="729" d="M66 401v242h598v-242h-598z" />
<glyph unicode="&#x2012;" horiz-adv-x="729" d="M66 401v242h598v-242h-598z" />
<glyph unicode="&#x2013;" horiz-adv-x="1138" d="M66 401v242h1007v-242h-1007z" />
<glyph unicode="&#x2014;" horiz-adv-x="1753" d="M66 401v242h1622v-242h-1622z" />
<glyph unicode="&#x2018;" horiz-adv-x="387" d="M66 1012v250l43 139h151l-18 -127h80v-262h-256z" />
<glyph unicode="&#x2019;" horiz-adv-x="387" d="M66 1139v262h256v-250l-43 -139h-152l18 127h-79z" />
<glyph unicode="&#x201a;" horiz-adv-x="387" d="M66 0v262h256v-250l-43 -139h-152l18 127h-79z" />
<glyph unicode="&#x201c;" horiz-adv-x="708" d="M66 1012v250l43 139h151l-18 -127h80v-262h-256zM387 1012v250l43 139h152l-19 -127h80v-262h-256z" />
<glyph unicode="&#x201d;" horiz-adv-x="708" d="M66 1139v262h256v-250l-43 -139h-152l18 127h-79zM387 1139v262h256v-250l-43 -139h-151l18 127h-80z" />
<glyph unicode="&#x201e;" horiz-adv-x="708" d="M66 0v262h256v-250l-43 -139h-152l18 127h-79zM387 0v262h256v-250l-43 -139h-151l18 127h-80z" />
<glyph unicode="&#x2022;" horiz-adv-x="524" d="M66 326v393h393v-393h-393z" />
<glyph unicode="&#x2026;" horiz-adv-x="1167" d="M66 0v270h258v-270h-258zM455 0v270h258v-270h-258zM844 0v270h258v-270h-258z" />
<glyph unicode="&#x202f;" horiz-adv-x="292" />
<glyph unicode="&#x2039;" horiz-adv-x="667" d="M98 518l246 443h225l-245 -443l245 -440h-225z" />
<glyph unicode="&#x203a;" horiz-adv-x="667" d="M98 78l246 440l-246 443h226l245 -443l-245 -440h-226z" />
<glyph unicode="&#x205f;" horiz-adv-x="366" />
<glyph unicode="&#x20ac;" horiz-adv-x="1101" d="M25 375v176h165v92h-165v176h168q18 179 150.5 298.5t330.5 119.5q132 0 238 -55t171 -156l-209 -129q-68 102 -200 102q-82 0 -148.5 -51.5t-85.5 -128.5h328v-176h-332v-92h332v-176h-322q25 -70 88.5 -115t139.5 -45q132 0 200 102l209 -129q-65 -101 -171 -156 t-238 -55q-192 0 -323 112.5t-156 285.5h-170z" />
<glyph unicode="&#x2122;" horiz-adv-x="1665" d="M49 1061v164h86v176h191v-176h155v-164h-155v-195q0 -47 10.5 -69.5t48 -35t115.5 -13.5l12 -195q-103 -3 -170.5 9.5t-115.5 47.5t-69.5 97.5t-21.5 158.5v195h-86zM590 555v670h190v-72q56 80 168 80q132 0 195 -94q41 46 101 70t122 24q250 0 250 -326v-352h-209v309 q0 106 -18 152.5t-74 46.5q-52 0 -85.5 -36.5t-33.5 -98.5v-373h-186v309q0 106 -22 152.5t-91 46.5q-52 0 -84.5 -36.5t-32.5 -98.5v-373h-190z" />
<glyph unicode="&#x25fc;" horiz-adv-x="1044" d="M0 0v1044h1044v-1044h-1044z" />
<glyph unicode="&#xfb01;" horiz-adv-x="1091" d="M37 694v238h104v45q0 246 132 345.5t419 90.5l-18 -250q-92 0 -146 -8.5t-83 -32.5t-37.5 -55.5t-8.5 -89.5v-45h236v-238h-236v-694h-258v694h-104zM768 0v1047h258v-1047h-258zM768 1143v258h258v-258h-258z" />
<glyph unicode="&#xfb02;" horiz-adv-x="1091" d="M37 694v238h104v45q0 246 132 345.5t419 90.5l-18 -250q-92 0 -146 -8.5t-83 -32.5t-37.5 -55.5t-8.5 -89.5v-45h236v-238h-236v-694h-258v694h-104zM768 0v1401h258v-1401h-258z" />
</font>
</defs>
</svg>
