<?xml version="1.0" standalone="no"?>
<!DOCTYPE svg PUBLIC "-//W3C//DTD SVG 1.1//EN" "http://www.w3.org/Graphics/SVG/1.1/DTD/svg11.dtd" >
<svg xmlns="http://www.w3.org/2000/svg" xmlns:xlink="http://www.w3.org/1999/xlink" version="1.1">
<metadata></metadata>
<defs>
<font id="adineue_pro_lightregular" horiz-adv-x="1183" >
<font-face units-per-em="2048" ascent="1536" descent="-512" />
<missing-glyph horiz-adv-x="409" />
<glyph horiz-adv-x="0" />
<glyph horiz-adv-x="682" />
<glyph unicode=" "  horiz-adv-x="409" />
<glyph unicode="&#x09;" horiz-adv-x="409" />
<glyph unicode="&#xa0;" horiz-adv-x="409" />
<glyph unicode="!" horiz-adv-x="282" d="M92 0v119h98v-119h-98zM92 354v1049h98v-1049h-98z" />
<glyph unicode="&#x22;" horiz-adv-x="446" d="M82 1403h102l-14 -273h-74zM262 1403h103l-15 -273h-74z" />
<glyph unicode="#" horiz-adv-x="1198" d="M68 371v98h221l39 457h-260v98h268l33 379h104l-33 -379h359l35 379h104l-35 -379h230v-98h-236l-39 -457h275v-98h-285l-31 -371h-104l30 371h-360l-31 -371h-104l31 371h-211zM393 469h359l41 457h-361z" />
<glyph unicode="$" horiz-adv-x="995" d="M55 358h111q14 -122 89.5 -195.5t205.5 -88.5v588q-64 19 -105 34t-92 44.5t-80.5 65.5t-50 94t-20.5 132q0 149 96 244.5t252 107.5v193h96v-193q162 -12 259 -106t106 -244h-109q-8 100 -72.5 171t-183.5 85v-547q36 -10 56.5 -16t54.5 -17t54.5 -20.5t49.5 -24.5 t47 -31t39.5 -37t34.5 -46t24.5 -55.5t17 -67t5.5 -78.5q0 -156 -104.5 -258t-278.5 -112v-166h-96v166q-179 14 -283 110t-123 268zM223 1034q0 -59 18 -104t53 -74.5t73.5 -48.5t93.5 -35v518q-108 -11 -173 -79.5t-65 -176.5zM557 74q130 9 203.5 81t73.5 191 q0 55 -15 98.5t-38.5 72t-62 52t-74.5 37.5t-87 29v-561z" />
<glyph unicode="%" horiz-adv-x="1626" d="M41 893v254q0 115 82 189.5t207 74.5q122 0 202 -74.5t80 -189.5v-254q0 -115 -80 -190.5t-202 -75.5q-125 0 -207 75.5t-82 190.5zM137 893q0 -77 54.5 -128.5t138.5 -51.5q82 0 136 51.5t54 128.5v254q0 77 -54 127.5t-136 50.5q-84 0 -138.5 -50.5t-54.5 -127.5v-254z M449 0l620 1403h109l-621 -1403h-108zM1014 256v254q0 115 80 190.5t202 75.5q125 0 207 -75.5t82 -190.5v-254q0 -115 -82 -189.5t-207 -74.5q-122 0 -202 74.5t-80 189.5zM1106 256q0 -77 54 -127.5t136 -50.5q84 0 138.5 50.5t54.5 127.5v254q0 77 -54.5 128.5 t-138.5 51.5q-82 0 -136 -51.5t-54 -128.5v-254z" />
<glyph unicode="&#x26;" horiz-adv-x="1376" d="M92 350q0 67 18 122.5t45.5 93.5t72 70.5t86 53t98.5 41.5q-72 74 -114 163.5t-42 172.5q0 153 100.5 252.5t255.5 99.5q150 0 246 -87t96 -234q0 -59 -13.5 -108.5t-41.5 -87.5t-58.5 -67t-78 -54t-85 -41.5t-93.5 -37.5l413 -387q87 115 137 267t58 301h94 q-11 -164 -67.5 -331.5t-155.5 -297.5l268 -254h-155l-183 174q-194 -197 -469 -197q-200 0 -316 103.5t-116 269.5zM195 350q0 -130 88.5 -208.5t242.5 -78.5q234 0 404 170l-447 431q-68 -27 -113 -51t-88.5 -61t-65 -87t-21.5 -115zM365 1079q0 -91 35 -164t114 -147 q46 17 74 27.5t68.5 29.5t64.5 35.5t52 41.5t43 52t25.5 63.5t10.5 78.5q0 104 -68 164.5t-178 60.5q-109 0 -175 -67.5t-66 -174.5z" />
<glyph unicode="'" horiz-adv-x="266" d="M82 1403h102l-14 -273h-74z" />
<glyph unicode="(" horiz-adv-x="497" d="M51 543q0 253 80 485.5t223 392.5l72 -51q-137 -154 -206.5 -373.5t-69.5 -453.5t69.5 -454.5t206.5 -373.5l-72 -51q-142 160 -222.5 392.5t-80.5 486.5z" />
<glyph unicode=")" horiz-adv-x="497" d="M72 -285q137 153 206.5 373.5t69.5 454.5t-69.5 453.5t-206.5 373.5l71 51q143 -160 223 -392.5t80 -485.5q0 -254 -80.5 -486.5t-222.5 -392.5z" />
<glyph unicode="*" horiz-adv-x="727" d="M76 963l207 131l-207 131l43 71l203 -125v232h84v-234l202 127l43 -71l-207 -131l207 -131l-43 -72l-202 127v-232h-84v230l-203 -125z" />
<glyph unicode="+" horiz-adv-x="901" d="M61 539v94h336v342h99v-342h344v-94h-344v-355h-99v355h-336z" />
<glyph unicode="," horiz-adv-x="266" d="M82 0v119h102v-111l-39 -155h-55l35 147h-43z" />
<glyph unicode="-" horiz-adv-x="714" d="M82 539v94h551v-94h-551z" />
<glyph unicode="." horiz-adv-x="266" d="M82 0v119h102v-119h-102z" />
<glyph unicode="/" horiz-adv-x="542" d="M37 0l369 1401h100l-369 -1401h-100z" />
<glyph unicode="0" horiz-adv-x="1105" d="M78 455v487q0 203 137 339t340 136q200 0 336.5 -136t136.5 -339v-487q0 -205 -136.5 -341.5t-336.5 -136.5q-203 0 -340 136.5t-137 341.5zM184 455q0 -164 105 -271.5t266 -107.5q158 0 262.5 107.5t104.5 271.5v487q0 164 -104 270.5t-263 106.5q-161 0 -266 -106.5 t-105 -270.5v-487z" />
<glyph unicode="1" horiz-adv-x="425" d="M68 1307v96h268v-1403h-103v1307h-165z" />
<glyph unicode="2" horiz-adv-x="1040" d="M68 1145q77 132 186.5 202t271.5 70q189 0 310.5 -115.5t121.5 -285.5q0 -78 -18 -142.5t-58 -123t-79 -100.5t-107 -105l-481 -451h758v-94h-903v94l555 518q58 53 93.5 91t67.5 87.5t46 104t14 121.5q0 131 -88 216t-232 85q-134 0 -219 -55.5t-153 -167.5z" />
<glyph unicode="3" horiz-adv-x="1062" d="M45 260l88 53q65 -112 155 -168.5t226 -56.5q171 0 273 102t102 267q0 169 -96 259.5t-273 90.5q-55 0 -105.5 -15.5t-74.5 -31.5l-23 -15l-45 66l525 500h-674v94h811v-96l-418 -404q224 0 351.5 -122t127.5 -324q0 -204 -133 -337.5t-348 -133.5q-310 0 -469 272z" />
<glyph unicode="4" horiz-adv-x="1071" d="M51 334v98l678 975h102v-975h187v-98h-187v-334h-102v334h-678zM172 432h557v809z" />
<glyph unicode="5" horiz-adv-x="1062" d="M45 260l84 51q66 -111 157 -167t228 -56q171 0 273 104t102 269q0 169 -95 260.5t-268 91.5q-198 0 -323 -170l-101 35l142 727h669v-100h-587l-103 -506q4 5 13 12.5t38.5 27t63 34.5t87 27.5t110.5 12.5q217 0 338.5 -122t121.5 -328q0 -204 -133.5 -339.5 t-347.5 -135.5q-310 0 -469 272z" />
<glyph unicode="6" horiz-adv-x="1110" d="M68 467q0 161 88 301l399 637h117l-316 -490q101 43 207 43q206 0 342.5 -140.5t136.5 -350.5q0 -135 -64.5 -246.5t-176.5 -175t-246 -63.5q-207 0 -347 139.5t-140 345.5zM172 467q0 -165 109 -275t274 -110t274 110t109 275q0 169 -108.5 280t-274.5 111t-274.5 -111 t-108.5 -280z" />
<glyph unicode="7" horiz-adv-x="954" d="M45 1300v99h866v-94l-579 -1305h-117l580 1300h-750z" />
<glyph unicode="8" horiz-adv-x="1030" d="M68 403q0 124 70 224t190 155q-85 46 -133 123t-48 166q0 149 107 247.5t260 98.5q154 0 261.5 -98.5t107.5 -247.5q0 -89 -46.5 -164t-136.5 -125q120 -51 191.5 -153.5t71.5 -225.5q0 -120 -60.5 -218.5t-163 -153t-225.5 -54.5q-186 0 -316 122.5t-130 303.5zM174 406 q0 -143 98 -236.5t242 -93.5t242 93.5t98 236.5q0 136 -98.5 229.5t-241.5 93.5t-241.5 -93.5t-98.5 -229.5zM256 1071q0 -103 75.5 -175.5t182.5 -72.5q111 0 185.5 72.5t74.5 175.5q0 108 -76 180t-184 72t-183 -72t-75 -180z" />
<glyph unicode="9" horiz-adv-x="1110" d="M68 938q0 135 64.5 246t176.5 174t246 63q207 0 347 -139t140 -344q0 -163 -88 -303l-399 -635h-117l316 489q-101 -43 -207 -43q-208 0 -343.5 140.5t-135.5 351.5zM170 936q0 -168 109.5 -279.5t275.5 -111.5q165 0 273 111.5t108 279.5q0 165 -108 276t-273 111 t-275 -111t-110 -276z" />
<glyph unicode=":" horiz-adv-x="266" d="M82 0v119h102v-119h-102zM82 905v119h102v-119h-102z" />
<glyph unicode=";" horiz-adv-x="266" d="M82 0v119h102v-111l-39 -155h-55l35 147h-43zM82 905v119h102v-119h-102z" />
<glyph unicode="&#x3c;" horiz-adv-x="901" d="M61 532v107l779 334v-107l-684 -280l684 -281v-106z" />
<glyph unicode="=" horiz-adv-x="901" d="M61 381v94h779v-94h-779zM61 686v94h779v-94h-779z" />
<glyph unicode="&#x3e;" horiz-adv-x="901" d="M61 199v106l684 281l-684 280v107l779 -334v-107z" />
<glyph unicode="?" horiz-adv-x="958" d="M41 1049q21 162 137 265t301 103q189 0 303.5 -112t114.5 -291q0 -79 -23.5 -145.5t-63.5 -113.5t-94.5 -81t-113.5 -52t-123 -24v-244h-98v330q123 0 214.5 33t147.5 108.5t56 188.5q0 138 -87 223.5t-233 85.5q-140 0 -225.5 -75.5t-106.5 -198.5h-106zM381 0v119h98 v-119h-98z" />
<glyph unicode="@" horiz-adv-x="1550" d="M61 561q0 154 54.5 289t150.5 233t233.5 154.5t297.5 56.5q136 0 251.5 -38t196 -102.5t137 -150t83 -180.5t26.5 -194q0 -197 -80 -310.5t-211 -113.5q-56 0 -101.5 31t-60.5 81q-47 -66 -123 -102.5t-167 -36.5q-163 0 -272 108t-109 273q0 164 109 272.5t272 108.5 q93 0 172.5 -41t121.5 -104v131h93v-555q0 -39 20.5 -62.5t58.5 -23.5q83 0 137 90t54 252q0 84 -23 166.5t-72 158.5t-119 134t-171.5 93t-222.5 35q-141 0 -263 -51.5t-206.5 -139t-132.5 -208t-48 -254.5q0 -126 49.5 -240.5t133.5 -198.5t203 -133.5t251 -49.5 q232 0 394 120l45 -67q-176 -133 -441 -133q-197 0 -363 95t-262 256.5t-96 350.5zM463 559q0 -127 81 -210t206 -83q121 0 206.5 84.5t85.5 208.5q0 121 -86 206t-206 85q-124 0 -205.5 -82.5t-81.5 -208.5z" />
<glyph unicode="A" horiz-adv-x="1261" d="M20 0l555 1403h109l557 -1403h-117l-145 371h-703l-145 -371h-111zM317 473h621l-309 789z" />
<glyph unicode="B" horiz-adv-x="1185" d="M102 0v1403h484q193 0 303 -103t110 -260q0 -95 -50.5 -179.5t-137.5 -127.5q134 -23 209.5 -114.5t75.5 -215.5q0 -173 -114.5 -288t-291.5 -115h-588zM211 100h465q153 0 232 84t79 211q0 116 -79 193.5t-224 77.5h-473v-566zM211 766h373q149 0 228 76t79 192 q0 115 -78.5 192t-220.5 77h-381v-537z" />
<glyph unicode="C" horiz-adv-x="1449" d="M61 702q0 204 98 369t263.5 256.5t363.5 91.5q207 0 361 -91t250 -255l-88 -57q-178 299 -523 299q-171 0 -312 -79t-222.5 -220t-81.5 -314t81.5 -314.5t222.5 -221.5t312 -80q344 0 523 297l84 -55q-204 -344 -607 -344q-148 0 -281.5 54t-231 148t-155 228.5 t-57.5 287.5z" />
<glyph unicode="D" horiz-adv-x="1306" d="M102 0v1403h433q145 0 275.5 -53t226.5 -145t152 -223t56 -280t-56 -280.5t-152 -223.5t-226.5 -145t-275.5 -53h-433zM211 100h319q168 0 307 77.5t219.5 216t80.5 308.5t-80.5 308t-219.5 215.5t-307 77.5h-319v-1203z" />
<glyph unicode="E" horiz-adv-x="1019" d="M102 0v1403h842v-100h-733v-543h682v-101h-682v-559h774v-100h-883z" />
<glyph unicode="F" horiz-adv-x="989" d="M102 0v1403h832v-100h-723v-568h672v-100h-672v-635h-109z" />
<glyph unicode="G" horiz-adv-x="1509" d="M61 702q0 153 57.5 287.5t155 228.5t231 148.5t281.5 54.5q174 0 315 -63t238 -182l-79 -68q-86 101 -207.5 154t-266.5 53q-171 0 -312 -79t-222.5 -220t-81.5 -314q0 -130 46.5 -244.5t128 -196t197.5 -128.5t251 -47q115 0 215.5 41t171.5 111.5t114 165t49 200.5 h-532v101h639v-64q0 -126 -47.5 -244.5t-131 -210t-208.5 -147t-270 -55.5q-207 0 -374 92t-262.5 256.5t-95.5 369.5z" />
<glyph unicode="H" horiz-adv-x="1243" d="M102 0v1403h109v-653h821v653h109v-1403h-109v649h-821v-649h-109z" />
<glyph unicode="I" horiz-adv-x="313" d="M102 0v1403h109v-1403h-109z" />
<glyph unicode="J" horiz-adv-x="1003" d="M37 440h108q0 -168 86.5 -262t241.5 -94t241.5 106.5t86.5 298.5v914h108v-924q0 -230 -118 -364.5t-318 -134.5q-199 0 -317.5 126t-118.5 334z" />
<glyph unicode="K" horiz-adv-x="1089" d="M113 0v1403h108v-682l692 682h138l-713 -698l737 -705h-151l-703 672v-672h-108z" />
<glyph unicode="L" horiz-adv-x="989" d="M102 0v1403h109v-1303h723v-100h-832z" />
<glyph unicode="M" horiz-adv-x="1521" d="M102 0v1403h123l537 -1237l534 1237h123v-1403h-104v1190l-524 -1190h-62l-524 1186v-1186h-103z" />
<glyph unicode="N" horiz-adv-x="1230" d="M102 0v1403h115l807 -1233v1233h104v-1403h-114l-807 1233v-1233h-105z" />
<glyph unicode="O" horiz-adv-x="1552" d="M61 702q0 153 56.5 287t153 228t228 148t277.5 54t277.5 -54t228 -148t153 -228t56.5 -287q0 -122 -36.5 -234t-102.5 -199t-154.5 -151.5t-196.5 -99t-225 -34.5t-225 34.5t-196.5 99t-154.5 151.5t-102.5 199t-36.5 234zM170 702q0 -173 80 -314.5t219 -221.5t307 -80 t307 80t219 221.5t80 314.5q0 130 -47 244t-128 195t-193 127.5t-238 46.5t-238 -46.5t-193 -127.5t-128 -195t-47 -244z" />
<glyph unicode="P" horiz-adv-x="1157" d="M102 0v1403h484q212 0 346.5 -130.5t134.5 -324.5q0 -200 -136.5 -328t-367.5 -128h-352v-492h-109zM211 592h364q176 0 279.5 101.5t103.5 256.5q0 153 -106.5 253t-296.5 100h-344v-711z" />
<glyph unicode="Q" horiz-adv-x="1552" d="M61 702q0 153 56.5 287t153 228t228 148t277.5 54t277.5 -54t228 -148t153 -228t56.5 -287q0 -155 -56.5 -288t-158.5 -232l186 -182l-110 -35l-154 152q-188 -133 -422 -133q-117 0 -225 34.5t-196.5 99t-154.5 151.5t-102.5 199t-36.5 234zM170 702q0 -173 80 -314.5 t219 -221.5t307 -80q192 0 346 104l-344 340l111 35l313 -309q85 85 132.5 200t47.5 246q0 130 -47 244t-128 195t-193 127.5t-238 46.5t-238 -46.5t-193 -127.5t-128 -195t-47 -244z" />
<glyph unicode="R" horiz-adv-x="1064" d="M102 0v1403h461q217 0 345 -119.5t128 -306.5q0 -180 -130.5 -301t-336.5 -121h-204l696 -555h-162l-688 555v-555h-109zM211 651h317q193 0 296.5 91t103.5 233q0 144 -102 236t-287 92h-328v-652z" />
<glyph unicode="S" horiz-adv-x="1181" d="M39 420h108q21 -166 139 -254q116 -87 307 -86h9q194 0 298 80t104 221q0 70 -31 119.5t-83 77t-120 46t-143 32t-150 28t-143 40t-120 63.5t-83 102.5t-31 152.5q0 168 127.5 270.5t337.5 102.5q223 0 358.5 -109t147.5 -294h-106q-13 129 -117 216t-289 87 q-165 0 -259.5 -76t-94.5 -199q0 -62 25.5 -107.5t69 -72t101.5 -47t123.5 -31t134 -25t134 -29t123.5 -43t101.5 -66t69 -99.5t25.5 -143q0 -84 -31 -155t-92 -125.5t-160 -85.5t-227 -31q-249 0 -393 110.5t-170 329.5z" />
<glyph unicode="T" horiz-adv-x="1083" d="M31 1303v100h1022v-100h-457v-1303h-109v1303h-456z" />
<glyph unicode="U" horiz-adv-x="1286" d="M104 541v862h109v-852q0 -222 113.5 -345.5t316.5 -123.5t316.5 123.5t113.5 345.5v852h109v-862q0 -258 -146.5 -409.5t-392.5 -151.5t-392.5 151.5t-146.5 409.5z" />
<glyph unicode="V" horiz-adv-x="1220" d="M20 1403h117l475 -1260l478 1260h110l-534 -1403h-109z" />
<glyph unicode="W" horiz-adv-x="1830" d="M41 1403h111l348 -1249l360 1249h113l360 -1247l348 1247h109l-401 -1403h-117l-361 1231l-358 -1231h-117z" />
<glyph unicode="X" horiz-adv-x="1280" d="M45 0l526 719l-485 684h129l432 -600l426 600h125l-485 -682l526 -721h-129l-471 641l-469 -641h-125z" />
<glyph unicode="Y" horiz-adv-x="1193" d="M41 1403h129l428 -680l428 680h127l-502 -774v-629h-108v625z" />
<glyph unicode="Z" horiz-adv-x="1187" d="M33 0v98l940 1205h-899v100h1034v-98l-938 -1205h987v-100h-1124z" />
<glyph unicode="[" horiz-adv-x="458" d="M92 -328v1731h326v-94h-228v-1542h228v-95h-326z" />
<glyph unicode="\" horiz-adv-x="542" d="M37 1403h100l369 -1403h-100z" />
<glyph unicode="]" horiz-adv-x="458" d="M41 -233h227v1542h-227v94h326v-1731h-326v95z" />
<glyph unicode="^" horiz-adv-x="901" d="M61 197l336 778h107l336 -778h-107l-282 684l-283 -684h-107z" />
<glyph unicode="_" horiz-adv-x="1024" d="M-2 -164h1028v-94h-1028v94z" />
<glyph unicode="`" horiz-adv-x="819" d="M203 1329v103l393 -132v-92z" />
<glyph unicode="a" d="M51 514q0 222 151 374t371 152q86 0 161.5 -22t122.5 -53t81 -62.5t48 -53.5l15 -22v197h101v-1024h-101v205q-5 -9 -15 -23.5t-47.5 -52.5t-82 -67t-121 -52.5t-162.5 -23.5q-144 0 -264 69t-189 190.5t-69 268.5zM152 512q0 -182 122 -306t306 -124q182 0 305 123.5 t123 306.5q0 184 -123 308t-305 124q-184 0 -306 -124t-122 -308z" />
<glyph unicode="b" d="M82 0v1403h100v-582q5 9 15 23.5t47.5 52.5t82 67t121 52.5t162.5 23.5q220 0 371.5 -152t151.5 -374q0 -110 -41 -208t-110.5 -168t-166.5 -111t-205 -41q-86 0 -161.5 22.5t-122.5 55t-81 64.5t-49 54l-14 23v-205h-100zM176 512q0 -183 123 -306.5t305 -123.5 q184 0 306 124t122 306q0 184 -122 308t-306 124q-182 0 -305 -124t-123 -308z" />
<glyph unicode="c" horiz-adv-x="1079" d="M51 516q0 146 65.5 266t184 189t266.5 69q319 0 471 -258l-77 -53q-64 104 -157.5 158.5t-236.5 54.5q-184 0 -299.5 -122t-115.5 -306t116.5 -307t300.5 -123q143 0 235.5 53.5t156.5 157.5l77 -53q-154 -256 -471 -256q-224 0 -370 152t-146 378z" />
<glyph unicode="d" d="M51 514q0 222 151 374t371 152q86 0 161.5 -22.5t122.5 -55t81 -64.5t48 -54l15 -23v582h101v-1403h-101v205q-5 -9 -15 -23.5t-47.5 -52.5t-82 -67t-121 -52.5t-162.5 -23.5q-144 0 -264 69t-189 190.5t-69 268.5zM152 512q0 -182 122 -306t306 -124q182 0 305 123.5 t123 306.5q0 184 -123 308t-305 124q-184 0 -306 -124t-122 -308z" />
<glyph unicode="e" horiz-adv-x="1144" d="M51 514q0 110 40 207.5t109.5 167.5t167 110.5t207.5 40.5q111 0 209 -40.5t165.5 -108.5t106 -158t38.5 -188l-4 -68h-932q12 -182 133 -287.5t293 -105.5q99 0 175 26.5t127 71t93 113.5l78 -53q-154 -256 -473 -256q-230 0 -381.5 151t-151.5 377zM158 569h831 q-15 169 -133 272t-281 103q-160 0 -279.5 -103.5t-137.5 -271.5z" />
<glyph unicode="f" horiz-adv-x="598" d="M41 934v90h154v68q0 84 25.5 146.5t69 97t93 51t104.5 16.5h68v-96h-66q-38 0 -70 -10t-62 -32.5t-47 -66.5t-17 -106v-68h264v-90h-264v-934h-98v934h-154z" />
<glyph unicode="g" horiz-adv-x="1171" d="M51 524q0 143 68.5 261.5t187 186.5t260.5 68q85 0 159.5 -22.5t120.5 -54t80 -63.5t48 -54l14 -23v201h101v-944q0 -199 -136 -330t-370 -131q-319 0 -473 256l77 53q64 -104 157 -157.5t239 -53.5q191 0 298 93t107 270v145q-5 -9 -15 -23.5t-46.5 -52.5t-81 -67 t-119.5 -52.5t-160 -23.5q-217 0 -366.5 149.5t-149.5 368.5zM152 522q0 -178 120 -299t301 -121q180 0 301 119t121 301q0 183 -121 302.5t-301 119.5q-181 0 -301 -121.5t-120 -300.5z" />
<glyph unicode="h" horiz-adv-x="1003" d="M82 0v1403h100v-535q4 7 11 18.5t36 41t64.5 52.5t97.5 41.5t133 18.5q181 0 289.5 -112.5t108.5 -300.5v-627h-101v614q0 155 -81 242.5t-226 87.5q-152 0 -242 -96t-90 -262v-586h-100z" />
<glyph unicode="i" horiz-adv-x="264" d="M82 0v1024h100v-1024h-100zM82 1294v109h100v-109h-100z" />
<glyph unicode="j" horiz-adv-x="264" d="M-102 -258q36 0 66.5 10t58 32.5t43.5 66.5t16 106v1067h100v-1067q0 -84 -25 -146.5t-67.5 -97t-90.5 -51t-101 -16.5v96zM82 1294v109h100v-109h-100z" />
<glyph unicode="k" horiz-adv-x="897" d="M82 0v1403h100v-879l461 500h123l-477 -514l567 -510h-141l-533 479v-479h-100z" />
<glyph unicode="l" horiz-adv-x="264" d="M82 0v1403h100v-1403h-100z" />
<glyph unicode="m" horiz-adv-x="1652" d="M82 0v1024h100v-150q3 7 10 18t34 39.5t60.5 50.5t92 40t125.5 18q118 0 205.5 -54.5t130.5 -151.5q15 30 38 59t65 65.5t108.5 59t146.5 22.5q169 0 271 -108t102 -289v-643h-101v635q0 146 -75 227.5t-207 81.5q-140 0 -225.5 -85.5t-85.5 -235.5v-623h-101v635 q0 146 -75 227.5t-207 81.5q-142 0 -227 -89.5t-85 -246.5v-608h-100z" />
<glyph unicode="n" horiz-adv-x="1003" d="M82 0v1024h100v-156q4 7 11 18.5t36 41t64.5 52.5t97.5 41.5t133 18.5q181 0 289.5 -112.5t108.5 -300.5v-627h-101v614q0 155 -81 242.5t-226 87.5q-152 0 -242 -96t-90 -262v-586h-100z" />
<glyph unicode="o" horiz-adv-x="1157" d="M51 514q0 146 69.5 267t191 190t268.5 69q146 0 267 -69t190 -190t69 -267q0 -224 -151.5 -376t-374.5 -152q-224 0 -376.5 152t-152.5 376zM152 512q0 -182 122 -306t306 -124q182 0 304 124t122 306q0 184 -122 308t-304 124q-184 0 -306 -124t-122 -308z" />
<glyph unicode="p" d="M82 -356v1380h100v-203q5 9 15 23.5t47.5 52.5t82 67t121 52.5t162.5 23.5q220 0 371.5 -152t151.5 -374q0 -110 -41 -208t-110.5 -168t-166.5 -111t-205 -41q-86 0 -161.5 22.5t-122.5 54.5t-81 63.5t-49 53.5l-14 23v-559h-100zM176 512q0 -183 123 -306.5t305 -123.5 q184 0 306 124t122 306q0 184 -122 308t-306 124q-182 0 -305 -124t-123 -308z" />
<glyph unicode="q" d="M51 514q0 222 151 374t371 152q86 0 161.5 -22.5t122.5 -54t81 -63.5t48 -54l15 -23v201h101v-1380h-101v561q-5 -9 -15 -23.5t-47.5 -52.5t-82 -67t-121 -52.5t-162.5 -23.5q-144 0 -264 69t-189 190.5t-69 268.5zM152 512q0 -182 122 -306t306 -124q182 0 305 123.5 t123 306.5q0 184 -123 308t-305 124q-184 0 -306 -124t-122 -308z" />
<glyph unicode="r" horiz-adv-x="575" d="M82 0v1024h100v-190q4 8 11.5 22t37.5 49.5t65.5 62.5t97 49.5t130.5 22.5v-110q-149 0 -245.5 -103.5t-96.5 -269.5v-557h-100z" />
<glyph unicode="s" horiz-adv-x="917" d="M51 311h103q14 -110 97 -170.5t228 -60.5q139 0 213 53.5t74 147.5q0 63 -37.5 103t-97 58t-131.5 30.5t-144 28t-131.5 41.5t-97 80.5t-37.5 135.5q0 127 98.5 204.5t262.5 77.5q169 0 272.5 -82t112.5 -221h-101q-8 88 -80.5 148.5t-205.5 60.5q-120 0 -188 -50 t-68 -134q0 -61 37 -99.5t96.5 -56t131.5 -29.5t143.5 -28.5t131 -43t96.5 -82t37 -138.5q0 -133 -104 -217t-285 -84q-187 0 -297 83.5t-129 243.5z" />
<glyph unicode="t" horiz-adv-x="628" d="M41 934v90h154v297h98v-297h285v-90h-285v-623q0 -61 18.5 -105.5t50 -67t65 -32.5t71.5 -10h77v-96h-79q-55 0 -106 16.5t-96 51t-72 97.5t-27 146v623h-154z" />
<glyph unicode="u" horiz-adv-x="1003" d="M82 397v627h100v-614q0 -155 81 -242.5t226 -87.5q152 0 242 96t90 262v586h101v-1024h-101v156q-4 -7 -11 -18.5t-36 -41t-64.5 -52.5t-97.5 -41.5t-133 -18.5q-180 0 -288.5 112t-108.5 301z" />
<glyph unicode="v" horiz-adv-x="970" d="M31 1024h114l344 -913l342 913h109l-391 -1024h-127z" />
<glyph unicode="w" horiz-adv-x="1533" d="M41 1024h113l247 -901l306 901h127l274 -901l276 901h109l-328 -1024h-127l-272 891l-305 -891h-127z" />
<glyph unicode="x" horiz-adv-x="980" d="M31 0l391 528l-361 496h127l304 -420l305 420h125l-365 -494l393 -530h-127l-334 455l-335 -455h-123z" />
<glyph unicode="y" horiz-adv-x="968" d="M31 1024h112l369 -868l317 868h109l-375 -999q-72 -201 -176 -291t-262 -90h-39v96h37q117 0 195 66t137 219z" />
<glyph unicode="z" horiz-adv-x="964" d="M61 0v90l680 844h-653v90h782v-90l-677 -844h710v-90h-842z" />
<glyph unicode="{" horiz-adv-x="542" d="M61 500v75h43q115 0 115 97q0 44 -21.5 99t-47 101t-47 111.5t-21.5 126.5q0 134 96.5 214.5t261.5 80.5h62v-88h-62q-126 0 -191 -53t-65 -150q0 -57 19.5 -117.5t43 -104t43 -101.5t19.5 -111q0 -29 -8 -54t-19 -40t-22 -26.5t-19 -15.5l-8 -5q3 -2 8 -5t18.5 -15.5 t23.5 -27.5t18 -40t8 -54q0 -53 -19.5 -111t-43 -101.5t-43 -104t-19.5 -117.5q0 -97 65 -150t191 -53h62v-86h-62q-165 0 -261.5 79.5t-96.5 213.5q0 61 21.5 126t47 111t47 101.5t21.5 100.5q0 47 -27 70.5t-88 23.5h-43z" />
<glyph unicode="|" horiz-adv-x="270" d="M86 -293v1696h98v-1696h-98z" />
<glyph unicode="}" horiz-adv-x="542" d="M41 -238h61q126 0 191 53t65 150q0 57 -19.5 117.5t-43 104t-43 101.5t-19.5 111q0 45 19 80.5t38 48.5l19 13q-3 2 -8 5t-18.5 15.5t-23.5 27t-18 39.5t-8 54q0 53 19.5 111t43 101.5t43 104t19.5 117.5q0 97 -65 150t-191 53h-61v86h61q165 0 262 -79.5t97 -213.5 q0 -61 -21.5 -126t-47 -111t-47 -101t-21.5 -100q0 -47 26.5 -70.5t87.5 -23.5h43v-76h-43q-61 0 -87.5 -24t-26.5 -72q0 -44 21.5 -99.5t47 -101.5t47 -111.5t21.5 -126.5q0 -134 -97 -214.5t-262 -80.5h-61v88z" />
<glyph unicode="~" horiz-adv-x="901" d="M61 473v102q3 4 9 11.5t26.5 26t44 32.5t61 25.5t77.5 11.5q62 0 124.5 -22.5t122 -45t113.5 -22.5t104 25t73 50l24 25v-102q-3 -4 -8.5 -11.5t-26 -26t-43 -32.5t-60 -25.5t-77.5 -11.5q-75 0 -186 45t-175 45q-53 0 -103.5 -25t-74.5 -50z" />
<glyph unicode="&#xa1;" horiz-adv-x="282" d="M92 0v1049h98v-1049h-98zM92 1284v119h98v-119h-98z" />
<glyph unicode="&#xa2;" horiz-adv-x="1142" d="M55 563q0 229 143.5 390t368.5 180v186h99v-186q312 -16 467 -281l-86 -57q-132 216 -381 229v-930q135 7 226 65.5t155 162.5l86 -58q-157 -261 -467 -278v-174h-99v174q-225 19 -368.5 181.5t-143.5 395.5zM166 561q0 -186 110.5 -316.5t290.5 -150.5v930 q-180 -19 -290.5 -148.5t-110.5 -314.5z" />
<glyph unicode="&#xa3;" horiz-adv-x="1142" d="M82 -6v106q3 4 9 10t25.5 23t41.5 31t57 28.5t72 20.5v387h-203v102h203v297q0 115 48.5 209.5t146.5 152.5t231 58q238 0 372 -184l-88 -61q-103 141 -286 141q-146 0 -230 -89.5t-84 -232.5v-291h373v-102h-373v-383q68 -8 144 -42t147.5 -62.5t138.5 -28.5 q45 0 88 12.5t72.5 30.5t52 35.5t32.5 29.5l11 13v-107q-4 -5 -11 -13.5t-32.5 -29.5t-54.5 -37t-76 -29.5t-98 -13.5q-65 0 -132.5 21t-114.5 46t-109.5 46t-118.5 21q-44 0 -86.5 -12t-71.5 -28.5t-51.5 -33.5t-33.5 -29z" />
<glyph unicode="&#xa5;" horiz-adv-x="999" d="M35 1403h125l346 -619l338 619h121l-383 -676h336v-98h-357v-183h357v-98h-357v-348h-108v348h-369v98h369v183h-369v98h346z" />
<glyph unicode="&#xa6;" horiz-adv-x="270" d="M86 -293v662h98v-662h-98zM86 739v664h98v-664h-98z" />
<glyph unicode="&#xa7;" horiz-adv-x="987" d="M61 618q0 79 44 137t126 89q-108 64 -108 192q0 119 100 193t266 74q172 0 277.5 -78t114.5 -209h-103q-8 82 -81.5 138t-209.5 56q-122 0 -191 -46t-69 -126q0 -57 38.5 -94t100 -55t136 -30.5t149.5 -29.5t136.5 -43.5t100 -80.5t38.5 -132q0 -79 -44 -136.5 t-126 -88.5q108 -64 108 -192q0 -119 -100 -193t-266 -74q-172 0 -277.5 78t-114.5 209h103q8 -82 81.5 -138t209.5 -56q122 0 191 46t69 126q0 50 -30 85t-79 52.5t-112 32t-128.5 23.5t-128.5 29t-112 46t-79 76.5t-30 119.5zM162 623q0 -45 23.5 -78t60 -51.5t90.5 -33.5 t105 -23t115 -21t108 -27q78 20 119.5 67t41.5 113q0 45 -23.5 78t-59.5 51.5t-90.5 33.5t-105 23t-114.5 21t-108 27q-78 -20 -120 -67.5t-42 -112.5z" />
<glyph unicode="&#xa8;" horiz-adv-x="819" d="M215 1296v107h98v-107h-98zM506 1296v107h98v-107h-98z" />
<glyph unicode="&#xa9;" horiz-adv-x="1284" d="M41 823q0 126 46.5 237.5t126 191t191.5 125.5t238 46t237.5 -46t191 -125.5t125.5 -191t46 -237.5t-46 -237.5t-125.5 -190.5t-191 -124.5t-237.5 -45.5t-238 45.5t-191.5 124.5t-126 190.5t-46.5 237.5zM117 823q0 -148 68.5 -268.5t189 -189t268.5 -68.5t268 68.5 t188 188.5t68 269q0 226 -149.5 377.5t-374.5 151.5t-375.5 -151.5t-150.5 -377.5zM332 823q0 136 90 227t229 91q178 0 275 -148l-76 -49q-31 51 -84 81t-115 30q-101 0 -164 -65t-63 -167q0 -100 63 -164.5t164 -64.5q62 0 114 29t83 79l78 -47q-96 -147 -275 -147 q-139 0 -229 90t-90 225z" />
<glyph unicode="&#xaa;" horiz-adv-x="815" d="M61 1071q0 147 100 245.5t247 98.5q150 0 245 -106v94h101v-662h-101v95q-96 -107 -245 -107q-146 0 -246.5 98.5t-100.5 243.5zM160 1071q0 -108 71 -179t177 -71q109 0 180 70.5t71 179.5q0 110 -71 182t-180 72q-106 0 -177 -72t-71 -182z" />
<glyph unicode="&#xab;" horiz-adv-x="784" d="M82 586l252 418h104l-252 -418l252 -418h-104zM346 586l252 418h104l-251 -418l251 -418h-104z" />
<glyph unicode="&#xad;" horiz-adv-x="714" d="M82 539v94h551v-94h-551z" />
<glyph unicode="&#xae;" horiz-adv-x="1284" d="M41 823q0 126 46.5 237.5t126 191t191.5 125.5t238 46t237.5 -46t191 -125.5t125.5 -191t46 -237.5t-46 -237.5t-125.5 -190.5t-191 -124.5t-237.5 -45.5t-238 45.5t-191.5 124.5t-126 190.5t-46.5 237.5zM117 823q0 -148 68.5 -268.5t189 -189t268.5 -68.5t268 68.5 t188 188.5t68 269q0 226 -149.5 377.5t-374.5 151.5t-375.5 -151.5t-150.5 -377.5zM524 494v614h88v-94q72 98 209 100v-100q-111 0 -160 -50.5t-49 -158.5v-311h-88z" />
<glyph unicode="&#xaf;" horiz-adv-x="819" d="M152 1264v90h516v-90h-516z" />
<glyph unicode="&#xb0;" horiz-adv-x="741" d="M82 1126q0 120 84.5 204.5t204.5 84.5t204 -84.5t84 -204.5t-84 -204t-204 -84t-204.5 84t-84.5 204zM180 1126q0 -84 56 -140t135 -56t134.5 56t55.5 140t-55.5 140.5t-134.5 56.5t-135 -56.5t-56 -140.5z" />
<glyph unicode="&#xb1;" horiz-adv-x="901" d="M61 0v94h779v-94h-779zM61 684v94h336v342h99v-342h344v-94h-344v-354h-99v354h-336z" />
<glyph unicode="&#xb4;" horiz-adv-x="819" d="M223 1208v92l393 132v-103z" />
<glyph unicode="&#xb6;" horiz-adv-x="872" d="M41 956q0 192 132.5 319.5t326.5 127.5h94v-1403h-94v506q-195 0 -327 126t-132 324zM711 0v1403h90v-1403h-90z" />
<glyph unicode="&#xb7;" horiz-adv-x="266" d="M82 524v119h102v-119h-102z" />
<glyph unicode="&#xb8;" horiz-adv-x="819" d="M217 -268h92q11 -76 92 -76q38 0 63 23.5t25 60.5q0 34 -26 57t-68 23h-135l109 198h96l-64 -116q74 0 124 -45.5t50 -116.5t-50.5 -119.5t-123.5 -48.5q-76 0 -126.5 42.5t-57.5 117.5z" />
<glyph unicode="&#xba;" horiz-adv-x="819" d="M61 1071q0 147 100 245.5t247 98.5q150 0 250 -98t100 -246q0 -145 -100.5 -243.5t-249.5 -98.5q-146 0 -246.5 98.5t-100.5 243.5zM162 1071q0 -106 70 -177t176 -71q108 0 178.5 71t70.5 177q0 108 -70.5 180t-178.5 72q-106 0 -176 -72t-70 -180z" />
<glyph unicode="&#xbb;" horiz-adv-x="784" d="M82 168l252 418l-252 418h104l252 -418l-252 -418h-104zM346 168l252 418l-252 418h105l251 -418l-251 -418h-105z" />
<glyph unicode="&#xbc;" horiz-adv-x="1226" d="M41 1319v84h186v-764h-92v680h-94zM152 0l620 1403h109l-621 -1403h-108zM604 172v74l391 522h86v-510h105v-86h-105v-172h-92v172h-385zM721 258h268v354z" />
<glyph unicode="&#xbd;" horiz-adv-x="1302" d="M41 1319v84h186v-764h-92v680h-94zM152 0l620 1403h109l-621 -1403h-108zM707 608q103 164 286 164q115 0 188.5 -65t73.5 -162q0 -78 -39.5 -135.5t-115.5 -120.5l-242 -205h404v-84h-545v74l321 276q62 53 89.5 93.5t27.5 101.5t-45 101t-117 40q-73 0 -120 -30 t-85 -91z" />
<glyph unicode="&#xbe;" horiz-adv-x="1523" d="M41 797l78 45q39 -61 88.5 -92t122.5 -31q89 0 141.5 48.5t52.5 125.5q0 80 -49 123t-141 43q-27 0 -56.5 -9.5t-45.5 -18.5l-15 -9l-45 59l270 240h-352v84h496v-74l-211 -188q112 -12 177.5 -78.5t65.5 -169.5q0 -115 -79.5 -189.5t-208.5 -74.5q-188 0 -289 166z M449 0l620 1403h109l-621 -1403h-108zM901 172v74l391 522h86v-510h105v-86h-105v-172h-92v172h-385zM1018 258h268v354z" />
<glyph unicode="&#xbf;" horiz-adv-x="907" d="M41 389q0 79 23.5 145.5t63.5 113.5t94.5 81t113.5 52t123 24v244h98v-330q-123 0 -214.5 -33t-147.5 -108.5t-56 -188.5q0 -138 87 -223.5t233 -85.5q140 0 225.5 75.5t106.5 198.5h106q-21 -162 -137 -265t-301 -103q-189 0 -303.5 112t-114.5 291zM459 1284v119h98 v-119h-98z" />
<glyph unicode="&#xc0;" horiz-adv-x="1261" d="M20 0l555 1403h109l557 -1403h-117l-145 371h-703l-145 -371h-111zM317 473h621l-309 789zM430 1708v102l393 -131v-92z" />
<glyph unicode="&#xc1;" horiz-adv-x="1261" d="M20 0l555 1403h109l557 -1403h-117l-145 371h-703l-145 -371h-111zM317 473h621l-309 789zM428 1587v92l393 131v-102z" />
<glyph unicode="&#xc2;" horiz-adv-x="1261" d="M20 0l555 1403h109l557 -1403h-117l-145 371h-703l-145 -371h-111zM317 473h621l-309 789zM373 1536v102l258 164l258 -164v-102l-258 158z" />
<glyph unicode="&#xc3;" horiz-adv-x="1261" d="M20 0l555 1403h109l557 -1403h-117l-145 371h-703l-145 -371h-111zM317 473h621l-309 789zM344 1565v86q2 4 6.5 9.5t20 21t33 27t44.5 21t56 9.5q58 0 139.5 -38t126.5 -38q40 0 77 19.5t54 39.5l17 19v-86q-2 -4 -6.5 -10t-20 -21.5t-33 -27.5t-44.5 -21.5t-56 -9.5 q-58 0 -140 38.5t-126 38.5q-25 0 -49.5 -8t-41.5 -19t-30.5 -22.5t-20.5 -19.5z" />
<glyph unicode="&#xc4;" horiz-adv-x="1261" d="M20 0l555 1403h109l557 -1403h-117l-145 371h-703l-145 -371h-111zM317 473h621l-309 789zM436 1675v107h99v-107h-99zM727 1675v107h98v-107h-98z" />
<glyph unicode="&#xc5;" horiz-adv-x="1261" d="M20 0l555 1403h109l557 -1403h-117l-145 371h-703l-145 -371h-111zM317 473h621l-309 789zM451 1700q0 74 51 124t127 50t127 -50t51 -124t-51 -125t-127 -51t-127 51t-51 125zM528 1700q0 -43 28.5 -73t72.5 -30t72 30t28 73t-28 71.5t-72 28.5t-72.5 -28.5t-28.5 -71.5 z" />
<glyph unicode="&#xc6;" horiz-adv-x="1718" d="M20 0l555 1403h1067v-100h-919l217 -543h651v-101h-612l223 -559h481v-100h-559l-145 371h-703l-145 -371h-111zM317 473h621l-309 789z" />
<glyph unicode="&#xc7;" horiz-adv-x="1449" d="M61 702q0 204 98 369t263.5 256.5t363.5 91.5q207 0 361 -91t250 -255l-88 -57q-178 299 -523 299q-171 0 -312 -79t-222.5 -220t-81.5 -314t81.5 -314.5t222.5 -221.5t312 -80q344 0 523 297l84 -55q-189 -322 -557 -342l-45 -84q74 0 124 -45.5t50 -116.5t-50.5 -119.5 t-123.5 -48.5q-76 0 -127 42.5t-58 117.5h92q11 -76 93 -76q38 0 63 23.5t25 60.5q0 34 -26.5 57t-68.5 23h-135l90 166q-140 9 -264.5 66t-216 150.5t-144.5 223t-53 276.5z" />
<glyph unicode="&#xc8;" horiz-adv-x="1019" d="M102 0v1403h842v-100h-733v-543h682v-101h-682v-559h774v-100h-883zM346 1708v102l393 -131v-92z" />
<glyph unicode="&#xc9;" horiz-adv-x="1019" d="M102 0v1403h842v-100h-733v-543h682v-101h-682v-559h774v-100h-883zM344 1587v92l393 131v-102z" />
<glyph unicode="&#xca;" horiz-adv-x="1019" d="M102 0v1403h842v-100h-733v-543h682v-101h-682v-559h774v-100h-883zM289 1536v102l258 164l258 -164v-102l-258 158z" />
<glyph unicode="&#xcb;" horiz-adv-x="1019" d="M102 0v1403h842v-100h-733v-543h682v-101h-682v-559h774v-100h-883zM352 1675v107h99v-107h-99zM643 1675v107h98v-107h-98z" />
<glyph unicode="&#xcc;" horiz-adv-x="337" d="M-33 1708v102l395 -131v-92zM102 0v1403h109v-1403h-109z" />
<glyph unicode="&#xcd;" horiz-adv-x="337" d="M-35 1587v92l395 131v-102zM102 0v1403h109v-1403h-109z" />
<glyph unicode="&#xce;" horiz-adv-x="337" d="M-90 1536v102l260 164l258 -164v-102l-258 158zM102 0v1403h109v-1403h-109z" />
<glyph unicode="&#xcf;" horiz-adv-x="337" d="M-27 1675v107h101v-107h-101zM102 0v1403h109v-1403h-109zM266 1675v107h99v-107h-99z" />
<glyph unicode="&#xd0;" horiz-adv-x="1318" d="M-10 641v94h112v668h433q145 0 275.5 -53t226.5 -145t152 -223t56 -280t-56 -280.5t-152 -223.5t-226.5 -145t-275.5 -53h-433v641h-112zM211 100h319q168 0 307 77.5t219.5 216t80.5 308.5t-80.5 308t-219.5 215.5t-307 77.5h-319v-568h350v-94h-350v-541z" />
<glyph unicode="&#xd1;" horiz-adv-x="1230" d="M102 0v1403h115l807 -1233v1233h104v-1403h-114l-807 1233v-1233h-105zM332 1565v86q2 4 6.5 9.5t20 21t33 27t44.5 21t56 9.5q58 0 139.5 -38t126.5 -38q25 0 49.5 8t41.5 19.5t30 23t19 19.5l7 8v-86q-2 -4 -6.5 -10t-20 -21.5t-33 -27.5t-44.5 -21.5t-56 -9.5 q-58 0 -140 38.5t-126 38.5q-25 0 -49.5 -8t-41.5 -19t-30 -22.5t-20 -19.5z" />
<glyph unicode="&#xd2;" horiz-adv-x="1552" d="M61 702q0 153 56.5 287t153 228t228 148t277.5 54t277.5 -54t228 -148t153 -228t56.5 -287q0 -122 -36.5 -234t-102.5 -199t-154.5 -151.5t-196.5 -99t-225 -34.5t-225 34.5t-196.5 99t-154.5 151.5t-102.5 199t-36.5 234zM170 702q0 -173 80 -314.5t219 -221.5t307 -80 t307 80t219 221.5t80 314.5q0 130 -47 244t-128 195t-193 127.5t-238 46.5t-238 -46.5t-193 -127.5t-128 -195t-47 -244zM575 1708v102l394 -131v-92z" />
<glyph unicode="&#xd3;" horiz-adv-x="1552" d="M61 702q0 153 56.5 287t153 228t228 148t277.5 54t277.5 -54t228 -148t153 -228t56.5 -287q0 -122 -36.5 -234t-102.5 -199t-154.5 -151.5t-196.5 -99t-225 -34.5t-225 34.5t-196.5 99t-154.5 151.5t-102.5 199t-36.5 234zM170 702q0 -173 80 -314.5t219 -221.5t307 -80 t307 80t219 221.5t80 314.5q0 130 -47 244t-128 195t-193 127.5t-238 46.5t-238 -46.5t-193 -127.5t-128 -195t-47 -244zM573 1587v92l394 131v-102z" />
<glyph unicode="&#xd4;" horiz-adv-x="1552" d="M61 702q0 153 56.5 287t153 228t228 148t277.5 54t277.5 -54t228 -148t153 -228t56.5 -287q0 -122 -36.5 -234t-102.5 -199t-154.5 -151.5t-196.5 -99t-225 -34.5t-225 34.5t-196.5 99t-154.5 151.5t-102.5 199t-36.5 234zM170 702q0 -173 80 -314.5t219 -221.5t307 -80 t307 80t219 221.5t80 314.5q0 130 -47 244t-128 195t-193 127.5t-238 46.5t-238 -46.5t-193 -127.5t-128 -195t-47 -244zM518 1536v102l258 164l258 -164v-102l-258 158z" />
<glyph unicode="&#xd5;" horiz-adv-x="1552" d="M61 702q0 153 56.5 287t153 228t228 148t277.5 54t277.5 -54t228 -148t153 -228t56.5 -287q0 -122 -36.5 -234t-102.5 -199t-154.5 -151.5t-196.5 -99t-225 -34.5t-225 34.5t-196.5 99t-154.5 151.5t-102.5 199t-36.5 234zM170 702q0 -173 80 -314.5t219 -221.5t307 -80 t307 80t219 221.5t80 314.5q0 130 -47 244t-128 195t-193 127.5t-238 46.5t-238 -46.5t-193 -127.5t-128 -195t-47 -244zM489 1565v86q2 4 6.5 9.5t20 21t33 27t44.5 21t56 9.5q58 0 139.5 -38t126.5 -38q40 0 77 19.5t54 39.5l17 19v-86q-2 -4 -6.5 -10t-20 -21.5 t-33 -27.5t-44.5 -21.5t-56 -9.5q-58 0 -140 38.5t-126 38.5q-25 0 -49.5 -8t-41.5 -19t-30.5 -22.5t-19.5 -19.5z" />
<glyph unicode="&#xd6;" horiz-adv-x="1552" d="M61 702q0 153 56.5 287t153 228t228 148t277.5 54t277.5 -54t228 -148t153 -228t56.5 -287q0 -122 -36.5 -234t-102.5 -199t-154.5 -151.5t-196.5 -99t-225 -34.5t-225 34.5t-196.5 99t-154.5 151.5t-102.5 199t-36.5 234zM170 702q0 -173 80 -314.5t219 -221.5t307 -80 t307 80t219 221.5t80 314.5q0 130 -47 244t-128 195t-193 127.5t-238 46.5t-238 -46.5t-193 -127.5t-128 -195t-47 -244zM582 1675v107h98v-107h-98zM872 1675v107h99v-107h-99z" />
<glyph unicode="&#xd7;" horiz-adv-x="901" d="M109 305l278 281l-276 276l63 68l279 -279l272 279l68 -66l-275 -278l275 -279l-64 -67l-276 278l-279 -278z" />
<glyph unicode="&#xd8;" horiz-adv-x="1552" d="M61 702q0 153 56.5 287t153 228t228 148t277.5 54q207 0 375 -102l113 166h131l-154 -230q117 -98 183.5 -240.5t66.5 -310.5q0 -122 -36.5 -234t-102.5 -199t-154.5 -151.5t-196.5 -99t-225 -34.5q-183 0 -338 82l-100 -148h-129l137 205q-132 98 -208.5 248.5 t-76.5 330.5zM170 702q0 -152 63 -280t173 -213l688 1020q-144 86 -318 86q-126 0 -238 -46.5t-193 -127.5t-128 -195t-47 -244zM496 152q135 -66 280 -66q168 0 307 80t219 221.5t80 314.5q0 140 -53 259t-149 204z" />
<glyph unicode="&#xd9;" horiz-adv-x="1286" d="M104 541v862h109v-852q0 -222 113.5 -345.5t316.5 -123.5t316.5 123.5t113.5 345.5v852h109v-862q0 -258 -146.5 -409.5t-392.5 -151.5t-392.5 151.5t-146.5 409.5zM442 1708v102l394 -131v-92z" />
<glyph unicode="&#xda;" horiz-adv-x="1286" d="M104 541v862h109v-852q0 -222 113.5 -345.5t316.5 -123.5t316.5 123.5t113.5 345.5v852h109v-862q0 -258 -146.5 -409.5t-392.5 -151.5t-392.5 151.5t-146.5 409.5zM440 1587v92l394 131v-102z" />
<glyph unicode="&#xdb;" horiz-adv-x="1286" d="M104 541v862h109v-852q0 -222 113.5 -345.5t316.5 -123.5t316.5 123.5t113.5 345.5v852h109v-862q0 -258 -146.5 -409.5t-392.5 -151.5t-392.5 151.5t-146.5 409.5zM385 1536v102l258 164l258 -164v-102l-258 158z" />
<glyph unicode="&#xdc;" horiz-adv-x="1286" d="M104 541v862h109v-852q0 -222 113.5 -345.5t316.5 -123.5t316.5 123.5t113.5 345.5v852h109v-862q0 -258 -146.5 -409.5t-392.5 -151.5t-392.5 151.5t-146.5 409.5zM449 1675v107h98v-107h-98zM739 1675v107h99v-107h-99z" />
<glyph unicode="&#xdd;" horiz-adv-x="1193" d="M41 1403h129l428 -680l428 680h127l-502 -774v-629h-108v625zM395 1587v92l393 131v-102z" />
<glyph unicode="&#xde;" horiz-adv-x="1157" d="M102 0v1403h109v-248h375q212 0 346.5 -130.5t134.5 -324.5q0 -200 -136.5 -328t-367.5 -128h-352v-244h-109zM211 344h364q176 0 279.5 101.5t103.5 256.5q0 153 -106.5 253t-296.5 100h-344v-711z" />
<glyph unicode="&#xdf;" horiz-adv-x="948" d="M82 0v1026q0 161 106.5 269t262.5 108t258 -98t102 -252q0 -59 -18.5 -111.5t-44.5 -86.5t-52 -59.5t-44 -36.5l-19 -11q11 -3 28.5 -10t63 -35t80.5 -64.5t63.5 -102.5t28.5 -145q0 -170 -119 -280.5t-297 -110.5h-110v90h110q137 0 226.5 83.5t89.5 217.5 q0 132 -89.5 214.5t-226.5 80.5h-110v92h73q108 0 189.5 83t81.5 192q0 115 -75.5 186.5t-188.5 71.5q-115 0 -193 -80t-78 -205v-1026h-98z" />
<glyph unicode="&#xe0;" d="M51 514q0 222 151 374t371 152q86 0 161.5 -22t122.5 -53t81 -62.5t48 -53.5l15 -22v197h101v-1024h-101v205q-5 -9 -15 -23.5t-47.5 -52.5t-82 -67t-121 -52.5t-162.5 -23.5q-144 0 -264 69t-189 190.5t-69 268.5zM152 512q0 -182 122 -306t306 -124q182 0 305 123.5 t123 306.5q0 184 -123 308t-305 124q-184 0 -306 -124t-122 -308zM391 1329v103l393 -132v-92z" />
<glyph unicode="&#xe1;" d="M51 514q0 222 151 374t371 152q86 0 161.5 -22t122.5 -53t81 -62.5t48 -53.5l15 -22v197h101v-1024h-101v205q-5 -9 -15 -23.5t-47.5 -52.5t-82 -67t-121 -52.5t-162.5 -23.5q-144 0 -264 69t-189 190.5t-69 268.5zM152 512q0 -182 122 -306t306 -124q182 0 305 123.5 t123 306.5q0 184 -123 308t-305 124q-184 0 -306 -124t-122 -308zM389 1208v92l393 132v-103z" />
<glyph unicode="&#xe2;" d="M51 514q0 222 151 374t371 152q86 0 161.5 -22t122.5 -53t81 -62.5t48 -53.5l15 -22v197h101v-1024h-101v205q-5 -9 -15 -23.5t-47.5 -52.5t-82 -67t-121 -52.5t-162.5 -23.5q-144 0 -264 69t-189 190.5t-69 268.5zM152 512q0 -182 122 -306t306 -124q182 0 305 123.5 t123 306.5q0 184 -123 308t-305 124q-184 0 -306 -124t-122 -308zM334 1157v103l258 163l258 -163v-103l-258 158z" />
<glyph unicode="&#xe3;" d="M51 514q0 222 151 374t371 152q86 0 161.5 -22t122.5 -53t81 -62.5t48 -53.5l15 -22v197h101v-1024h-101v205q-5 -9 -15 -23.5t-47.5 -52.5t-82 -67t-121 -52.5t-162.5 -23.5q-144 0 -264 69t-189 190.5t-69 268.5zM152 512q0 -182 122 -306t306 -124q182 0 305 123.5 t123 306.5q0 184 -123 308t-305 124q-184 0 -306 -124t-122 -308zM305 1186v86q2 4 6.5 9.5t20 21t33 27t44.5 21t56 9.5q58 0 139.5 -38t126.5 -38q40 0 77 19.5t54 38.5l17 20v-86q-2 -4 -6.5 -10t-20 -21.5t-33 -27.5t-44.5 -21.5t-56 -9.5q-58 0 -140 39t-126 39 q-40 0 -77 -19.5t-54 -38.5z" />
<glyph unicode="&#xe4;" d="M51 514q0 222 151 374t371 152q86 0 161.5 -22t122.5 -53t81 -62.5t48 -53.5l15 -22v197h101v-1024h-101v205q-5 -9 -15 -23.5t-47.5 -52.5t-82 -67t-121 -52.5t-162.5 -23.5q-144 0 -264 69t-189 190.5t-69 268.5zM152 512q0 -182 122 -306t306 -124q182 0 305 123.5 t123 306.5q0 184 -123 308t-305 124q-184 0 -306 -124t-122 -308zM397 1296v107h99v-107h-99zM688 1296v107h98v-107h-98z" />
<glyph unicode="&#xe5;" d="M51 514q0 222 151 374t371 152q86 0 161.5 -22t122.5 -53t81 -62.5t48 -53.5l15 -22v197h101v-1024h-101v205q-5 -9 -15 -23.5t-47.5 -52.5t-82 -67t-121 -52.5t-162.5 -23.5q-144 0 -264 69t-189 190.5t-69 268.5zM152 512q0 -182 122 -306t306 -124q182 0 305 123.5 t123 306.5q0 184 -123 308t-305 124q-184 0 -306 -124t-122 -308zM412 1321q0 74 51 124t127 50t127 -50t51 -124t-51 -125t-127 -51t-127 51t-51 125zM489 1321q0 -43 28.5 -72.5t72.5 -29.5t72 29.5t28 72.5t-28 71.5t-72 28.5t-72.5 -28.5t-28.5 -71.5z" />
<glyph unicode="&#xe6;" horiz-adv-x="2093" d="M51 514q0 222 151 374t371 152q86 0 161.5 -22t122.5 -53t81 -62.5t48 -53.5l15 -22v197h101v-199q69 100 179 157.5t243 57.5q111 0 209 -40.5t165 -108.5t105.5 -158t38.5 -188l-4 -68h-932q11 -171 128 -282t298 -111q99 0 175 26.5t127 71t93 113.5l78 -53 q-154 -256 -473 -256q-137 0 -249 56.5t-181 156.5v-199h-101v205q-5 -9 -15 -23.5t-47.5 -52.5t-82 -67t-121 -52.5t-162.5 -23.5q-144 0 -264 69t-189 190.5t-69 268.5zM152 512q0 -182 122 -306t306 -124q182 0 305 123.5t123 306.5q0 184 -123 308t-305 124 q-184 0 -306 -124t-122 -308zM1108 569h829q-12 159 -128 267t-285 108q-167 0 -282 -106t-134 -269z" />
<glyph unicode="&#xe7;" horiz-adv-x="1079" d="M51 516q0 146 65.5 266t184 189t266.5 69q319 0 471 -258l-77 -53q-64 104 -157.5 158.5t-236.5 54.5q-184 0 -299.5 -122t-115.5 -306t116.5 -307t300.5 -123q143 0 235.5 53.5t156.5 157.5l77 -53q-141 -232 -413 -254l-47 -86q74 0 124 -45.5t50 -116.5t-50.5 -119.5 t-123.5 -48.5q-76 0 -127 42.5t-58 117.5h92q11 -76 93 -76q38 0 63 23.5t25 60.5q0 34 -26.5 57t-68.5 23h-135l92 168q-138 9 -247.5 80t-169.5 188.5t-60 259.5z" />
<glyph unicode="&#xe8;" horiz-adv-x="1144" d="M51 514q0 110 40 207.5t109.5 167.5t167 110.5t207.5 40.5q111 0 209 -40.5t165.5 -108.5t106 -158t38.5 -188l-4 -68h-932q12 -182 133 -287.5t293 -105.5q99 0 175 26.5t127 71t93 113.5l78 -53q-154 -256 -473 -256q-230 0 -381.5 151t-151.5 377zM158 569h831 q-15 169 -133 272t-281 103q-160 0 -279.5 -103.5t-137.5 -271.5zM373 1329v103l393 -132v-92z" />
<glyph unicode="&#xe9;" horiz-adv-x="1144" d="M51 514q0 110 40 207.5t109.5 167.5t167 110.5t207.5 40.5q111 0 209 -40.5t165.5 -108.5t106 -158t38.5 -188l-4 -68h-932q12 -182 133 -287.5t293 -105.5q99 0 175 26.5t127 71t93 113.5l78 -53q-154 -256 -473 -256q-230 0 -381.5 151t-151.5 377zM158 569h831 q-15 169 -133 272t-281 103q-160 0 -279.5 -103.5t-137.5 -271.5zM371 1208v92l393 132v-103z" />
<glyph unicode="&#xea;" horiz-adv-x="1144" d="M51 514q0 110 40 207.5t109.5 167.5t167 110.5t207.5 40.5q111 0 209 -40.5t165.5 -108.5t106 -158t38.5 -188l-4 -68h-932q12 -182 133 -287.5t293 -105.5q99 0 175 26.5t127 71t93 113.5l78 -53q-154 -256 -473 -256q-230 0 -381.5 151t-151.5 377zM158 569h831 q-15 169 -133 272t-281 103q-160 0 -279.5 -103.5t-137.5 -271.5zM315 1157v103l258 163l258 -163v-103l-258 158z" />
<glyph unicode="&#xeb;" horiz-adv-x="1144" d="M51 514q0 110 40 207.5t109.5 167.5t167 110.5t207.5 40.5q111 0 209 -40.5t165.5 -108.5t106 -158t38.5 -188l-4 -68h-932q12 -182 133 -287.5t293 -105.5q99 0 175 26.5t127 71t93 113.5l78 -53q-154 -256 -473 -256q-230 0 -381.5 151t-151.5 377zM158 569h831 q-15 169 -133 272t-281 103q-160 0 -279.5 -103.5t-137.5 -271.5zM379 1296v107h98v-107h-98zM670 1296v107h98v-107h-98z" />
<glyph unicode="&#xec;" horiz-adv-x="264" d="M-70 1329v103l396 -132v-92zM82 0v1024h100v-1024h-100z" />
<glyph unicode="&#xed;" horiz-adv-x="264" d="M-72 1208v92l396 132v-103zM82 0v1024h100v-1024h-100z" />
<glyph unicode="&#xee;" horiz-adv-x="264" d="M-127 1157v103l260 163l258 -163v-103l-258 158zM82 0v1024h100v-1024h-100z" />
<glyph unicode="&#xef;" horiz-adv-x="264" d="M-63 1296v107h100v-107h-100zM82 0v1024h100v-1024h-100zM229 1296v107h99v-107h-99z" />
<glyph unicode="&#xf0;" horiz-adv-x="1146" d="M51 508q0 144 69 264.5t189 190t264 69.5q57 0 110.5 -12t78.5 -24l24 -13l-116 191l-217 -50v88l170 39l-95 152h111l80 -129l244 55v-88l-197 -45l246 -399q84 -136 84 -289q0 -144 -69 -264.5t-189.5 -190t-264.5 -69.5t-264 69.5t-189 190t-69 264.5zM150 508 q0 -181 122 -305.5t301 -124.5t301.5 124.5t122.5 305.5q0 119 -57 218t-154.5 155.5t-212.5 56.5q-179 0 -301 -124.5t-122 -305.5z" />
<glyph unicode="&#xf1;" horiz-adv-x="1003" d="M82 0v1024h100v-156q4 7 11 18.5t36 41t64.5 52.5t97.5 41.5t133 18.5q181 0 289.5 -112.5t108.5 -300.5v-627h-101v614q0 155 -81 242.5t-226 87.5q-152 0 -242 -96t-90 -262v-586h-100zM215 1186v86q2 4 6.5 9.5t20 21t33 27t44.5 21t56 9.5q58 0 139.5 -38t126.5 -38 q40 0 76.5 19.5t53.5 38.5l17 20v-86q-2 -4 -6.5 -10t-20 -21.5t-32.5 -27.5t-44 -21.5t-56 -9.5q-58 0 -140.5 39t-126.5 39q-40 0 -76.5 -19.5t-53.5 -38.5z" />
<glyph unicode="&#xf2;" horiz-adv-x="1157" d="M51 514q0 146 69.5 267t191 190t268.5 69q146 0 267 -69t190 -190t69 -267q0 -224 -151.5 -376t-374.5 -152q-224 0 -376.5 152t-152.5 376zM152 512q0 -182 122 -306t306 -124q182 0 304 124t122 306q0 184 -122 308t-304 124q-184 0 -306 -124t-122 -308zM379 1329v103 l393 -132v-92z" />
<glyph unicode="&#xf3;" horiz-adv-x="1157" d="M51 514q0 146 69.5 267t191 190t268.5 69q146 0 267 -69t190 -190t69 -267q0 -224 -151.5 -376t-374.5 -152q-224 0 -376.5 152t-152.5 376zM152 512q0 -182 122 -306t306 -124q182 0 304 124t122 306q0 184 -122 308t-304 124q-184 0 -306 -124t-122 -308zM377 1208v92 l393 132v-103z" />
<glyph unicode="&#xf4;" horiz-adv-x="1157" d="M51 514q0 146 69.5 267t191 190t268.5 69q146 0 267 -69t190 -190t69 -267q0 -224 -151.5 -376t-374.5 -152q-224 0 -376.5 152t-152.5 376zM152 512q0 -182 122 -306t306 -124q182 0 304 124t122 306q0 184 -122 308t-304 124q-184 0 -306 -124t-122 -308zM322 1157v103 l258 163l258 -163v-103l-258 158z" />
<glyph unicode="&#xf5;" horiz-adv-x="1157" d="M51 514q0 146 69.5 267t191 190t268.5 69q146 0 267 -69t190 -190t69 -267q0 -224 -151.5 -376t-374.5 -152q-224 0 -376.5 152t-152.5 376zM152 512q0 -182 122 -306t306 -124q182 0 304 124t122 306q0 184 -122 308t-304 124q-184 0 -306 -124t-122 -308zM293 1186v86 q2 4 6.5 9.5t20 21t33 27t44.5 21t56 9.5q58 0 139.5 -38t126.5 -38q40 0 76.5 19.5t53.5 38.5l17 20v-86q-2 -4 -6.5 -10t-20 -21.5t-32.5 -27.5t-44 -21.5t-56 -9.5q-58 0 -140.5 39t-126.5 39q-25 0 -49.5 -8t-41.5 -19.5t-30 -23t-19 -19.5z" />
<glyph unicode="&#xf6;" horiz-adv-x="1157" d="M51 514q0 146 69.5 267t191 190t268.5 69q146 0 267 -69t190 -190t69 -267q0 -224 -151.5 -376t-374.5 -152q-224 0 -376.5 152t-152.5 376zM152 512q0 -182 122 -306t306 -124q182 0 304 124t122 306q0 184 -122 308t-304 124q-184 0 -306 -124t-122 -308zM385 1296v107 h98v-107h-98zM676 1296v107h98v-107h-98z" />
<glyph unicode="&#xf7;" horiz-adv-x="901" d="M61 539v94h779v-94h-779zM397 184v119h99v-119h-99zM397 856v119h99v-119h-99z" />
<glyph unicode="&#xf8;" horiz-adv-x="1157" d="M51 514q0 146 69.5 267t191 190t268.5 69q148 0 268 -69l92 137h117l-131 -193q85 -73 132.5 -177t47.5 -224q0 -224 -151.5 -376t-374.5 -152q-133 0 -244 57l-84 -125h-117l119 176q-95 71 -149 181t-54 239zM152 512q0 -103 41.5 -191t115.5 -147l484 715 q-96 55 -213 55q-184 0 -306 -124t-122 -308zM391 123q84 -41 189 -41q182 0 304 124t122 306q0 192 -136 322z" />
<glyph unicode="&#xf9;" horiz-adv-x="1003" d="M82 397v627h100v-614q0 -155 81 -242.5t226 -87.5q152 0 242 96t90 262v586h101v-1024h-101v156q-4 -7 -11 -18.5t-36 -41t-64.5 -52.5t-97.5 -41.5t-133 -18.5q-180 0 -288.5 112t-108.5 301zM301 1329v103l393 -132v-92z" />
<glyph unicode="&#xfa;" horiz-adv-x="1003" d="M82 397v627h100v-614q0 -155 81 -242.5t226 -87.5q152 0 242 96t90 262v586h101v-1024h-101v156q-4 -7 -11 -18.5t-36 -41t-64.5 -52.5t-97.5 -41.5t-133 -18.5q-180 0 -288.5 112t-108.5 301zM299 1208v92l393 132v-103z" />
<glyph unicode="&#xfb;" horiz-adv-x="1003" d="M82 397v627h100v-614q0 -155 81 -242.5t226 -87.5q152 0 242 96t90 262v586h101v-1024h-101v156q-4 -7 -11 -18.5t-36 -41t-64.5 -52.5t-97.5 -41.5t-133 -18.5q-180 0 -288.5 112t-108.5 301zM244 1157v103l258 163l258 -163v-103l-258 158z" />
<glyph unicode="&#xfc;" horiz-adv-x="1003" d="M82 397v627h100v-614q0 -155 81 -242.5t226 -87.5q152 0 242 96t90 262v586h101v-1024h-101v156q-4 -7 -11 -18.5t-36 -41t-64.5 -52.5t-97.5 -41.5t-133 -18.5q-180 0 -288.5 112t-108.5 301zM307 1296v107h99v-107h-99zM598 1296v107h98v-107h-98z" />
<glyph unicode="&#xfd;" horiz-adv-x="968" d="M31 1024h112l369 -868l317 868h109l-375 -999q-72 -201 -176 -291t-262 -90h-39v96h37q117 0 195 66t137 219zM297 1208v92l393 132v-103z" />
<glyph unicode="&#xfe;" d="M82 -356v1759h100v-582q5 9 15 23.5t47.5 52.5t82 67t121 52.5t162.5 23.5q220 0 371.5 -152t151.5 -374q0 -110 -41 -208t-110.5 -168t-166.5 -111t-205 -41q-86 0 -161.5 22.5t-122.5 54.5t-81 63.5t-49 53.5l-14 23v-559h-100zM176 512q0 -183 123 -306.5t305 -123.5 q184 0 306 124t122 306q0 184 -122 308t-306 124q-182 0 -305 -124t-123 -308z" />
<glyph unicode="&#xff;" horiz-adv-x="968" d="M31 1024h112l369 -868l317 868h109l-375 -999q-72 -201 -176 -291t-262 -90h-39v96h37q117 0 195 66t137 219zM305 1296v107h98v-107h-98zM596 1296v107h98v-107h-98z" />
<glyph unicode="&#x152;" horiz-adv-x="2013" d="M61 700q0 149 56.5 280.5t152 223.5t226.5 145.5t276 53.5h1165v-100h-733v-543h682v-101h-682v-559h774v-100h-1206q-194 0 -356.5 89.5t-258.5 250.5t-96 360zM170 700q0 -127 47 -239t128 -191t193 -124.5t238 -45.5h320v1203h-320q-168 0 -307 -78t-219 -216.5 t-80 -308.5z" />
<glyph unicode="&#x153;" horiz-adv-x="2099" d="M51 514q0 146 69.5 267t191 190t268.5 69q159 0 285.5 -83t189.5 -220q61 138 187.5 220.5t287.5 82.5q111 0 209 -40.5t165 -108.5t105.5 -158t38.5 -188l-4 -68h-934q11 -171 129 -282t299 -111q99 0 175 26.5t127 71t93 113.5l78 -53q-154 -256 -473 -256 q-166 0 -294 82t-189 221q-62 -138 -189 -220.5t-286 -82.5q-224 0 -376.5 152t-152.5 376zM152 512q0 -182 122 -306t306 -124q182 0 304 124t122 306q0 184 -122 308t-304 124q-184 0 -306 -124t-122 -308zM1112 569h832q-12 159 -128.5 267t-285.5 108q-167 0 -283 -106 t-135 -269z" />
<glyph unicode="&#x178;" horiz-adv-x="1193" d="M41 1403h129l428 -680l428 680h127l-502 -774v-629h-108v625zM403 1675v107h99v-107h-99zM694 1675v107h99v-107h-99z" />
<glyph unicode="&#x2c6;" horiz-adv-x="819" d="M152 1157v103l258 163l258 -163v-103l-258 158z" />
<glyph unicode="&#x2dc;" horiz-adv-x="819" d="M123 1186v86q2 4 6.5 9.5t20 21t33 27t44.5 21t56 9.5q58 0 139.5 -38t126.5 -38q40 0 76.5 19.5t53.5 38.5l17 20v-86q-2 -4 -6.5 -10t-20 -21.5t-32.5 -27.5t-44 -21.5t-56 -9.5q-58 0 -140.5 39t-126.5 39q-40 0 -76.5 -19.5t-53.5 -38.5z" />
<glyph unicode="&#x2000;" horiz-adv-x="937" />
<glyph unicode="&#x2001;" horiz-adv-x="1874" />
<glyph unicode="&#x2002;" horiz-adv-x="937" />
<glyph unicode="&#x2003;" horiz-adv-x="1874" />
<glyph unicode="&#x2004;" horiz-adv-x="624" />
<glyph unicode="&#x2005;" horiz-adv-x="468" />
<glyph unicode="&#x2006;" horiz-adv-x="312" />
<glyph unicode="&#x2007;" horiz-adv-x="312" />
<glyph unicode="&#x2008;" horiz-adv-x="234" />
<glyph unicode="&#x2009;" horiz-adv-x="374" />
<glyph unicode="&#x200a;" horiz-adv-x="104" />
<glyph unicode="&#x2010;" horiz-adv-x="714" d="M82 539v94h551v-94h-551z" />
<glyph unicode="&#x2011;" horiz-adv-x="714" d="M82 539v94h551v-94h-551z" />
<glyph unicode="&#x2012;" horiz-adv-x="714" d="M82 539v94h551v-94h-551z" />
<glyph unicode="&#x2013;" horiz-adv-x="901" d="M61 539v94h779v-94h-779z" />
<glyph unicode="&#x2014;" horiz-adv-x="1689" d="M61 539v94h1567v-94h-1567z" />
<glyph unicode="&#x2018;" horiz-adv-x="266" d="M82 1137v110l39 156h55l-35 -148h43v-118h-102z" />
<glyph unicode="&#x2019;" horiz-adv-x="266" d="M82 1284v119h102v-111l-39 -155h-55l35 147h-43z" />
<glyph unicode="&#x201a;" horiz-adv-x="266" d="M82 0v119h102v-111l-39 -155h-55l35 147h-43z" />
<glyph unicode="&#x201c;" horiz-adv-x="446" d="M82 1137v110l39 156h55l-35 -148h43v-118h-102zM262 1137v110l39 156h55l-34 -148h43v-118h-103z" />
<glyph unicode="&#x201d;" horiz-adv-x="446" d="M82 1284v119h102v-111l-39 -155h-55l35 147h-43zM262 1284v119h103v-111l-39 -155h-56l35 147h-43z" />
<glyph unicode="&#x201e;" horiz-adv-x="446" d="M82 0v119h102v-111l-39 -155h-55l35 147h-43zM262 0v119h103v-111l-39 -155h-56l35 147h-43z" />
<glyph unicode="&#x2022;" horiz-adv-x="585" d="M61 586q0 98 66.5 163.5t165.5 65.5q98 0 164.5 -65.5t66.5 -163.5t-66.5 -164t-164.5 -66t-165 66t-67 164z" />
<glyph unicode="&#x2026;" horiz-adv-x="798" d="M82 0v119h102v-119h-102zM348 0v119h103v-119h-103zM614 0v119h103v-119h-103z" />
<glyph unicode="&#x202f;" horiz-adv-x="374" />
<glyph unicode="&#x2039;" horiz-adv-x="520" d="M82 586l252 418h104l-252 -418l252 -418h-104z" />
<glyph unicode="&#x203a;" horiz-adv-x="520" d="M82 168l252 418l-252 418h104l252 -418l-252 -418h-104z" />
<glyph unicode="&#x205f;" horiz-adv-x="468" />
<glyph unicode="&#x20ac;" horiz-adv-x="1193" d="M84 502v100h203v197h-203v100h203v100q0 115 48.5 209.5t146.5 152.5t231 58q238 0 372 -184l-88 -61q-103 141 -286 141q-146 0 -230 -89.5t-84 -232.5v-94h418v-100h-418v-197h418v-100h-418v-94q0 -141 84 -230.5t230 -89.5q183 0 286 141l88 -61q-134 -184 -372 -184 q-198 0 -312 120.5t-114 298.5v99h-203z" />
<glyph unicode="&#x2122;" horiz-adv-x="1759" d="M61 1112v80h111v213h86v-213h205v-80h-205v-428q0 -44 13 -73.5t37 -42.5t46.5 -18t51.5 -5h55v-84h-74q-40 0 -76 11.5t-68.5 36.5t-51.5 70t-19 105v428h-111zM594 461v731h88v-107q2 5 6.5 13t22.5 28.5t41 36t64 28.5t89 13q84 0 146.5 -38.5t93.5 -108.5 q12 22 28 42t46 46.5t78 42.5t106 16q121 0 197.5 -78t76.5 -206v-459h-88v444q0 103 -51 158t-143 55q-97 0 -156 -57.5t-59 -163.5v-436h-88v444q0 103 -51.5 158t-143.5 55q-102 0 -158.5 -59t-56.5 -172v-426h-88z" />
<glyph unicode="&#x25fc;" horiz-adv-x="1024" d="M0 0v1024h1024v-1024h-1024z" />
</font>
</defs>
</svg>
